<svg width="264" height="54" viewBox="0 0 264 54" fill="none" xmlns="http://www.w3.org/2000/svg">
<mask id="path-1-inside-1_392_80" fill="white">
<path fill-rule="evenodd" clip-rule="evenodd" d="M6 0C2.68629 0 0 2.68629 0 5.99999V34.8307C0 38.1444 2.68629 40.8307 5.99999 40.8307H56.453L68 53.3939L79.547 40.8307H258C261.314 40.8307 264 38.1444 264 34.8307V6C264 2.68629 261.314 0 258 0H6Z"/>
</mask>
<path fill-rule="evenodd" clip-rule="evenodd" d="M6 0C2.68629 0 0 2.68629 0 5.99999V34.8307C0 38.1444 2.68629 40.8307 5.99999 40.8307H56.453L68 53.3939L79.547 40.8307H258C261.314 40.8307 264 38.1444 264 34.8307V6C264 2.68629 261.314 0 258 0H6Z" fill="#3C3C3F"/>
<path d="M56.453 40.8307L57.1892 40.154L56.8921 39.8307H56.453V40.8307ZM68 53.3939L67.2637 54.0706L68 54.8717L68.7363 54.0706L68 53.3939ZM79.547 40.8307V39.8307H79.1079L78.8108 40.154L79.547 40.8307ZM1 5.99999C1 3.23857 3.23858 1 6 1V-1C2.13401 -1 -1 2.134 -1 5.99999H1ZM1 34.8307V5.99999H-1V34.8307H1ZM5.99999 39.8307C3.23857 39.8307 1 37.5921 1 34.8307H-1C-1 38.6966 2.134 41.8307 5.99999 41.8307V39.8307ZM56.453 39.8307H5.99999V41.8307H56.453V39.8307ZM55.7167 41.5074L67.2637 54.0706L68.7363 52.7172L57.1892 40.154L55.7167 41.5074ZM68.7363 54.0706L80.2833 41.5074L78.8108 40.154L67.2637 52.7172L68.7363 54.0706ZM258 39.8307H79.547V41.8307H258V39.8307ZM263 34.8307C263 37.5921 260.761 39.8307 258 39.8307V41.8307C261.866 41.8307 265 38.6967 265 34.8307H263ZM263 6V34.8307H265V6H263ZM258 1C260.761 1 263 3.23857 263 6H265C265 2.13401 261.866 -1 258 -1V1ZM6 1H258V-1H6V1Z" fill="url(#paint0_linear_392_80)" mask="url(#path-1-inside-1_392_80)"/>
<path d="M19.64 14.888C21.768 14.888 23.272 16.856 23.272 19.928C23.272 23.016 21.768 24.984 19.64 24.984C17.512 24.984 16.008 23.016 16.008 19.928C16.008 16.856 17.512 14.888 19.64 14.888ZM19.64 16.088C18.232 16.088 17.272 17.592 17.272 19.928C17.272 22.28 18.232 23.816 19.64 23.816C21.032 23.816 22.008 22.28 22.008 19.928C22.008 17.592 21.032 16.088 19.64 16.088ZM25.576 13.784H26.92V28.248H25.576V13.784ZM26.6 19.56H29.288V20.68H26.6V19.56ZM33.9588 15.272H35.0628V16.424C35.0628 19.08 33.4308 21.304 30.9988 22.168L30.3108 21.128C32.4868 20.36 33.9588 18.472 33.9588 16.424V15.272ZM34.2148 15.272H35.3188V16.424C35.3188 18.376 36.8228 20.136 38.9668 20.856L38.2788 21.896C35.8788 21.08 34.2148 18.952 34.2148 16.424V15.272ZM40.6308 13.784H41.9748V22.536H40.6308V13.784ZM32.3108 23.304H41.9748V28.248H40.6308V24.392H32.3108V23.304ZM30.6628 14.792H38.5828V15.864H30.6628V14.792ZM59.5135 13.784H60.7935V28.248H59.5135V13.784ZM57.1775 19.592H59.9455V20.68H57.1775V19.592ZM53.4335 15.64H54.7135C54.7135 19.368 53.4335 22.824 49.3055 25.144L48.5215 24.2C52.1535 22.168 53.4335 19.24 53.4335 15.896V15.64ZM49.0815 15.64H53.8815V16.744H49.0815V15.64ZM56.2975 14.168H57.5615V27.544H56.2975V14.168ZM63.4483 14.376H64.7603V16.456H68.8403V14.376H70.1363V20.696H63.4483V14.376ZM64.7603 17.496V19.624H68.8403V17.496H64.7603ZM72.7443 13.784H74.0723V21.24H72.7443V13.784ZM73.4963 16.888H76.2003V17.992H73.4963V16.888ZM64.8883 21.944H74.0723V25.448H66.2323V27.624H64.9203V24.456H72.7763V23H64.8883V21.944ZM64.9203 27.032H74.6003V28.088H64.9203V27.032ZM87.131 21.016H88.459V23.544H87.131V21.016ZM81.259 20.552H94.331V21.624H81.259V20.552ZM87.787 23.144C90.891 23.144 92.747 24.056 92.747 25.688C92.747 27.304 90.891 28.216 87.787 28.216C84.683 28.216 82.827 27.304 82.827 25.688C82.827 24.056 84.683 23.144 87.787 23.144ZM87.787 24.168C85.531 24.168 84.171 24.712 84.171 25.688C84.171 26.648 85.531 27.192 87.787 27.192C90.059 27.192 91.403 26.648 91.403 25.688C91.403 24.712 90.059 24.168 87.787 24.168ZM86.939 14.968H88.123V15.4C88.123 17.736 85.467 19.304 82.475 19.672L81.995 18.616C84.587 18.344 86.939 17.048 86.939 15.4V14.968ZM87.499 14.968H88.667V15.4C88.667 17.048 91.019 18.344 93.611 18.616L93.131 19.672C90.139 19.304 87.499 17.736 87.499 15.4V14.968ZM82.459 14.44H93.163V15.512H82.459V14.44ZM96.9983 27.0909C96.718 27.0909 96.4775 26.9905 96.2767 26.7898C96.0759 26.589 95.9756 26.3485 95.9756 26.0682C95.9756 25.7879 96.0759 25.5473 96.2767 25.3466C96.4775 25.1458 96.718 25.0455 96.9983 25.0455C97.2786 25.0455 97.5191 25.1458 97.7199 25.3466C97.9206 25.5473 98.021 25.7879 98.021 26.0682C98.021 26.2538 97.9737 26.4242 97.879 26.5795C97.7881 26.7348 97.665 26.8598 97.5097 26.9545C97.3581 27.0455 97.1877 27.0909 96.9983 27.0909ZM101.005 27.0909C100.724 27.0909 100.484 26.9905 100.283 26.7898C100.082 26.589 99.9818 26.3485 99.9818 26.0682C99.9818 25.7879 100.082 25.5473 100.283 25.3466C100.484 25.1458 100.724 25.0455 101.005 25.0455C101.285 25.0455 101.525 25.1458 101.726 25.3466C101.927 25.5473 102.027 25.7879 102.027 26.0682C102.027 26.2538 101.98 26.4242 101.885 26.5795C101.794 26.7348 101.671 26.8598 101.516 26.9545C101.364 27.0455 101.194 27.0909 101.005 27.0909ZM105.011 27.0909C104.73 27.0909 104.49 26.9905 104.289 26.7898C104.088 26.589 103.988 26.3485 103.988 26.0682C103.988 25.7879 104.088 25.5473 104.289 25.3466C104.49 25.1458 104.73 25.0455 105.011 25.0455C105.291 25.0455 105.532 25.1458 105.732 25.3466C105.933 25.5473 106.034 25.7879 106.034 26.0682C106.034 26.2538 105.986 26.4242 105.891 26.5795C105.801 26.7348 105.677 26.8598 105.522 26.9545C105.371 27.0455 105.2 27.0909 105.011 27.0909ZM111.712 25.288H124.816V26.392H111.712V25.288ZM117.6 21.784H118.912V25.656H117.6V21.784ZM117.568 15.608H118.688V16.504C118.688 19.464 115.728 21.704 112.88 22.296L112.336 21.24C114.832 20.824 117.568 18.792 117.568 16.504V15.608ZM117.808 15.608H118.928V16.504C118.928 18.792 121.68 20.776 124.208 21.192L123.68 22.248C120.784 21.672 117.808 19.464 117.808 16.504V15.608ZM112.784 15.096H123.712V16.184H112.784V15.096ZM127.695 14.536H137.007V15.624H127.695V14.536ZM126.031 19.864H139.135V20.952H126.031V19.864ZM136.143 14.536H137.439V15.608C137.439 16.84 137.439 18.248 136.959 20.248L135.663 20.184C136.143 18.2 136.143 16.808 136.143 15.608V14.536ZM127.631 22.92H137.487V28.056H127.631V22.92ZM136.191 23.976H128.927V26.984H136.191V23.976ZM140.942 15.08H147.582V21.784H140.942V15.08ZM146.286 16.152H142.238V20.712H146.286V16.152ZM150.238 13.768H151.566V24.376H150.238V13.768ZM151.15 18.184H153.71V19.288H151.15V18.184ZM142.558 26.84H152.222V27.928H142.558V26.84ZM142.558 23.368H143.886V27.304H142.558V23.368ZM169.297 13.784H170.625V28.248H169.297V13.784ZM165.057 15.336H166.369C166.369 19.528 164.481 23.192 159.649 25.56L158.945 24.488C163.121 22.472 165.057 19.4 165.057 15.56V15.336ZM159.601 15.336H165.633V16.424H159.601V15.336ZM182.864 13.768H184.208V28.264H182.864V13.768ZM183.888 19.48H186.576V20.6H183.888V19.48ZM173.696 23.544H174.832C177.504 23.544 179.376 23.448 181.536 23.048L181.68 24.168C179.456 24.584 177.552 24.664 174.832 24.664H173.696V23.544ZM173.696 15.176H180.416V16.264H175.008V24.04H173.696V15.176ZM197.966 13.768H199.294V28.264H197.966V13.768ZM195.118 17.08H198.318V18.168H195.118V17.08ZM187.934 23.784H189.006C191.246 23.784 193.086 23.72 195.294 23.368L195.422 24.472C193.15 24.824 191.294 24.904 189.006 24.904H187.934V23.784ZM187.902 15.08H194.222V20.264H189.246V24.04H187.934V19.176H192.91V16.184H187.902V15.08ZM195.022 21.032H198.222V22.12H195.022V21.032ZM207.517 15.208H208.669V15.816C208.669 18.408 205.917 20.312 203.005 20.808L202.493 19.752C205.037 19.384 207.517 17.72 207.517 15.816V15.208ZM207.853 15.208H208.989V15.816C208.989 17.72 211.485 19.384 214.013 19.752L213.517 20.808C210.589 20.312 207.853 18.408 207.853 15.816V15.208ZM207.565 22.728H208.877V28.248H207.565V22.728ZM201.725 22.024H214.797V23.112H201.725V22.024ZM202.941 14.68H213.533V15.752H202.941V14.68ZM221.74 18.952H224.508V20.056H221.74V18.952ZM219.036 15.144H220.076V17.896C220.076 20.92 218.812 23.848 216.7 25.144L215.868 24.136C217.852 22.968 219.036 20.376 219.036 17.896V15.144ZM219.292 15.144H220.316V17.848C220.316 20.168 221.404 22.632 223.308 23.784L222.54 24.824C220.46 23.544 219.292 20.664 219.292 17.848V15.144ZM227.052 13.784H228.332V28.248H227.052V13.784ZM224.124 14.088H225.372V27.528H224.124V14.088ZM233.562 21.224H234.875V25.56H233.562V21.224ZM238.907 21.224H240.235V25.56H238.907V21.224ZM230.363 25.304H243.467V26.408H230.363V25.304ZM236.891 14.696C239.947 14.696 242.139 16.152 242.139 18.424C242.139 20.68 239.947 22.136 236.891 22.136C233.819 22.136 231.627 20.68 231.627 18.424C231.627 16.152 233.819 14.696 236.891 14.696ZM236.891 15.752C234.571 15.752 232.907 16.808 232.907 18.424C232.907 20.024 234.571 21.08 236.891 21.08C239.211 21.08 240.859 20.024 240.859 18.424C240.859 16.808 239.211 15.752 236.891 15.752ZM246.881 15.3636L246.768 23.7273H245.449L245.336 15.3636H246.881ZM246.109 27.0909C245.828 27.0909 245.588 26.9905 245.387 26.7898C245.186 26.589 245.086 26.3485 245.086 26.0682C245.086 25.7879 245.186 25.5473 245.387 25.3466C245.588 25.1458 245.828 25.0455 246.109 25.0455C246.389 25.0455 246.629 25.1458 246.83 25.3466C247.031 25.5473 247.131 25.7879 247.131 26.0682C247.131 26.2538 247.084 26.4242 246.989 26.5795C246.898 26.7348 246.775 26.8598 246.62 26.9545C246.468 27.0455 246.298 27.0909 246.109 27.0909Z" fill="white"/>
<defs>
<linearGradient id="paint0_linear_392_80" x1="0" y1="26.697" x2="348" y2="26.697" gradientUnits="userSpaceOnUse">
<stop stop-color="#6AB9F2"/>
<stop offset="1" stop-color="#7380EF"/>
</linearGradient>
</defs>
</svg>
