<svg width="252" height="71" viewBox="0 0 252 71" fill="none" xmlns="http://www.w3.org/2000/svg">
<path d="M13.858 39.04C13.7487 38.4387 13.8307 37.318 14.104 35.678C14.3773 34.038 14.7053 32.2887 15.088 30.43C15.4707 28.5167 15.8533 26.7127 16.236 25.018C16.6733 23.2687 17.0287 22.0113 17.302 21.246C16.2633 21.8473 14.8967 22.394 13.202 22.886C11.5073 23.378 10.0313 23.624 8.774 23.624C7.68067 23.624 6.69667 23.1047 5.822 22.066C5.002 21.0273 4.51 19.8793 4.346 18.622C4.12733 17.0367 4.15467 15.3147 4.428 13.456C4.756 11.5427 5.22067 9.71133 5.822 7.962C5.494 8.07133 5.166 8.15333 4.838 8.208C4.51 8.26266 4.20933 8.34466 3.936 8.454C3.608 8.56333 3.22533 8.50866 2.788 8.29C2.40533 8.07133 2.05 7.798 1.722 7.47C1.394 7.142 1.12067 6.75933 0.902 6.322C0.683333 5.88466 0.601333 5.44733 0.656 5.01C0.656 4.682 0.738 4.354 0.902 4.026C1.01133 3.75267 1.17533 3.47933 1.394 3.206C1.66733 2.93266 2.05 2.74133 2.542 2.632C2.92467 2.52267 3.772 2.35867 5.084 2.14C6.396 1.86667 7.872 1.648 9.512 1.484C11.2067 1.26533 12.9287 1.10133 14.678 0.991999C16.4273 0.882663 17.9307 0.909996 19.188 1.074C19.8987 1.18333 20.4727 1.484 20.91 1.976C21.402 2.468 21.648 3.042 21.648 3.698C21.648 3.97133 21.5113 4.24466 21.238 4.518C20.9647 4.79133 20.6367 4.98266 20.254 5.092C18.942 5.36533 17.4933 5.63867 15.908 5.912C14.3773 6.18533 12.8193 6.486 11.234 6.814C10.7967 8.83666 10.496 10.75 10.332 12.554C10.168 14.358 10.086 16.1347 10.086 17.884C10.742 17.72 11.5073 17.5287 12.382 17.31C13.2567 17.0367 14.1313 16.7633 15.006 16.49C15.9353 16.2167 16.7827 15.916 17.548 15.588C18.368 15.26 19.0787 14.932 19.68 14.604C20.336 14.2213 21.0193 14.0027 21.73 13.948C22.4953 13.8933 23.1513 14.0027 23.698 14.276C24.2447 14.5493 24.5453 15.1233 24.6 15.998C24.7093 16.8727 24.6 17.5833 24.272 18.13C23.78 19.0593 23.2333 20.3987 22.632 22.148C22.0853 23.8427 21.5387 25.7287 20.992 27.806C20.4453 29.8287 19.9533 31.8787 19.516 33.956C19.0787 36.0333 18.7507 37.8373 18.532 39.368C20.5547 38.7667 22.5227 38.1927 24.436 37.646C26.3493 37.0993 27.8527 36.662 28.946 36.334C29.3287 36.2247 29.766 36.1427 30.258 36.088C30.8047 36.0333 31.324 36.0607 31.816 36.17C32.3627 36.2247 32.8273 36.3887 33.21 36.662C33.5927 36.9353 33.8113 37.3453 33.866 37.892C33.9753 38.9853 33.4013 39.8053 32.144 40.352C31.0507 40.844 29.5473 41.418 27.634 42.074C25.7753 42.73 23.8073 43.3587 21.73 43.96C19.6527 44.5613 17.6573 45.108 15.744 45.6C13.8307 46.0373 12.3273 46.3107 11.234 46.42C10.3047 46.5293 9.348 46.5293 8.364 46.42C7.43467 46.3107 6.83333 45.8733 6.56 45.108C6.34133 44.5067 6.478 43.878 6.97 43.222C7.51667 42.566 8.30933 42.1013 9.348 41.828C9.94933 41.664 10.6873 41.4727 11.562 41.254C12.4367 41.0353 13.3933 40.7893 14.432 40.516C14.1587 40.1333 13.9673 39.6413 13.858 39.04ZM29.11 68.314C29.0007 68.6967 28.6453 69.1887 28.044 69.79C27.4427 70.446 26.6773 70.692 25.748 70.528C25.256 70.4187 24.7913 70.0907 24.354 69.544C23.9713 69.052 23.862 68.396 24.026 67.576C24.19 66.756 24.3267 65.772 24.436 64.624C24.6 63.476 24.7367 62.2733 24.846 61.016C24.9553 59.7587 25.0647 58.556 25.174 57.408C25.2833 56.26 25.338 55.276 25.338 54.456C24.026 54.784 22.6047 55.2487 21.074 55.85C19.5433 56.3967 18.1493 56.916 16.892 57.408C16.1813 57.6813 15.4707 57.736 14.76 57.572C14.104 57.3533 13.6393 56.8887 13.366 56.178C13.202 55.5767 13.284 55.0027 13.612 54.456C13.94 53.8547 14.3227 53.4173 14.76 53.144C15.252 52.816 15.9627 52.4333 16.892 51.996C17.8213 51.5587 18.8053 51.1487 19.844 50.766C20.8827 50.3287 21.894 49.9733 22.878 49.7C23.862 49.372 24.682 49.1807 25.338 49.126C27.1967 49.0167 28.536 49.3993 29.356 50.274C30.2307 51.1487 30.6407 52.3787 30.586 53.964C30.586 54.784 30.5313 55.8773 30.422 57.244C30.3127 58.556 30.2033 59.9227 30.094 61.344C29.9847 62.7107 29.8207 64.0227 29.602 65.28C29.438 66.5373 29.274 67.5487 29.11 68.314ZM54.022 27.15C53.53 28.7353 53.0107 30.348 52.464 31.988C51.972 33.5733 51.48 35.1587 50.988 36.744C52.6827 36.7987 54.1313 37.236 55.334 38.056C56.5913 38.876 57.384 39.8327 57.712 40.926C58.04 41.8553 58.122 42.8393 57.958 43.878C57.8487 44.862 57.548 45.846 57.056 46.83C56.6187 47.814 56.0447 48.7707 55.334 49.7C54.6233 50.5747 53.8307 51.34 52.956 51.996C52.4093 52.4333 51.5347 52.898 50.332 53.39C49.184 53.8273 48.118 53.964 47.134 53.8C45.5487 53.5267 44.4827 52.6247 43.936 51.094C43.3893 49.5087 43.2527 47.8413 43.526 46.092C43.7993 44.2333 44.1 42.5933 44.428 41.172C44.8107 39.696 45.1933 38.2747 45.576 36.908C46.0133 35.5413 46.478 34.1473 46.97 32.726C47.462 31.3047 48.0087 29.6647 48.61 27.806C46.97 28.0247 45.3847 28.4347 43.854 29.036C42.3233 29.6373 41.0113 30.266 39.918 30.922C39.2073 31.3593 38.4147 31.4413 37.54 31.168C36.72 30.8947 36.31 30.2113 36.31 29.118C36.2007 28.2433 36.6653 27.396 37.704 26.576C38.7427 25.756 40.0273 25.0727 41.558 24.526C43.0887 23.9247 44.674 23.4873 46.314 23.214C47.954 22.886 49.3207 22.7767 50.414 22.886C51.9447 23.05 52.956 23.5693 53.448 24.444C53.9947 25.264 54.186 26.166 54.022 27.15ZM73.292 27.068C75.752 25.8107 78.13 25.1273 80.426 25.018C82.7767 24.9087 84.8813 25.1547 86.74 25.756C87.232 25.92 87.56 26.1387 87.724 26.412C87.9427 26.6853 88.052 26.9587 88.052 27.232C88.1067 27.4507 88.1067 27.6693 88.052 27.888C87.9973 28.052 87.97 28.1613 87.97 28.216C87.3687 29.2 86.658 29.692 85.838 29.692C84.69 29.692 83.6787 29.7193 82.804 29.774C81.984 29.774 81.2187 29.8287 80.508 29.938C79.852 29.9927 79.196 30.102 78.54 30.266C77.9387 30.43 77.2553 30.6213 76.49 30.84C75.998 31.004 75.588 31.0587 75.26 31.004C74.9867 30.8947 74.7407 30.7853 74.522 30.676C74.3033 30.512 74.112 30.3753 73.948 30.266C73.8387 30.1567 73.702 30.1293 73.538 30.184C73.4287 30.2387 73.374 30.5393 73.374 31.086C73.374 33.6553 73.456 36.0333 73.62 38.22C73.8387 40.4067 74.03 42.5387 74.194 44.616C74.2487 45.3267 74.0573 46.0647 73.62 46.83C73.2373 47.5953 72.6633 47.9233 71.898 47.814C71.3513 47.7047 70.7773 47.322 70.176 46.666C69.5747 46.01 69.2193 45.3267 69.11 44.616C68.29 39.368 67.9073 34.0653 67.962 28.708C68.0713 23.3507 68.4267 18.3487 69.028 13.702C69.0827 13.1553 69.274 12.7727 69.602 12.554C69.9847 12.2807 70.3673 12.144 70.75 12.144C71.1873 12.0893 71.6247 12.144 72.062 12.308C72.4993 12.4173 72.8547 12.5813 73.128 12.8C73.3467 12.964 73.62 13.292 73.948 13.784C74.276 14.2213 74.3853 14.6587 74.276 15.096C73.948 16.9547 73.702 18.95 73.538 21.082C73.374 23.1593 73.292 25.1547 73.292 27.068ZM54.35 16.49C54.514 16.9273 54.6507 17.5013 54.76 18.212C54.924 18.868 54.9787 19.4967 54.924 20.098C54.924 20.6447 54.76 21.1093 54.432 21.492C54.104 21.82 53.53 21.8747 52.71 21.656C52.218 21.492 51.8627 21.2187 51.644 20.836C51.4253 20.3987 51.1793 19.9613 50.906 19.524C49.8127 17.392 48.528 15.3147 47.052 13.292C45.576 11.2147 44.0453 9.356 42.46 7.716C41.5853 6.95066 41.0387 6.18533 40.82 5.42C40.6013 4.6 40.8747 3.88933 41.64 3.288C42.3507 2.85066 43.0613 2.76866 43.772 3.042C44.5373 3.26066 45.2207 3.64333 45.822 4.19C46.806 5.11933 47.7627 6.13066 48.692 7.224C49.6213 8.31733 50.4413 9.438 51.152 10.586C51.9173 11.6793 52.5733 12.7453 53.12 13.784C53.6667 14.768 54.0767 15.67 54.35 16.49ZM48.446 48.552C49.0473 48.224 49.6487 47.8413 50.25 47.404C50.906 46.9667 51.48 46.4747 51.972 45.928C52.464 45.3813 52.8193 44.8073 53.038 44.206C53.2567 43.55 53.2567 42.894 53.038 42.238C52.8193 41.582 52.4367 41.09 51.89 40.762C51.398 40.434 50.824 40.1607 50.168 39.942C49.7853 41.3633 49.43 42.812 49.102 44.288C48.8287 45.7093 48.61 47.1307 48.446 48.552ZM108.256 23.132C107.983 23.5693 107.381 23.9247 106.452 24.198C105.577 24.4167 104.566 24.5807 103.418 24.69C102.27 24.7993 101.095 24.8813 99.892 24.936C98.744 24.936 97.7873 24.9087 97.022 24.854C97.7327 25.4007 98.0333 26.0293 97.924 26.74C97.596 29.2 97.35 31.7967 97.186 34.53C97.0767 37.2633 97.1587 39.86 97.432 42.32C99.236 41.828 101.559 40.9533 104.402 39.696C107.245 38.384 110.115 36.498 113.012 34.038C114.105 33.054 114.898 32.726 115.39 33.054C115.773 33.3273 115.855 33.7647 115.636 34.366C115.472 34.9127 115.226 35.4593 114.898 36.006C114.242 37.154 113.34 38.3567 112.192 39.614C111.044 40.8167 109.732 41.992 108.256 43.14C106.835 44.2333 105.277 45.272 103.582 46.256C101.942 47.1853 100.247 47.9507 98.498 48.552C97.5687 48.8253 96.7213 48.8527 95.956 48.634C95.2453 48.4153 94.6167 48.06 94.07 47.568C93.578 47.0213 93.1407 46.3927 92.758 45.682C92.43 44.9167 92.2387 44.124 92.184 43.304C91.856 40.188 91.774 37.0173 91.938 33.792C92.102 30.512 92.4027 27.478 92.84 24.69C91.692 24.5807 90.79 24.2527 90.134 23.706C89.5327 23.1047 89.232 22.4487 89.232 21.738C89.232 21.5193 89.2867 21.3007 89.396 21.082C89.56 20.8087 89.9427 20.59 90.544 20.426C90.9267 20.3167 91.7193 20.18 92.922 20.016C94.1247 19.852 95.4913 19.7427 97.022 19.688C98.5527 19.6333 100.111 19.6333 101.696 19.688C103.336 19.7427 104.757 19.934 105.96 20.262C106.889 20.5353 107.573 20.9727 108.01 21.574C108.447 22.1207 108.529 22.64 108.256 23.132ZM125.886 45.026C125.886 45.9553 125.558 46.584 124.902 46.912C124.246 47.24 123.563 47.3493 122.852 47.24C122.415 47.1307 121.95 46.8573 121.458 46.42C120.966 45.9827 120.665 45.354 120.556 44.534C120.392 41.8553 120.255 39.122 120.146 36.334C120.091 33.546 120.064 30.84 120.064 28.216C120.064 25.592 120.091 23.1047 120.146 20.754C120.201 18.3487 120.283 16.2167 120.392 14.358C120.392 13.866 120.583 13.4013 120.966 12.964C121.403 12.5267 121.923 12.308 122.524 12.308C123.563 12.308 124.355 12.7453 124.902 13.62C125.503 14.4947 125.804 15.3147 125.804 16.08C125.695 17.8293 125.613 19.606 125.558 21.41C125.503 23.214 125.449 25.0453 125.394 26.904C127.417 26.1933 129.631 25.7013 132.036 25.428C134.441 25.1 137.229 25.0727 140.4 25.346C141.275 25.4553 142.095 25.7287 142.86 26.166C143.68 26.6033 144.09 27.15 144.09 27.806C143.817 28.7353 143.297 29.3367 142.532 29.61C141.767 29.8833 140.947 29.9927 140.072 29.938C139.525 29.938 138.815 29.9653 137.94 30.02C137.12 30.0747 136.218 30.184 135.234 30.348C134.25 30.4573 133.211 30.6213 132.118 30.84C131.025 31.0587 129.986 31.2773 129.002 31.496C128.291 31.66 127.635 31.66 127.034 31.496C126.433 31.332 125.886 31.086 125.394 30.758C125.394 35.7873 125.558 40.5433 125.886 45.026Z" fill="url(#paint0_linear_1_6)"/>
<path d="M180.741 39.04C180.631 38.4387 180.713 37.318 180.987 35.678C181.26 34.038 181.588 32.2887 181.971 30.43C182.353 28.5167 182.736 26.7127 183.119 25.018C183.556 23.2687 183.911 22.0113 184.185 21.246C183.146 21.8473 181.779 22.394 180.085 22.886C178.39 23.378 176.914 23.624 175.657 23.624C174.563 23.624 173.579 23.1047 172.705 22.066C171.885 21.0273 171.393 19.8793 171.229 18.622C171.01 17.0367 171.037 15.3147 171.311 13.456C171.639 11.5427 172.103 9.71133 172.705 7.962C172.377 8.07133 172.049 8.15333 171.721 8.208C171.393 8.26266 171.092 8.34466 170.819 8.454C170.491 8.56333 170.108 8.50866 169.671 8.29C169.288 8.07133 168.933 7.798 168.605 7.47C168.277 7.142 168.003 6.75933 167.785 6.322C167.566 5.88466 167.484 5.44733 167.539 5.01C167.539 4.682 167.621 4.354 167.785 4.026C167.894 3.75267 168.058 3.47933 168.277 3.206C168.55 2.93266 168.933 2.74133 169.425 2.632C169.807 2.52267 170.655 2.35867 171.967 2.14C173.279 1.86667 174.755 1.648 176.395 1.484C178.089 1.26533 179.811 1.10133 181.561 0.991999C183.31 0.882663 184.813 0.909996 186.071 1.074C186.781 1.18333 187.355 1.484 187.793 1.976C188.285 2.468 188.531 3.042 188.531 3.698C188.531 3.97133 188.394 4.24466 188.121 4.518C187.847 4.79133 187.519 4.98266 187.137 5.092C185.825 5.36533 184.376 5.63867 182.791 5.912C181.26 6.18533 179.702 6.486 178.117 6.814C177.679 8.83666 177.379 10.75 177.215 12.554C177.051 14.358 176.969 16.1347 176.969 17.884C177.625 17.72 178.39 17.5287 179.265 17.31C180.139 17.0367 181.014 16.7633 181.889 16.49C182.818 16.2167 183.665 15.916 184.431 15.588C185.251 15.26 185.961 14.932 186.563 14.604C187.219 14.2213 187.902 14.0027 188.613 13.948C189.378 13.8933 190.034 14.0027 190.581 14.276C191.127 14.5493 191.428 15.1233 191.483 15.998C191.592 16.8727 191.483 17.5833 191.155 18.13C190.663 19.0593 190.116 20.3987 189.515 22.148C188.968 23.8427 188.421 25.7287 187.875 27.806C187.328 29.8287 186.836 31.8787 186.399 33.956C185.961 36.0333 185.633 37.8373 185.415 39.368C187.437 38.7667 189.405 38.1927 191.319 37.646C193.232 37.0993 194.735 36.662 195.829 36.334C196.211 36.2247 196.649 36.1427 197.141 36.088C197.687 36.0333 198.207 36.0607 198.699 36.17C199.245 36.2247 199.71 36.3887 200.093 36.662C200.475 36.9353 200.694 37.3453 200.749 37.892C200.858 38.9853 200.284 39.8053 199.027 40.352C197.933 40.844 196.43 41.418 194.517 42.074C192.658 42.73 190.69 43.3587 188.613 43.96C186.535 44.5613 184.54 45.108 182.627 45.6C180.713 46.0373 179.21 46.3107 178.117 46.42C177.187 46.5293 176.231 46.5293 175.247 46.42C174.317 46.3107 173.716 45.8733 173.443 45.108C173.224 44.5067 173.361 43.878 173.853 43.222C174.399 42.566 175.192 42.1013 176.231 41.828C176.832 41.664 177.57 41.4727 178.445 41.254C179.319 41.0353 180.276 40.7893 181.315 40.516C181.041 40.1333 180.85 39.6413 180.741 39.04ZM195.993 68.314C195.883 68.6967 195.528 69.1887 194.927 69.79C194.325 70.446 193.56 70.692 192.631 70.528C192.139 70.4187 191.674 70.0907 191.237 69.544C190.854 69.052 190.745 68.396 190.909 67.576C191.073 66.756 191.209 65.772 191.319 64.624C191.483 63.476 191.619 62.2733 191.729 61.016C191.838 59.7587 191.947 58.556 192.057 57.408C192.166 56.26 192.221 55.276 192.221 54.456C190.909 54.784 189.487 55.2487 187.957 55.85C186.426 56.3967 185.032 56.916 183.775 57.408C183.064 57.6813 182.353 57.736 181.643 57.572C180.987 57.3533 180.522 56.8887 180.249 56.178C180.085 55.5767 180.167 55.0027 180.495 54.456C180.823 53.8547 181.205 53.4173 181.643 53.144C182.135 52.816 182.845 52.4333 183.775 51.996C184.704 51.5587 185.688 51.1487 186.727 50.766C187.765 50.3287 188.777 49.9733 189.761 49.7C190.745 49.372 191.565 49.1807 192.221 49.126C194.079 49.0167 195.419 49.3993 196.239 50.274C197.113 51.1487 197.523 52.3787 197.469 53.964C197.469 54.784 197.414 55.8773 197.305 57.244C197.195 58.556 197.086 59.9227 196.977 61.344C196.867 62.7107 196.703 64.0227 196.485 65.28C196.321 66.5373 196.157 67.5487 195.993 68.314ZM250.261 47.404C250.315 48.06 250.151 48.6613 249.769 49.208C249.441 49.7 248.894 49.946 248.129 49.946C247.199 49.946 246.516 49.4267 246.079 48.388C245.696 47.2947 245.423 46.092 245.259 44.78C245.149 43.96 245.067 42.894 245.013 41.582C245.013 40.27 245.04 38.9033 245.095 37.482C245.149 36.0607 245.231 34.7213 245.341 33.464C245.45 32.2067 245.559 31.1953 245.669 30.43C244.083 30.9767 242.635 31.5507 241.323 32.152C240.011 32.6987 238.699 33.2727 237.387 33.874C236.895 34.1473 236.293 34.2293 235.583 34.12C235.637 35.7053 235.719 37.236 235.829 38.712C235.938 40.1333 236.102 41.3907 236.321 42.484C236.43 43.4133 236.293 44.1513 235.911 44.698C235.583 45.2447 235.063 45.5727 234.353 45.682C233.587 45.7913 232.986 45.4087 232.549 44.534C232.111 43.6593 231.783 42.7573 231.565 41.828C231.346 40.7893 231.127 39.368 230.909 37.564C230.745 35.76 230.608 33.874 230.499 31.906C230.444 29.938 230.444 28.052 230.499 26.248C230.553 24.3893 230.663 22.9133 230.827 21.82C231.045 20.7813 231.319 19.9887 231.647 19.442C231.975 18.8407 232.494 18.4853 233.205 18.376C234.134 18.212 234.872 18.458 235.419 19.114C236.02 19.7153 236.266 20.5627 236.157 21.656C235.938 22.64 235.774 23.8153 235.665 25.182C235.61 26.5487 235.555 27.9973 235.501 29.528C236.43 28.9813 237.414 28.462 238.453 27.97C239.546 27.4233 240.585 26.9313 241.569 26.494C242.553 26.0567 243.455 25.674 244.275 25.346C245.095 25.018 245.751 24.772 246.243 24.608C246.352 23.624 246.489 22.6673 246.653 21.738C246.817 20.754 247.063 19.8793 247.391 19.114C247.719 18.458 248.101 17.9387 248.539 17.556C248.976 17.1733 249.441 17.0367 249.933 17.146C250.479 17.2553 250.889 17.556 251.163 18.048C251.491 18.4853 251.709 19.0047 251.819 19.606C251.928 20.2073 251.955 20.836 251.901 21.492C251.901 22.0933 251.873 22.64 251.819 23.132C251.655 25.0453 251.463 26.9313 251.245 28.79C251.081 30.594 250.917 32.48 250.753 34.448C250.589 36.3613 250.452 38.384 250.343 40.516C250.288 42.648 250.261 44.944 250.261 47.404ZM215.739 21.82C216.613 21.7653 217.433 21.82 218.199 21.984C219.019 22.148 219.675 22.476 220.167 22.968C220.713 23.4053 221.069 24.0067 221.233 24.772C221.397 25.5373 221.287 26.4667 220.905 27.56C220.413 28.708 219.893 29.9927 219.347 31.414C218.8 32.8353 218.281 34.3113 217.789 35.842C217.351 37.318 216.969 38.794 216.641 40.27C216.367 41.746 216.231 43.1127 216.231 44.37C217.871 43.55 218.964 42.73 219.511 41.91C220.057 41.0353 220.221 40.352 220.003 39.86C219.565 38.9307 219.21 38.1107 218.937 37.4C218.718 36.6893 218.827 36.088 219.265 35.596C219.866 34.94 220.522 34.8033 221.233 35.186C221.998 35.514 222.517 35.924 222.791 36.416C223.665 37.7827 224.13 39.0947 224.185 40.352C224.294 41.5547 224.13 42.6753 223.693 43.714C223.255 44.7527 222.627 45.7093 221.807 46.584C220.987 47.404 220.139 48.0873 219.265 48.634C218.499 49.126 217.679 49.5087 216.805 49.782C215.93 50.0007 215.137 50.11 214.427 50.11C213.607 50.11 212.869 49.8093 212.213 49.208C211.557 48.552 211.147 47.5133 210.983 46.092C210.819 44.5067 210.846 42.894 211.065 41.254C211.338 39.5593 211.721 37.892 212.213 36.252C212.705 34.612 213.279 32.9993 213.935 31.414C214.591 29.8287 215.247 28.3253 215.903 26.904C214.208 27.1773 212.814 27.5053 211.721 27.888C210.627 28.2707 209.315 28.7627 207.785 29.364C207.129 29.6373 206.336 29.692 205.407 29.528C204.532 29.364 203.903 28.9813 203.521 28.38C203.247 27.9427 203.111 27.56 203.111 27.232C203.111 26.904 203.302 26.5213 203.685 26.084C203.849 25.92 204.368 25.6193 205.243 25.182C206.117 24.7447 207.156 24.3073 208.359 23.87C209.616 23.378 210.901 22.9407 212.213 22.558C213.525 22.1753 214.7 21.9293 215.739 21.82ZM216.723 17.966C216.121 18.4033 215.547 18.458 215.001 18.13C214.454 17.802 213.962 17.4193 213.525 16.982C212.65 16.0527 211.502 14.9867 210.081 13.784C208.714 12.5267 207.347 11.3787 205.981 10.34C205.598 10.0667 205.379 9.602 205.325 8.946C205.325 8.23533 205.543 7.66133 205.981 7.224C206.199 6.95066 206.582 6.732 207.129 6.568C207.675 6.34933 208.304 6.45866 209.015 6.896C209.507 7.224 210.135 7.716 210.901 8.372C211.666 8.97333 212.431 9.684 213.197 10.504C214.017 11.2693 214.755 12.0893 215.411 12.964C216.121 13.8387 216.668 14.686 217.051 15.506C217.324 15.9433 217.433 16.408 217.379 16.9C217.379 17.3373 217.16 17.6927 216.723 17.966Z" fill="url(#paint1_linear_1_6)"/>
<defs>
<linearGradient id="paint0_linear_1_6" x1="128.5" y1="-14" x2="128.5" y2="89" gradientUnits="userSpaceOnUse">
<stop offset="0.3" stop-color="#666666"/>
<stop offset="1" stop-color="#55CBCD"/>
</linearGradient>
<linearGradient id="paint1_linear_1_6" x1="128.5" y1="-14" x2="128.5" y2="89" gradientUnits="userSpaceOnUse">
<stop offset="0.2" stop-color="#55CBCD"/>
<stop offset="1" stop-color="#6B6B6B"/>
</linearGradient>
</defs>
</svg>
