<svg width="483" height="557" viewBox="0 0 483 557" fill="none" xmlns="http://www.w3.org/2000/svg">
<path d="M125.859 471.13H130.419V473.02H125.859V488.08H123.729V460.66H125.859V471.13ZM105.489 480.07C107.029 479.19 108.349 478.4 109.449 477.7C110.549 477 111.469 476.35 112.209 475.75C112.969 475.13 113.579 474.55 114.039 474.01C114.499 473.47 114.849 472.93 115.089 472.39C115.329 471.83 115.489 471.24 115.569 470.62C115.649 470 115.689 469.32 115.689 468.58V465.19H105.789V463.27H117.759V468.61C117.759 469.97 117.629 471.16 117.369 472.18C117.129 473.18 116.619 474.16 115.839 475.12C115.059 476.06 113.929 477.05 112.449 478.09C110.989 479.13 109.039 480.36 106.599 481.78L105.489 480.07ZM154.634 476.29V488.05H137.894V476.29H139.964V480.07H152.564V476.29H154.634ZM133.274 467.14C133.274 466.46 133.434 465.79 133.754 465.13C134.074 464.47 134.524 463.89 135.104 463.39C135.704 462.87 136.414 462.46 137.234 462.16C138.054 461.84 138.964 461.68 139.964 461.68C140.964 461.68 141.874 461.84 142.694 462.16C143.514 462.46 144.214 462.87 144.794 463.39C145.394 463.89 145.854 464.47 146.174 465.13C146.494 465.79 146.654 466.46 146.654 467.14V468.58C146.654 469.28 146.494 469.96 146.174 470.62C145.854 471.26 145.394 471.84 144.794 472.36C144.214 472.86 143.514 473.27 142.694 473.59C141.874 473.89 140.964 474.04 139.964 474.04C138.964 474.04 138.054 473.89 137.234 473.59C136.414 473.27 135.704 472.86 135.104 472.36C134.524 471.84 134.074 471.26 133.754 470.62C133.434 469.96 133.274 469.28 133.274 468.58V467.14ZM144.614 467.35C144.614 466.85 144.494 466.38 144.254 465.94C144.034 465.48 143.714 465.08 143.294 464.74C142.874 464.38 142.374 464.1 141.794 463.9C141.234 463.68 140.624 463.57 139.964 463.57C139.304 463.57 138.684 463.68 138.104 463.9C137.544 464.1 137.054 464.38 136.634 464.74C136.214 465.08 135.884 465.48 135.644 465.94C135.424 466.38 135.314 466.85 135.314 467.35V468.37C135.314 468.87 135.424 469.35 135.644 469.81C135.884 470.25 136.214 470.65 136.634 471.01C137.054 471.35 137.544 471.63 138.104 471.85C138.684 472.05 139.304 472.15 139.964 472.15C140.624 472.15 141.234 472.05 141.794 471.85C142.374 471.63 142.874 471.35 143.294 471.01C143.714 470.65 144.034 470.25 144.254 469.81C144.494 469.35 144.614 468.87 144.614 468.37V467.35ZM152.564 486.16V481.93H139.964V486.16H152.564ZM154.634 474.67H152.534V460.66H154.634V474.67ZM179.388 476.14C178.148 476.14 177.018 476.04 175.998 475.84C174.978 475.64 174.108 475.36 173.388 475C172.668 474.62 172.108 474.16 171.708 473.62C171.308 473.08 171.108 472.46 171.108 471.76V470.92C171.108 470.24 171.308 469.63 171.708 469.09C172.108 468.53 172.668 468.07 173.388 467.71C174.108 467.33 174.978 467.04 175.998 466.84C177.018 466.64 178.148 466.54 179.388 466.54C180.628 466.54 181.758 466.64 182.778 466.84C183.798 467.04 184.668 467.33 185.388 467.71C186.108 468.07 186.668 468.53 187.068 469.09C187.468 469.63 187.668 470.24 187.668 470.92V471.76C187.668 472.46 187.468 473.08 187.068 473.62C186.668 474.16 186.108 474.62 185.388 475C184.668 475.36 183.798 475.64 182.778 475.84C181.758 476.04 180.628 476.14 179.388 476.14ZM191.988 478.15V479.98H180.468V488.08H178.338V479.98H166.788V478.15H191.988ZM179.388 468.31C178.488 468.31 177.648 468.38 176.868 468.52C176.108 468.66 175.448 468.85 174.888 469.09C174.348 469.33 173.918 469.62 173.598 469.96C173.298 470.3 173.148 470.67 173.148 471.07V471.61C173.148 472.01 173.298 472.38 173.598 472.72C173.918 473.06 174.348 473.35 174.888 473.59C175.448 473.83 176.108 474.02 176.868 474.16C177.648 474.3 178.488 474.37 179.388 474.37C180.288 474.37 181.118 474.3 181.878 474.16C182.658 474.02 183.318 473.83 183.858 473.59C184.418 473.35 184.848 473.06 185.148 472.72C185.468 472.38 185.628 472.01 185.628 471.61V471.07C185.628 470.67 185.468 470.3 185.148 469.96C184.848 469.62 184.418 469.33 183.858 469.09C183.318 468.85 182.658 468.66 181.878 468.52C181.118 468.38 180.288 468.31 179.388 468.31ZM180.468 463.21H189.408V465.01H169.368V463.21H178.338V460.09H180.468V463.21ZM210.473 470.89C210.433 471.09 210.223 471.39 209.843 471.79C209.463 472.17 208.943 472.64 208.283 473.2C207.763 473.66 207.093 474.21 206.273 474.85C205.453 475.47 204.553 476.11 203.573 476.77L202.403 475.18C203.563 474.38 204.513 473.7 205.253 473.14C206.013 472.58 206.683 472.05 207.263 471.55C207.683 471.19 208.023 470.85 208.283 470.53C208.563 470.21 208.773 469.88 208.913 469.54C209.073 469.2 209.183 468.84 209.243 468.46C209.303 468.06 209.333 467.6 209.333 467.08V465.61H203.003V463.78H209.333V460.36H211.463V463.78H217.463V465.61H211.463V467.02C211.463 467.58 211.483 468.05 211.523 468.43C211.583 468.81 211.693 469.16 211.853 469.48C212.033 469.78 212.283 470.08 212.603 470.38C212.923 470.68 213.343 471.03 213.863 471.43C214.503 471.93 215.133 472.4 215.753 472.84C216.393 473.28 217.133 473.77 217.973 474.31L216.863 475.9C216.283 475.52 215.663 475.1 215.003 474.64C214.343 474.16 213.723 473.7 213.143 473.26C212.823 473.02 212.513 472.78 212.213 472.54C211.913 472.3 211.643 472.08 211.403 471.88C211.163 471.66 210.953 471.47 210.773 471.31C210.613 471.13 210.523 470.99 210.503 470.89H210.473ZM216.803 478.96C216.803 479.38 216.823 479.77 216.863 480.13C216.923 480.47 217.023 480.8 217.163 481.12C217.303 481.42 217.493 481.71 217.733 481.99C217.993 482.27 218.333 482.55 218.753 482.83C219.393 483.29 220.263 483.8 221.363 484.36C222.463 484.94 223.883 485.66 225.623 486.52L224.663 488.17C224.203 487.95 223.663 487.68 223.043 487.36C222.423 487.04 221.793 486.71 221.153 486.37C220.533 486.03 219.933 485.7 219.353 485.38C218.793 485.08 218.353 484.82 218.033 484.6C217.273 484.12 216.723 483.74 216.383 483.46C216.063 483.18 215.853 482.93 215.753 482.71C215.673 482.93 215.473 483.18 215.153 483.46C214.833 483.74 214.293 484.12 213.533 484.6C213.193 484.82 212.743 485.08 212.183 485.38C211.623 485.7 211.023 486.03 210.383 486.37C209.743 486.71 209.103 487.04 208.463 487.36C207.843 487.68 207.313 487.95 206.873 488.17L205.883 486.52C207.623 485.66 209.043 484.94 210.143 484.36C211.243 483.8 212.113 483.29 212.753 482.83C213.173 482.55 213.503 482.27 213.743 481.99C214.003 481.71 214.203 481.42 214.343 481.12C214.483 480.8 214.573 480.47 214.613 480.13C214.673 479.77 214.703 479.38 214.703 478.96V477.52H216.803V478.96ZM224.393 478.24H222.293V470.32H216.683V468.46H222.293V460.66H224.393V478.24ZM257.818 461.86V471.52H240.178V461.86H257.818ZM242.248 469.69H255.748V463.66H242.248V469.69ZM261.598 474.64V476.44H250.348V482.23H248.248V476.44H236.398V474.64H261.598ZM242.248 485.89H258.448V487.75H240.118V479.59H242.248V485.89ZM264.512 463.36H276.482V465.22H271.652V469.3C271.652 470 271.672 470.6 271.712 471.1C271.772 471.6 271.862 472.06 271.982 472.48C272.122 472.9 272.312 473.31 272.552 473.71C272.792 474.09 273.102 474.52 273.482 475C273.982 475.62 274.582 476.32 275.282 477.1C275.982 477.86 276.752 478.66 277.592 479.5L276.212 480.85C275.872 480.53 275.522 480.18 275.162 479.8C274.822 479.4 274.472 479.01 274.112 478.63C273.772 478.25 273.442 477.88 273.122 477.52C272.822 477.16 272.542 476.84 272.282 476.56C271.842 476.06 271.472 475.6 271.172 475.18C270.892 474.74 270.722 474.44 270.662 474.28H270.632C270.592 474.44 270.442 474.72 270.182 475.12C269.942 475.52 269.592 475.99 269.132 476.53C268.572 477.17 267.942 477.88 267.242 478.66C266.542 479.42 265.712 480.27 264.752 481.21L263.342 479.8C263.782 479.38 264.222 478.95 264.662 478.51C265.102 478.07 265.512 477.64 265.892 477.22C266.292 476.8 266.652 476.41 266.972 476.05C267.312 475.67 267.592 475.33 267.812 475.03C268.172 474.57 268.462 474.14 268.682 473.74C268.922 473.34 269.102 472.92 269.222 472.48C269.342 472.04 269.422 471.57 269.462 471.07C269.522 470.55 269.552 469.96 269.552 469.3V465.22H264.512V463.36ZM279.872 469.93V461.23H281.972V486.73H279.872V471.85H275.012V469.93H279.872ZM287.312 488.08H285.212V460.66H287.312V488.08ZM312.457 477.91V483.94H296.827V486.46H313.267V488.23H294.757V482.2H310.387V479.68H294.607V477.91H312.457ZM316.207 473.74V475.54H291.007V473.74H316.207ZM294.697 461.38H312.307V467.29H296.797V469.69H312.907V471.46H294.787V465.55H310.297V463.15H294.697V461.38ZM351.012 472.48V474.28H339.462V477.25H347.262V483.58H331.632V486.43H348.072V488.2H329.562V481.84H345.192V479.02H329.412V477.25H337.362V474.28H325.812V472.48H351.012ZM348.042 461.47V463.21H344.112V468.37H348.162V470.11H328.662V468.37H332.712V463.21H328.782V461.47H348.042ZM334.812 468.37H342.012V463.21H334.812V468.37ZM367.036 475.3H354.826V462.37H367.036V475.3ZM365.026 464.23H356.836V473.44H365.026V464.23ZM373.846 465.04V460.66H375.916V480.28H373.846V472.81H368.836V470.98H373.846V466.87H368.836V465.04H373.846ZM361.246 485.89H376.606V487.75H359.116V478.78H361.246V485.89ZM37.2792 518.78H35.0292L32.6292 512.06H23.4792L21.0192 518.78H18.8592L26.8992 497.15H29.2692L37.2792 518.78ZM24.1392 510.23H31.9692L29.8692 504.38C29.7292 504.02 29.5992 503.67 29.4792 503.33C29.3592 502.99 29.2292 502.62 29.0892 502.22C28.9492 501.8 28.7992 501.34 28.6392 500.84C28.4792 500.32 28.2892 499.71 28.0692 499.01C27.8692 499.71 27.6892 500.32 27.5292 500.84C27.3692 501.34 27.2192 501.8 27.0792 502.22C26.9392 502.62 26.8092 502.99 26.6892 503.33C26.5692 503.67 26.4392 504.02 26.2992 504.38L24.1392 510.23ZM40.4353 497.15H42.5353V518.78H40.4353V497.15ZM67.2652 505.13H71.8252V507.02H67.2652V522.08H65.1352V494.66H67.2652V505.13ZM46.8952 514.07C48.4352 513.19 49.7552 512.4 50.8552 511.7C51.9552 511 52.8752 510.35 53.6152 509.75C54.3752 509.13 54.9852 508.55 55.4452 508.01C55.9052 507.47 56.2552 506.93 56.4952 506.39C56.7352 505.83 56.8952 505.24 56.9752 504.62C57.0552 504 57.0952 503.32 57.0952 502.58V499.19H47.1952V497.27H59.1652V502.61C59.1652 503.97 59.0352 505.16 58.7752 506.18C58.5352 507.18 58.0252 508.16 57.2452 509.12C56.4652 510.06 55.3352 511.05 53.8552 512.09C52.3952 513.13 50.4452 514.36 48.0052 515.78L46.8952 514.07ZM102.13 504.89H106.72V506.78H102.13V522.08H99.9998V494.66H102.13V504.89ZM85.6898 508.82C86.1698 508.28 86.5498 507.79 86.8298 507.35C87.1098 506.91 87.3298 506.48 87.4898 506.06C87.6498 505.62 87.7498 505.17 87.7898 504.71C87.8498 504.25 87.8798 503.72 87.8798 503.12V496.67H90.0698V502.97C90.0698 503.55 90.0898 504.06 90.1298 504.5C90.1698 504.92 90.2498 505.33 90.3698 505.73C90.4898 506.11 90.6698 506.49 90.9098 506.87C91.1498 507.25 91.4698 507.67 91.8698 508.13C92.4698 508.83 93.1998 509.62 94.0598 510.5C94.9398 511.38 95.9498 512.33 97.0898 513.35L95.7098 514.79C94.7498 513.89 93.8598 513.04 93.0398 512.24C92.2398 511.42 91.5398 510.69 90.9398 510.05C90.4798 509.57 90.0598 509.11 89.6798 508.67C89.3198 508.23 89.0998 507.91 89.0198 507.71H88.9898C88.9698 507.81 88.8898 507.97 88.7498 508.19C88.6098 508.39 88.4298 508.62 88.2098 508.88C88.0098 509.14 87.7898 509.42 87.5498 509.72C87.3098 510 87.0798 510.26 86.8598 510.5C86.5998 510.78 86.2798 511.11 85.8998 511.49C85.5398 511.87 85.1498 512.27 84.7298 512.69C84.3098 513.11 83.8698 513.54 83.4098 513.98C82.9498 514.42 82.4998 514.83 82.0598 515.21L80.6498 513.74C81.6498 512.86 82.5598 512.02 83.3798 511.22C84.2198 510.42 84.9898 509.62 85.6898 508.82ZM115.095 508.7V504.59C114.195 504.19 113.485 503.69 112.965 503.09C112.445 502.47 112.185 501.74 112.185 500.9V499.88C112.185 499.1 112.415 498.42 112.875 497.84C113.355 497.24 113.985 496.74 114.765 496.34C115.565 495.94 116.485 495.64 117.525 495.44C118.565 495.24 119.655 495.14 120.795 495.14C121.935 495.14 123.025 495.24 124.065 495.44C125.105 495.64 126.015 495.94 126.795 496.34C127.595 496.74 128.225 497.24 128.685 497.84C129.165 498.42 129.405 499.1 129.405 499.88V500.9C129.405 501.74 129.145 502.47 128.625 503.09C128.105 503.69 127.405 504.19 126.525 504.59V508.7H133.395V510.5H108.195V508.7H115.095ZM120.795 522.8C119.555 522.8 118.405 522.68 117.345 522.44C116.305 522.22 115.405 521.9 114.645 521.48C113.885 521.06 113.285 520.55 112.845 519.95C112.405 519.37 112.185 518.73 112.185 518.03V517.01C112.185 516.31 112.405 515.67 112.845 515.09C113.285 514.49 113.885 513.98 114.645 513.56C115.405 513.14 116.305 512.82 117.345 512.6C118.405 512.36 119.555 512.24 120.795 512.24C122.015 512.24 123.155 512.36 124.215 512.6C125.275 512.82 126.185 513.14 126.945 513.56C127.705 513.98 128.305 514.49 128.745 515.09C129.185 515.67 129.405 516.31 129.405 517.01V518.03C129.405 518.73 129.185 519.37 128.745 519.95C128.305 520.55 127.705 521.06 126.945 521.48C126.185 521.9 125.275 522.22 124.215 522.44C123.155 522.68 122.015 522.8 120.795 522.8ZM120.795 514.04C119.935 514.04 119.105 514.12 118.305 514.28C117.525 514.42 116.825 514.63 116.205 514.91C115.605 515.19 115.125 515.53 114.765 515.93C114.405 516.31 114.225 516.73 114.225 517.19V517.85C114.225 518.31 114.405 518.73 114.765 519.11C115.125 519.51 115.605 519.85 116.205 520.13C116.825 520.41 117.525 520.62 118.305 520.76C119.105 520.92 119.935 521 120.795 521C121.655 521 122.475 520.92 123.255 520.76C124.055 520.62 124.755 520.41 125.355 520.13C125.975 519.85 126.465 519.51 126.825 519.11C127.185 518.73 127.365 518.31 127.365 517.85V517.19C127.365 516.73 127.185 516.31 126.825 515.93C126.465 515.53 125.975 515.19 125.355 514.91C124.755 514.63 124.055 514.42 123.255 514.28C122.475 514.12 121.655 514.04 120.795 514.04ZM120.795 496.94C119.975 496.94 119.165 497.01 118.365 497.15C117.585 497.29 116.885 497.5 116.265 497.78C115.645 498.04 115.145 498.36 114.765 498.74C114.405 499.12 114.225 499.55 114.225 500.03V500.75C114.225 501.23 114.405 501.66 114.765 502.04C115.145 502.42 115.645 502.75 116.265 503.03C116.885 503.29 117.585 503.49 118.365 503.63C119.165 503.77 119.975 503.84 120.795 503.84C121.615 503.84 122.415 503.77 123.195 503.63C123.995 503.49 124.695 503.29 125.295 503.03C125.915 502.75 126.415 502.42 126.795 502.04C127.175 501.66 127.365 501.23 127.365 500.75V500.03C127.365 499.55 127.175 499.12 126.795 498.74C126.415 498.36 125.915 498.04 125.295 497.78C124.695 497.5 123.995 497.29 123.195 497.15C122.415 497.01 121.615 496.94 120.795 496.94ZM120.795 505.64C119.475 505.64 118.265 505.52 117.165 505.28V508.7H124.455V505.28C123.315 505.52 122.095 505.64 120.795 505.64ZM150.949 499.07H144.739V503.36C144.739 503.94 144.759 504.44 144.799 504.86C144.839 505.28 144.919 505.68 145.039 506.06C145.159 506.44 145.329 506.82 145.549 507.2C145.789 507.56 146.109 507.97 146.509 508.43C147.089 509.11 147.809 509.88 148.669 510.74C149.549 511.6 150.549 512.53 151.669 513.53L150.289 514.94C149.249 513.98 148.349 513.12 147.589 512.36C146.849 511.6 146.179 510.9 145.579 510.26C145.139 509.8 144.739 509.36 144.379 508.94C144.019 508.52 143.799 508.21 143.719 508.01H143.689C143.649 508.15 143.549 508.33 143.389 508.55C143.249 508.77 143.069 509.01 142.849 509.27C142.649 509.53 142.429 509.8 142.189 510.08C141.949 510.34 141.719 510.59 141.499 510.83C141.299 511.05 141.029 511.34 140.689 511.7C140.349 512.04 139.969 512.42 139.549 512.84C139.149 513.24 138.709 513.67 138.229 514.13C137.769 514.57 137.319 514.98 136.879 515.36L135.469 513.95C136.429 513.11 137.319 512.28 138.139 511.46C138.979 510.64 139.749 509.84 140.449 509.06C140.929 508.52 141.309 508.04 141.589 507.62C141.869 507.18 142.079 506.75 142.219 506.33C142.379 505.91 142.479 505.48 142.519 505.04C142.579 504.6 142.609 504.09 142.609 503.51V499.07H136.309V497.21H150.949V499.07ZM156.769 505.13H161.329V507.02H156.769V522.08H154.639V494.66H156.769V505.13ZM169.464 515.18C167.464 515.18 165.984 514.5 165.024 513.14C164.084 511.76 163.614 509.78 163.614 507.2V504.86C163.614 502.28 164.084 500.31 165.024 498.95C165.984 497.57 167.464 496.88 169.464 496.88C171.464 496.88 172.934 497.57 173.874 498.95C174.834 500.31 175.314 502.28 175.314 504.86V505.01H179.004V495.23H181.104V520.73H179.004V506.9H175.314V507.2C175.314 509.78 174.834 511.76 173.874 513.14C172.934 514.5 171.464 515.18 169.464 515.18ZM169.464 498.83C168.124 498.83 167.154 499.36 166.554 500.42C165.954 501.48 165.654 503.04 165.654 505.1V506.96C165.654 509.02 165.954 510.58 166.554 511.64C167.154 512.7 168.124 513.23 169.464 513.23C170.804 513.23 171.774 512.7 172.374 511.64C172.974 510.58 173.274 509.02 173.274 506.96V505.1C173.274 503.04 172.974 501.48 172.374 500.42C171.774 499.36 170.804 498.83 169.464 498.83ZM186.384 522.08H184.284V494.66H186.384V522.08ZM211.199 507.77H198.959V496.22H211.199V507.77ZM211.019 517.16C210.799 517.58 210.379 518.01 209.759 518.45C209.159 518.89 208.379 519.34 207.419 519.8C206.539 520.22 205.659 520.62 204.779 521C203.919 521.4 203.039 521.78 202.139 522.14L201.359 520.52C202.319 520.16 203.249 519.77 204.149 519.35C205.069 518.95 205.949 518.55 206.789 518.15C207.949 517.59 208.769 517.02 209.249 516.44C209.729 515.86 209.969 515.18 209.969 514.4V513.23H202.199V511.4H219.719V513.23H212.039V514.4C212.039 515.18 212.269 515.86 212.729 516.44C213.209 517.02 214.039 517.59 215.219 518.15C216.059 518.55 216.929 518.95 217.829 519.35C218.749 519.77 219.689 520.16 220.649 520.52L219.869 522.14C218.969 521.78 218.079 521.4 217.199 521C216.339 520.62 215.469 520.22 214.589 519.8C212.709 518.88 211.519 518 211.019 517.16ZM209.159 498.08H200.999V505.91H209.159V498.08ZM219.149 500.93H223.349V502.79H219.149V509.78H217.049V494.66H219.149V500.93ZM250.113 508.85V510.68H224.913V508.85H250.113ZM230.763 519.89H246.933V521.75H228.633V513.56H230.763V519.89ZM230.883 503.18H246.543V505.04H228.753V495.71H230.883V503.18ZM284.918 510.41V512.24H273.398V522.08H271.268V512.24H259.718V510.41H284.918ZM275.828 504.59C273.808 503.59 272.638 502.75 272.318 502.07H272.288C271.908 502.79 270.738 503.64 268.778 504.62C267.958 505.02 266.988 505.48 265.868 506C264.768 506.5 263.608 506.99 262.388 507.47L261.458 505.79C262.578 505.37 263.718 504.9 264.878 504.38C266.058 503.86 267.128 503.35 268.088 502.85C268.668 502.55 269.158 502.26 269.558 501.98C269.958 501.68 270.278 501.35 270.518 500.99C270.778 500.63 270.958 500.21 271.058 499.73C271.178 499.25 271.238 498.68 271.238 498.02V495.62H273.368V498.02C273.368 498.68 273.418 499.25 273.518 499.73C273.638 500.21 273.818 500.63 274.058 500.99C274.298 501.35 274.618 501.68 275.018 501.98C275.418 502.26 275.908 502.55 276.488 502.85C277.448 503.35 278.498 503.86 279.638 504.38C280.798 504.88 281.938 505.34 283.058 505.76L282.158 507.41C280.938 506.93 279.778 506.44 278.678 505.94C277.598 505.44 276.648 504.99 275.828 504.59ZM299.593 501.92C299.433 502.26 299.033 502.61 298.393 502.97C297.753 503.33 296.963 503.71 296.023 504.11C295.163 504.47 294.273 504.82 293.353 505.16C292.433 505.5 291.303 505.9 289.963 506.36L289.123 504.71C291.843 503.81 293.933 503.04 295.393 502.4C296.013 502.14 296.523 501.89 296.923 501.65C297.323 501.39 297.643 501.13 297.883 500.87C298.123 500.59 298.293 500.3 298.393 500C298.493 499.68 298.543 499.32 298.543 498.92V497.72H290.323V495.92H308.923V497.72H300.673V498.92C300.673 499.32 300.713 499.68 300.793 500C300.893 500.3 301.063 500.59 301.303 500.87C301.543 501.13 301.863 501.39 302.263 501.65C302.663 501.89 303.173 502.14 303.793 502.4C304.533 502.72 305.443 503.08 306.523 503.48C307.623 503.88 308.803 504.28 310.063 504.68L309.283 506.33C308.043 505.93 306.913 505.54 305.893 505.16C304.873 504.78 303.973 504.42 303.193 504.08C302.253 503.7 301.463 503.33 300.823 502.97C300.183 502.59 299.783 502.24 299.623 501.92H299.593ZM312.223 508.43V510.23H300.973V516.11H298.873V510.23H287.023V508.43H312.223ZM292.873 519.89H309.073V521.75H290.743V513.44H292.873V519.89ZM337.427 522.08H335.297V494.66H337.427V522.08ZM333.377 515.36C332.137 515.48 330.907 515.59 329.687 515.69C328.487 515.77 327.177 515.84 325.757 515.9C324.357 515.96 322.787 516 321.047 516.02C319.327 516.04 317.317 516.05 315.017 516.05V514.19C317.197 514.19 319.147 514.18 320.867 514.16C322.607 514.14 324.197 514.11 325.637 514.07C327.077 514.01 328.407 513.94 329.627 513.86C330.847 513.76 332.037 513.65 333.197 513.53L333.377 515.36ZM323.597 509.51C322.617 509.51 321.697 509.36 320.837 509.06C319.977 508.76 319.217 508.35 318.557 507.83C317.917 507.31 317.407 506.7 317.027 506C316.647 505.3 316.457 504.54 316.457 503.72V502.28C316.457 501.46 316.647 500.7 317.027 500C317.407 499.3 317.917 498.69 318.557 498.17C319.217 497.65 319.977 497.24 320.837 496.94C321.697 496.64 322.617 496.49 323.597 496.49C324.577 496.49 325.497 496.64 326.357 496.94C327.217 497.24 327.967 497.65 328.607 498.17C329.267 498.69 329.787 499.31 330.167 500.03C330.547 500.73 330.737 501.48 330.737 502.28V503.72C330.737 504.54 330.547 505.3 330.167 506C329.787 506.7 329.267 507.31 328.607 507.83C327.967 508.35 327.217 508.76 326.357 509.06C325.497 509.36 324.577 509.51 323.597 509.51ZM323.597 498.35C322.937 498.35 322.297 498.46 321.677 498.68C321.077 498.88 320.537 499.17 320.057 499.55C319.577 499.91 319.197 500.34 318.917 500.84C318.637 501.32 318.497 501.84 318.497 502.4V503.6C318.497 504.16 318.637 504.69 318.917 505.19C319.197 505.67 319.577 506.1 320.057 506.48C320.537 506.84 321.077 507.13 321.677 507.35C322.297 507.55 322.937 507.65 323.597 507.65C324.257 507.65 324.887 507.55 325.487 507.35C326.107 507.13 326.657 506.84 327.137 506.48C327.617 506.1 327.997 505.67 328.277 505.19C328.557 504.69 328.697 504.16 328.697 503.6V502.4C328.697 501.84 328.557 501.32 328.277 500.84C327.997 500.34 327.617 499.91 327.137 499.55C326.657 499.17 326.107 498.88 325.487 498.68C324.887 498.46 324.257 498.35 323.597 498.35ZM370.552 495.86V505.52H352.912V495.86H370.552ZM354.982 503.69H368.482V497.66H354.982V503.69ZM374.332 508.64V510.44H363.082V516.23H360.982V510.44H349.132V508.64H374.332ZM354.982 519.89H371.182V521.75H352.852V513.59H354.982V519.89ZM377.247 497.36H389.217V499.22H384.387V503.3C384.387 504 384.407 504.6 384.447 505.1C384.507 505.6 384.597 506.06 384.717 506.48C384.857 506.9 385.047 507.31 385.287 507.71C385.527 508.09 385.837 508.52 386.217 509C386.717 509.62 387.317 510.32 388.017 511.1C388.717 511.86 389.487 512.66 390.327 513.5L388.947 514.85C388.607 514.53 388.257 514.18 387.897 513.8C387.557 513.4 387.207 513.01 386.847 512.63C386.507 512.25 386.177 511.88 385.857 511.52C385.557 511.16 385.277 510.84 385.017 510.56C384.577 510.06 384.207 509.6 383.907 509.18C383.627 508.74 383.457 508.44 383.397 508.28H383.367C383.327 508.44 383.177 508.72 382.917 509.12C382.677 509.52 382.327 509.99 381.867 510.53C381.307 511.17 380.677 511.88 379.977 512.66C379.277 513.42 378.447 514.27 377.487 515.21L376.077 513.8C376.517 513.38 376.957 512.95 377.397 512.51C377.837 512.07 378.247 511.64 378.627 511.22C379.027 510.8 379.387 510.41 379.707 510.05C380.047 509.67 380.327 509.33 380.547 509.03C380.907 508.57 381.197 508.14 381.417 507.74C381.657 507.34 381.837 506.92 381.957 506.48C382.077 506.04 382.157 505.57 382.197 505.07C382.257 504.55 382.287 503.96 382.287 503.3V499.22H377.247V497.36ZM392.607 503.93V495.23H394.707V520.73H392.607V505.85H387.747V503.93H392.607ZM400.047 522.08H397.947V494.66H400.047V522.08ZM425.041 497.33H409.621V502.16H425.191V503.96H407.551V495.53H425.041V497.33ZM425.191 511.07V517.49H409.561V520.43H426.001V522.2H407.491V515.75H423.121V512.84H407.341V511.07H425.191ZM428.941 506.6V508.4H403.741V506.6H428.941ZM456.246 506.93V508.73H431.046V506.93H456.246ZM452.226 500.36C452.226 501.06 452.006 501.69 451.566 502.25C451.126 502.81 450.516 503.29 449.736 503.69C448.976 504.07 448.066 504.37 447.006 504.59C445.966 504.79 444.846 504.89 443.646 504.89C442.446 504.89 441.316 504.79 440.256 504.59C439.216 504.37 438.306 504.07 437.526 503.69C436.766 503.29 436.166 502.81 435.726 502.25C435.286 501.69 435.066 501.06 435.066 500.36V499.46C435.066 498.74 435.286 498.1 435.726 497.54C436.166 496.98 436.766 496.51 437.526 496.13C438.306 495.73 439.216 495.43 440.256 495.23C441.316 495.03 442.446 494.93 443.646 494.93C444.846 494.93 445.966 495.04 447.006 495.26C448.066 495.46 448.976 495.76 449.736 496.16C450.516 496.54 451.126 497.01 451.566 497.57C452.006 498.13 452.226 498.76 452.226 499.46V500.36ZM437.136 500.27C437.136 500.67 437.306 501.05 437.646 501.41C437.986 501.75 438.446 502.05 439.026 502.31C439.626 502.57 440.316 502.77 441.096 502.91C441.896 503.05 442.746 503.12 443.646 503.12C444.546 503.12 445.386 503.05 446.166 502.91C446.966 502.77 447.656 502.57 448.236 502.31C448.836 502.05 449.306 501.75 449.646 501.41C449.986 501.05 450.156 500.67 450.156 500.27V499.55C450.156 499.15 449.986 498.78 449.646 498.44C449.306 498.08 448.836 497.78 448.236 497.54C447.656 497.28 446.966 497.08 446.166 496.94C445.386 496.78 444.546 496.7 443.646 496.7C442.746 496.7 441.896 496.78 441.096 496.94C440.316 497.08 439.626 497.28 439.026 497.54C438.446 497.78 437.986 498.08 437.646 498.44C437.306 498.78 437.136 499.15 437.136 499.55V500.27ZM452.496 511.13V517.52H436.896V520.43H453.306V522.2H434.826V515.78H450.426V512.9H434.676V511.13H452.496ZM185.074 531.36H197.044V533.22H192.214V537.3C192.214 538 192.234 538.6 192.274 539.1C192.334 539.6 192.424 540.06 192.544 540.48C192.684 540.9 192.874 541.31 193.114 541.71C193.354 542.09 193.664 542.52 194.044 543C194.544 543.62 195.144 544.32 195.844 545.1C196.544 545.86 197.314 546.66 198.154 547.5L196.774 548.85C196.434 548.53 196.084 548.18 195.724 547.8C195.384 547.4 195.034 547.01 194.674 546.63C194.334 546.25 194.004 545.88 193.684 545.52C193.384 545.16 193.104 544.84 192.844 544.56C192.404 544.06 192.034 543.6 191.734 543.18C191.454 542.74 191.284 542.44 191.224 542.28H191.194C191.154 542.44 191.004 542.72 190.744 543.12C190.504 543.52 190.154 543.99 189.694 544.53C189.134 545.17 188.504 545.88 187.804 546.66C187.104 547.42 186.274 548.27 185.314 549.21L183.904 547.8C184.344 547.38 184.784 546.95 185.224 546.51C185.664 546.07 186.074 545.64 186.454 545.22C186.854 544.8 187.214 544.41 187.534 544.05C187.874 543.67 188.154 543.33 188.374 543.03C188.734 542.57 189.024 542.14 189.244 541.74C189.484 541.34 189.664 540.92 189.784 540.48C189.904 540.04 189.984 539.57 190.024 539.07C190.084 538.55 190.114 537.96 190.114 537.3V533.22H185.074V531.36ZM200.434 537.93V529.23H202.534V554.73H200.434V539.85H195.574V537.93H200.434ZM207.874 556.08H205.774V528.66H207.874V556.08ZM224.169 545.94C225.289 545.94 226.359 546.05 227.379 546.27C228.419 546.47 229.329 546.78 230.109 547.2C230.889 547.62 231.509 548.14 231.969 548.76C232.449 549.36 232.689 550.05 232.689 550.83V551.91C232.689 552.69 232.449 553.38 231.969 553.98C231.509 554.6 230.889 555.12 230.109 555.54C229.329 555.96 228.419 556.27 227.379 556.47C226.359 556.69 225.289 556.8 224.169 556.8C223.049 556.8 221.969 556.69 220.929 556.47C219.909 556.27 219.009 555.96 218.229 555.54C217.449 555.12 216.819 554.6 216.339 553.98C215.879 553.38 215.649 552.69 215.649 551.91V550.83C215.649 550.03 215.879 549.33 216.339 548.73C216.819 548.11 217.449 547.6 218.229 547.2C219.009 546.78 219.909 546.47 220.929 546.27C221.969 546.05 223.049 545.94 224.169 545.94ZM224.169 555C224.969 555 225.759 554.92 226.539 554.76C227.319 554.62 228.009 554.41 228.609 554.13C229.229 553.87 229.719 553.54 230.079 553.14C230.459 552.74 230.649 552.29 230.649 551.79V550.95C230.649 550.45 230.459 550 230.079 549.6C229.719 549.2 229.229 548.87 228.609 548.61C228.009 548.33 227.319 548.12 226.539 547.98C225.759 547.82 224.969 547.74 224.169 547.74C223.349 547.74 222.549 547.82 221.769 547.98C221.009 548.12 220.319 548.33 219.699 548.61C219.099 548.87 218.609 549.2 218.229 549.6C217.869 550 217.689 550.45 217.689 550.95V551.79C217.689 552.29 217.869 552.74 218.229 553.14C218.609 553.54 219.099 553.87 219.699 554.13C220.319 554.41 221.009 554.62 221.769 554.76C222.549 554.92 223.349 555 224.169 555ZM221.589 541.53V535.74H223.749V541.53H236.769V543.33H211.569V541.53H221.589ZM232.929 529.86V532.65C232.929 533.19 232.909 533.76 232.869 534.36C232.829 534.96 232.769 535.57 232.689 536.19C232.629 536.79 232.549 537.38 232.449 537.96C232.369 538.54 232.279 539.07 232.179 539.55L230.079 539.31C230.319 538.21 230.499 537.09 230.619 535.95C230.759 534.79 230.829 533.7 230.829 532.68V531.72H214.899V529.86H232.929ZM256.753 539.16H260.593V528.66H262.693V556.08H260.593V541.05H256.753V554.73H254.653V529.23H256.753V539.16ZM245.983 549.09C245.023 549.09 244.173 548.94 243.433 548.64C242.693 548.32 242.063 547.91 241.543 547.41C241.043 546.91 240.663 546.34 240.403 545.7C240.143 545.06 240.013 544.4 240.013 543.72V542.46C240.013 541.78 240.143 541.12 240.403 540.48C240.663 539.84 241.043 539.27 241.543 538.77C242.063 538.27 242.693 537.87 243.433 537.57C244.173 537.25 245.023 537.09 245.983 537.09C246.943 537.09 247.793 537.25 248.533 537.57C249.273 537.87 249.893 538.27 250.393 538.77C250.913 539.27 251.303 539.84 251.563 540.48C251.823 541.12 251.953 541.78 251.953 542.46V543.72C251.953 544.38 251.823 545.04 251.563 545.7C251.303 546.34 250.913 546.91 250.393 547.41C249.893 547.91 249.273 548.32 248.533 548.64C247.793 548.94 246.943 549.09 245.983 549.09ZM245.983 538.95C245.383 538.95 244.833 539.06 244.333 539.28C243.853 539.48 243.433 539.75 243.073 540.09C242.733 540.43 242.473 540.82 242.293 541.26C242.113 541.7 242.023 542.15 242.023 542.61V543.57C242.023 544.03 242.113 544.48 242.293 544.92C242.473 545.36 242.733 545.75 243.073 546.09C243.433 546.43 243.853 546.71 244.333 546.93C244.833 547.13 245.383 547.23 245.983 547.23C246.583 547.23 247.123 547.13 247.603 546.93C248.103 546.71 248.523 546.43 248.863 546.09C249.223 545.75 249.493 545.36 249.673 544.92C249.853 544.48 249.943 544.03 249.943 543.57V542.61C249.943 542.15 249.853 541.7 249.673 541.26C249.493 540.82 249.223 540.43 248.863 540.09C248.523 539.75 248.103 539.48 247.603 539.28C247.123 539.06 246.583 538.95 245.983 538.95ZM238.963 533.46H244.903V529.44H247.003V533.46H252.553V535.32H238.963V533.46ZM269.748 536.76C269.748 535.78 269.988 534.9 270.468 534.12C270.948 533.32 271.598 532.64 272.418 532.08C273.238 531.52 274.188 531.09 275.268 530.79C276.368 530.47 277.538 530.31 278.778 530.31C279.998 530.31 281.148 530.47 282.228 530.79C283.328 531.09 284.288 531.52 285.108 532.08C285.948 532.64 286.608 533.32 287.088 534.12C287.568 534.9 287.808 535.78 287.808 536.76V538.23C287.808 539.29 287.528 540.24 286.968 541.08C286.408 541.92 285.658 542.62 284.718 543.18V550.38H291.378V552.21H266.178V550.38H272.838V543.18C271.878 542.62 271.118 541.93 270.558 541.11C270.018 540.27 269.748 539.31 269.748 538.23V536.76ZM278.778 532.26C277.798 532.26 276.888 532.38 276.048 532.62C275.208 532.84 274.478 533.15 273.858 533.55C273.238 533.95 272.748 534.43 272.388 534.99C272.028 535.55 271.848 536.17 271.848 536.85V538.14C271.848 538.82 272.028 539.44 272.388 540C272.748 540.56 273.238 541.05 273.858 541.47C274.478 541.87 275.208 542.18 276.048 542.4C276.888 542.62 277.798 542.73 278.778 542.73C279.738 542.73 280.638 542.62 281.478 542.4C282.338 542.18 283.078 541.87 283.698 541.47C284.318 541.05 284.808 540.56 285.168 540C285.528 539.44 285.708 538.82 285.708 538.14V536.85C285.708 536.17 285.528 535.55 285.168 534.99C284.808 534.43 284.318 533.95 283.698 533.55C283.078 533.15 282.338 532.84 281.478 532.62C280.638 532.38 279.738 532.26 278.778 532.26ZM278.778 544.68C278.078 544.68 277.408 544.63 276.768 544.53C276.128 544.43 275.518 544.29 274.938 544.11V550.38H282.618V544.11C282.038 544.31 281.418 544.46 280.758 544.56C280.118 544.64 279.458 544.68 278.778 544.68ZM294.593 550.65H297.623V553.65H294.593V550.65Z" fill="black"/>
<path d="M193.478 392.2H190.568V376.78H187.238V390.85H184.328V365.11H187.238V374.2H190.568V364.54H193.478V392.2ZM178.118 369.79H170.438V367.24H181.028V372.88C181.028 373.78 180.988 374.6 180.908 375.34C180.828 376.08 180.668 376.79 180.428 377.47C180.208 378.13 179.878 378.78 179.438 379.42C178.998 380.06 178.418 380.73 177.698 381.43C176.978 382.11 176.088 382.85 175.028 383.65C173.988 384.45 172.748 385.33 171.308 386.29L169.658 383.98C171.058 383.08 172.238 382.26 173.198 381.52C174.178 380.78 174.978 380.1 175.598 379.48C176.238 378.84 176.728 378.24 177.068 377.68C177.408 377.1 177.648 376.54 177.788 376C177.948 375.44 178.038 374.87 178.058 374.29C178.098 373.69 178.118 373.05 178.118 372.37V369.79ZM205.363 389.32H220.243V391.9H202.393V382.72H205.363V389.32ZM216.733 384.28V364.54H219.673V384.28H216.733ZM208.933 372.1C208.933 371.64 208.853 371.18 208.693 370.72C208.533 370.26 208.283 369.85 207.943 369.49C207.623 369.11 207.203 368.81 206.683 368.59C206.183 368.35 205.573 368.23 204.853 368.23C204.133 368.23 203.513 368.35 202.993 368.59C202.473 368.81 202.043 369.11 201.703 369.49C201.383 369.85 201.143 370.26 200.983 370.72C200.843 371.18 200.773 371.64 200.773 372.1V373.42C200.773 373.88 200.853 374.34 201.013 374.8C201.173 375.26 201.413 375.68 201.733 376.06C202.073 376.42 202.493 376.72 202.993 376.96C203.513 377.18 204.133 377.29 204.853 377.29C205.573 377.29 206.183 377.18 206.683 376.96C207.203 376.72 207.623 376.42 207.943 376.06C208.283 375.68 208.533 375.26 208.693 374.8C208.853 374.34 208.933 373.88 208.933 373.42V372.1ZM197.923 371.98C197.923 371.3 198.063 370.59 198.343 369.85C198.623 369.09 199.053 368.4 199.633 367.78C200.213 367.16 200.933 366.65 201.793 366.25C202.653 365.85 203.673 365.65 204.853 365.65C206.013 365.65 207.023 365.85 207.883 366.25C208.763 366.65 209.493 367.16 210.073 367.78C210.653 368.4 211.083 369.09 211.363 369.85C211.643 370.59 211.783 371.3 211.783 371.98V373.54C211.783 374.22 211.643 374.94 211.363 375.7C211.083 376.44 210.653 377.12 210.073 377.74C209.493 378.36 208.763 378.87 207.883 379.27C207.023 379.67 206.013 379.87 204.853 379.87C203.673 379.87 202.653 379.67 201.793 379.27C200.933 378.87 200.213 378.36 199.633 377.74C199.053 377.12 198.623 376.44 198.343 375.7C198.063 374.94 197.923 374.22 197.923 373.54V371.98ZM245.388 377.98H232.758V366.07H245.388V377.98ZM253.818 381.28V383.77H246.528V383.92C246.528 384.28 246.558 384.61 246.618 384.91C246.698 385.21 246.828 385.49 247.008 385.75C247.208 386.01 247.468 386.27 247.788 386.53C248.128 386.77 248.558 387.02 249.078 387.28C249.458 387.46 249.838 387.65 250.218 387.85C250.618 388.05 251.058 388.25 251.538 388.45C252.018 388.67 252.538 388.9 253.098 389.14C253.678 389.4 254.338 389.68 255.078 389.98L253.968 392.35C252.648 391.79 251.528 391.29 250.608 390.85C249.688 390.43 248.888 390.05 248.208 389.71C247.248 389.21 246.528 388.77 246.048 388.39C245.588 388.03 245.268 387.71 245.088 387.43C244.908 387.75 244.588 388.09 244.128 388.45C243.688 388.81 242.948 389.25 241.908 389.77C241.248 390.11 240.458 390.49 239.538 390.91C238.638 391.33 237.528 391.82 236.208 392.38L235.068 389.98C236.528 389.4 237.728 388.88 238.668 388.42C239.608 387.98 240.408 387.59 241.068 387.25C242.068 386.71 242.738 386.19 243.078 385.69C243.418 385.19 243.588 384.6 243.588 383.92V383.77H236.178V381.28H253.818ZM257.328 373.15H253.398V379.87H250.458V364.54H253.398V370.57H257.328V373.15ZM235.668 375.46H242.478V368.59H235.668V375.46ZM280.612 392.2H262.492V382.87H270.052V380.14H258.862V377.62H284.242V380.14H273.052V382.87H280.612V392.2ZM281.032 366.91V369.37H273.022C273.102 370.07 273.432 370.65 274.012 371.11C274.612 371.57 275.392 371.97 276.352 372.31C277.152 372.61 278.002 372.9 278.902 373.18C279.802 373.46 280.862 373.77 282.082 374.11L281.152 376.54C280.072 376.24 279.052 375.94 278.092 375.64C277.152 375.32 276.202 374.99 275.242 374.65C274.902 374.53 274.532 374.38 274.132 374.2C273.732 374.02 273.352 373.84 272.992 373.66C272.632 373.46 272.322 373.27 272.062 373.09C271.802 372.91 271.632 372.75 271.552 372.61H271.522C271.462 372.75 271.302 372.91 271.042 373.09C270.782 373.27 270.472 373.46 270.112 373.66C269.772 373.84 269.402 374.02 269.002 374.2C268.602 374.38 268.242 374.53 267.922 374.65C266.902 375.03 265.912 375.37 264.952 375.67C264.012 375.97 263.012 376.27 261.952 376.57L260.992 374.14C262.212 373.8 263.262 373.49 264.142 373.21C265.042 372.93 265.902 372.64 266.722 372.34C267.642 372 268.402 371.6 269.002 371.14C269.622 370.66 269.962 370.07 270.022 369.37H262.072V366.91H270.052V364.18H273.022V366.91H281.032ZM277.672 385.36H265.432V389.71H277.672V385.36ZM300.897 382.54C302.257 382.54 303.467 382.66 304.527 382.9C305.587 383.14 306.477 383.48 307.197 383.92C307.917 384.34 308.457 384.84 308.817 385.42C309.197 386 309.387 386.62 309.387 387.28V388.24C309.387 388.9 309.197 389.52 308.817 390.1C308.457 390.68 307.917 391.18 307.197 391.6C306.477 392.04 305.587 392.38 304.527 392.62C303.467 392.86 302.257 392.98 300.897 392.98C299.537 392.98 298.327 392.86 297.267 392.62C296.207 392.38 295.317 392.04 294.597 391.6C293.877 391.18 293.327 390.68 292.947 390.1C292.587 389.52 292.407 388.9 292.407 388.24V387.28C292.407 386.62 292.587 386 292.947 385.42C293.327 384.84 293.877 384.34 294.597 383.92C295.317 383.48 296.207 383.14 297.267 382.9C298.327 382.66 299.537 382.54 300.897 382.54ZM294.327 381.31C293.247 381.31 292.307 381.18 291.507 380.92C290.707 380.64 290.037 380.28 289.497 379.84C288.977 379.38 288.577 378.88 288.297 378.34C288.037 377.78 287.907 377.21 287.907 376.63V375.73C287.907 375.15 288.037 374.58 288.297 374.02C288.577 373.46 288.977 372.96 289.497 372.52C290.037 372.08 290.707 371.73 291.507 371.47C292.307 371.19 293.247 371.05 294.327 371.05C295.407 371.05 296.347 371.19 297.147 371.47C297.947 371.73 298.607 372.09 299.127 372.55C299.667 372.99 300.067 373.49 300.327 374.05C300.607 374.61 300.747 375.17 300.747 375.73V376.63C300.747 377.21 300.607 377.78 300.327 378.34C300.067 378.88 299.667 379.38 299.127 379.84C298.607 380.28 297.947 380.64 297.147 380.92C296.347 381.18 295.407 381.31 294.327 381.31ZM306.357 382V378.97H302.307V376.42H306.357V373.75H302.307V371.2H306.357V364.54H309.267V382H306.357ZM300.897 390.58C302.697 390.58 304.077 390.32 305.037 389.8C305.997 389.3 306.477 388.72 306.477 388.06V387.46C306.477 386.8 305.997 386.22 305.037 385.72C304.077 385.2 302.697 384.94 300.897 384.94C299.097 384.94 297.717 385.2 296.757 385.72C295.797 386.22 295.317 386.8 295.317 387.46V388.06C295.317 388.72 295.797 389.3 296.757 389.8C297.717 390.32 299.097 390.58 300.897 390.58ZM302.397 370.03H286.407V367.51H292.827V364.24H295.767V367.51H302.397V370.03ZM294.327 378.94C294.927 378.94 295.447 378.87 295.887 378.73C296.347 378.57 296.727 378.38 297.027 378.16C297.327 377.92 297.547 377.66 297.687 377.38C297.847 377.08 297.927 376.78 297.927 376.48V375.88C297.927 375.58 297.857 375.29 297.717 375.01C297.577 374.71 297.357 374.45 297.057 374.23C296.757 373.99 296.377 373.8 295.917 373.66C295.477 373.5 294.947 373.42 294.327 373.42C293.707 373.42 293.167 373.5 292.707 373.66C292.267 373.8 291.897 373.99 291.597 374.23C291.297 374.45 291.077 374.71 290.937 375.01C290.797 375.29 290.727 375.58 290.727 375.88V376.48C290.727 376.78 290.797 377.08 290.937 377.38C291.097 377.66 291.327 377.92 291.627 378.16C291.927 378.38 292.297 378.57 292.737 378.73C293.197 378.87 293.727 378.94 294.327 378.94Z" fill="black"/>
<rect x="91" width="304" height="304" rx="20" fill="url(#paint0_linear_291_73)"/>
<g clip-path="url(#clip0_291_73)">
<path d="M268.941 62.348C275.144 64.5752 280.262 69.0887 283.247 74.965C286.232 80.8413 286.859 87.6362 284.999 93.9594L284.527 95.4007L281.616 103.507L305.935 112.24C310.026 113.708 313.411 116.668 315.412 120.526C317.412 124.384 317.88 128.856 316.722 133.045L316.326 134.276L307.593 158.595L315.699 161.506C322.032 163.773 327.231 168.42 330.192 174.46C333.152 180.499 333.641 187.455 331.555 193.85C329.468 200.244 324.971 205.573 319.018 208.704C313.064 211.835 306.125 212.521 299.674 210.617L298.233 210.145L290.126 207.234L281.393 231.553C279.925 235.644 276.966 239.029 273.108 241.03C269.249 243.03 264.777 243.498 260.588 242.34L259.358 241.944L235.038 233.211C230.948 231.743 227.563 228.784 225.562 224.925C223.562 221.067 223.094 216.595 224.252 212.406L224.648 211.176L227.559 203.069C228.298 201.002 228.221 198.731 227.342 196.719C226.463 194.707 224.849 193.107 222.83 192.245C220.811 191.383 218.539 191.325 216.478 192.082C214.418 192.839 212.724 194.355 211.743 196.319L211.346 197.247L208.435 205.354C206.967 209.444 204.008 212.829 200.149 214.83C196.291 216.83 191.819 217.298 187.63 216.14L186.4 215.744L162.08 207.011C157.989 205.543 154.604 202.584 152.604 198.726C150.603 194.867 150.135 190.395 151.293 186.206L151.689 184.976L160.423 160.656C161.89 156.566 164.85 153.181 168.708 151.18C172.566 149.18 177.038 148.712 181.227 149.87L182.458 150.266L190.564 153.177C192.631 153.916 194.903 153.839 196.914 152.96C198.926 152.081 200.527 150.467 201.388 148.448C202.25 146.429 202.308 144.157 201.551 142.096C200.794 140.036 199.279 138.342 197.315 137.361L196.386 136.964L188.28 134.053C184.189 132.585 180.804 129.626 178.804 125.767C176.803 121.909 176.335 117.437 177.493 113.248L177.889 112.018L186.622 87.6981C188.09 83.6073 191.05 80.2224 194.908 78.2219C198.766 76.2214 203.238 75.7532 207.427 76.9112L208.658 77.3073L232.977 86.0406L235.888 77.9341C238.204 71.4842 242.988 66.2186 249.187 63.2956C255.385 60.3726 262.491 60.0317 268.941 62.348Z" fill="url(#paint1_linear_291_73)"/>
</g>
<path d="M337.276 228.507L343.57 245.227L355.373 254.144L343.57 263.061L337.276 279.781L330.981 263.061L319.179 254.144L330.981 245.227L337.276 228.507Z" fill="#55CBCD"/>
<path d="M151.228 61.6107L157.522 73.7707L169.325 80.256L157.522 86.7414L151.228 98.9014L144.933 86.7414L133.131 80.256L144.933 73.7707L151.228 61.6107Z" fill="#55CBCD"/>
<defs>
<linearGradient id="paint0_linear_291_73" x1="243" y1="0" x2="243" y2="304" gradientUnits="userSpaceOnUse">
<stop stop-color="#A2E1DB"/>
<stop offset="1" stop-color="white"/>
</linearGradient>
<linearGradient id="paint1_linear_291_73" x1="285.166" y1="68.1744" x2="226.944" y2="230.304" gradientUnits="userSpaceOnUse">
<stop stop-color="white"/>
<stop offset="1" stop-color="#8F8D8D"/>
</linearGradient>
<clipPath id="clip0_291_73">
<rect width="206.72" height="206.72" fill="white" transform="translate(193.698 17.024) rotate(19.7536)"/>
</clipPath>
</defs>
</svg>
