<svg width="509" height="547" viewBox="0 0 509 547" fill="none" xmlns="http://www.w3.org/2000/svg">
<path d="M59.9472 476.83C59.1072 476.83 58.3372 476.72 57.6372 476.5C56.9572 476.26 56.3772 475.95 55.8972 475.57C55.4172 475.17 55.0372 474.72 54.7572 474.22C54.4972 473.7 54.3672 473.16 54.3672 472.6V471.52C54.3672 470.96 54.4972 470.42 54.7572 469.9C55.0372 469.38 55.4172 468.93 55.8972 468.55C56.3772 468.17 56.9572 467.87 57.6372 467.65C58.3372 467.41 59.1072 467.29 59.9472 467.29C60.7872 467.29 61.5472 467.41 62.2272 467.65C62.9272 467.87 63.5172 468.17 63.9972 468.55C64.4772 468.93 64.8472 469.38 65.1072 469.9C65.3872 470.42 65.5272 470.96 65.5272 471.52V472.6C65.5272 473.16 65.3872 473.7 65.1072 474.22C64.8472 474.72 64.4772 475.17 63.9972 475.57C63.5172 475.95 62.9272 476.26 62.2272 476.5C61.5472 476.72 60.7872 476.83 59.9472 476.83ZM66.1272 477.55H68.2272V479.35C68.2272 479.97 68.2772 480.5 68.3772 480.94C68.4972 481.38 68.6772 481.78 68.9172 482.14C69.1772 482.48 69.5072 482.79 69.9072 483.07C70.3072 483.35 70.7972 483.64 71.3772 483.94C72.1572 484.34 73.0672 484.77 74.1072 485.23C75.1472 485.69 76.1172 486.1 77.0172 486.46L76.1472 488.17C75.1672 487.77 74.1872 487.33 73.2072 486.85C72.2272 486.39 71.3972 485.99 70.7172 485.65C68.7172 484.65 67.5372 483.78 67.1772 483.04C66.8172 483.78 65.6372 484.65 63.6372 485.65C62.9572 485.99 62.1272 486.39 61.1472 486.85C60.1672 487.33 59.1872 487.77 58.2072 488.17L57.3072 486.46C57.7472 486.28 58.2172 486.08 58.7172 485.86C59.2372 485.66 59.7372 485.45 60.2172 485.23C60.7172 485.01 61.1972 484.79 61.6572 484.57C62.1372 484.35 62.5772 484.14 62.9772 483.94C63.5372 483.66 64.0072 483.38 64.3872 483.1C64.7872 482.82 65.1172 482.51 65.3772 482.17C65.6372 481.81 65.8272 481.41 65.9472 480.97C66.0672 480.51 66.1272 479.97 66.1272 479.35V477.55ZM69.3072 469.18V461.02H71.3772V476.26H69.3072V471.04H66.0672V469.18H69.3072ZM76.4172 478.69H74.3472V460.66H76.4172V478.69ZM59.9472 469.03C59.3872 469.03 58.8772 469.1 58.4172 469.24C57.9772 469.38 57.5972 469.57 57.2772 469.81C56.9572 470.05 56.7072 470.33 56.5272 470.65C56.3672 470.95 56.2872 471.28 56.2872 471.64V472.48C56.2872 472.84 56.3672 473.18 56.5272 473.5C56.7072 473.8 56.9572 474.07 57.2772 474.31C57.5972 474.55 57.9772 474.74 58.4172 474.88C58.8772 475.02 59.3872 475.09 59.9472 475.09C60.5072 475.09 61.0072 475.02 61.4472 474.88C61.9072 474.74 62.2972 474.55 62.6172 474.31C62.9372 474.07 63.1772 473.8 63.3372 473.5C63.5172 473.18 63.6072 472.84 63.6072 472.48V471.64C63.6072 471.28 63.5172 470.95 63.3372 470.65C63.1772 470.33 62.9372 470.05 62.6172 469.81C62.2972 469.57 61.9072 469.38 61.4472 469.24C61.0072 469.1 60.5072 469.03 59.9472 469.03ZM58.8972 464.05V460.66H60.9972V464.05H66.2172V465.88H53.3472V464.05H58.8972ZM101.952 475.9V482.92H87.4919V486.37H102.672V488.17H85.4219V481.15H99.8819V477.73H85.2719V475.9H101.952ZM81.2519 473.38C83.6319 472.46 85.5019 471.68 86.8619 471.04C88.2419 470.4 89.2819 469.78 89.9819 469.18C90.6819 468.56 91.1219 467.91 91.3019 467.23C91.4819 466.53 91.5719 465.67 91.5719 464.65V463.75H82.1519V461.89H93.6419V464.77C93.6419 465.63 93.5819 466.39 93.4619 467.05C93.3619 467.71 93.1519 468.32 92.8319 468.88C92.5319 469.44 92.1119 469.96 91.5719 470.44C91.0319 470.92 90.3319 471.4 89.4719 471.88C88.6119 472.36 87.5719 472.86 86.3519 473.38C85.1319 473.9 83.6919 474.48 82.0319 475.12L81.2519 473.38ZM101.952 466.45H106.152V468.31H101.952V474.28H99.8519V460.66H101.952V466.45ZM130.397 488.08H128.267V460.66H130.397V488.08ZM111.977 479.38H116.087C117.607 479.38 119.147 479.34 120.707 479.26C122.287 479.16 123.777 479 125.177 478.78L125.417 480.61C123.817 480.87 122.177 481.05 120.497 481.15C118.837 481.23 117.187 481.27 115.547 481.27H109.877V470.77H119.807V464.74H109.877V462.88H121.907V472.63H111.977V479.38ZM160.281 474.85V476.68H135.081V474.85H160.281ZM140.931 485.89H157.101V487.75H138.801V479.56H140.931V485.89ZM141.051 469.18H156.711V471.04H138.921V461.71H141.051V469.18ZM176.576 481.21C174.576 481.21 173.096 480.53 172.136 479.17C171.196 477.81 170.726 475.84 170.726 473.26V470.8C170.726 468.22 171.196 466.25 172.136 464.89C173.096 463.53 174.576 462.85 176.576 462.85C177.996 462.85 179.146 463.2 180.026 463.9C180.906 464.6 181.546 465.63 181.946 466.99H186.236V461.23H188.336V486.73H186.236V476.95H181.976C181.216 479.79 179.416 481.21 176.576 481.21ZM176.576 464.8C175.236 464.8 174.266 465.33 173.666 466.39C173.066 467.43 172.766 468.98 172.766 471.04V473.02C172.766 475.08 173.066 476.64 173.666 477.7C174.266 478.74 175.236 479.26 176.576 479.26C177.916 479.26 178.886 478.74 179.486 477.7C180.086 476.64 180.386 475.08 180.386 473.02V471.04C180.386 468.98 180.086 467.43 179.486 466.39C178.886 465.33 177.916 464.8 176.576 464.8ZM193.496 488.08H191.396V460.66H193.496V488.08ZM182.426 473.26C182.426 473.92 182.396 474.53 182.336 475.09H186.236V468.85H182.306C182.346 469.17 182.376 469.49 182.396 469.81C182.416 470.13 182.426 470.46 182.426 470.8V473.26ZM219.811 488.08H217.681V460.66H219.811V488.08ZM202.471 474.88C202.951 474.34 203.331 473.85 203.611 473.41C203.891 472.97 204.111 472.54 204.271 472.12C204.431 471.68 204.531 471.23 204.571 470.77C204.631 470.31 204.661 469.78 204.661 469.18V462.64H206.851V469.03C206.851 469.61 206.871 470.12 206.911 470.56C206.951 470.98 207.031 471.39 207.151 471.79C207.271 472.17 207.451 472.55 207.691 472.93C207.931 473.31 208.251 473.73 208.651 474.19C209.251 474.89 209.981 475.68 210.841 476.56C211.721 477.44 212.731 478.39 213.871 479.41L212.491 480.85C211.531 479.95 210.641 479.1 209.821 478.3C209.021 477.48 208.321 476.75 207.721 476.11C207.261 475.63 206.841 475.17 206.461 474.73C206.101 474.29 205.881 473.97 205.801 473.77H205.771C205.751 473.87 205.671 474.03 205.531 474.25C205.391 474.45 205.211 474.68 204.991 474.94C204.791 475.2 204.571 475.48 204.331 475.78C204.091 476.06 203.861 476.32 203.641 476.56C203.381 476.84 203.061 477.17 202.681 477.55C202.321 477.93 201.931 478.33 201.511 478.75C201.091 479.17 200.651 479.6 200.191 480.04C199.731 480.48 199.281 480.89 198.841 481.27L197.431 479.8C198.431 478.92 199.341 478.08 200.161 477.28C201.001 476.48 201.771 475.68 202.471 474.88ZM245.795 463.33H230.375V468.16H245.945V469.96H228.305V461.53H245.795V463.33ZM245.945 477.07V483.49H230.315V486.43H246.755V488.2H228.245V481.75H243.875V478.84H228.095V477.07H245.945ZM249.695 472.6V474.4H224.495V472.6H249.695ZM277 472.93V474.73H251.8V472.93H277ZM272.98 466.36C272.98 467.06 272.76 467.69 272.32 468.25C271.88 468.81 271.27 469.29 270.49 469.69C269.73 470.07 268.82 470.37 267.76 470.59C266.72 470.79 265.6 470.89 264.4 470.89C263.2 470.89 262.07 470.79 261.01 470.59C259.97 470.37 259.06 470.07 258.28 469.69C257.52 469.29 256.92 468.81 256.48 468.25C256.04 467.69 255.82 467.06 255.82 466.36V465.46C255.82 464.74 256.04 464.1 256.48 463.54C256.92 462.98 257.52 462.51 258.28 462.13C259.06 461.73 259.97 461.43 261.01 461.23C262.07 461.03 263.2 460.93 264.4 460.93C265.6 460.93 266.72 461.04 267.76 461.26C268.82 461.46 269.73 461.76 270.49 462.16C271.27 462.54 271.88 463.01 272.32 463.57C272.76 464.13 272.98 464.76 272.98 465.46V466.36ZM257.89 466.27C257.89 466.67 258.06 467.05 258.4 467.41C258.74 467.75 259.2 468.05 259.78 468.31C260.38 468.57 261.07 468.77 261.85 468.91C262.65 469.05 263.5 469.12 264.4 469.12C265.3 469.12 266.14 469.05 266.92 468.91C267.72 468.77 268.41 468.57 268.99 468.31C269.59 468.05 270.06 467.75 270.4 467.41C270.74 467.05 270.91 466.67 270.91 466.27V465.55C270.91 465.15 270.74 464.78 270.4 464.44C270.06 464.08 269.59 463.78 268.99 463.54C268.41 463.28 267.72 463.08 266.92 462.94C266.14 462.78 265.3 462.7 264.4 462.7C263.5 462.7 262.65 462.78 261.85 462.94C261.07 463.08 260.38 463.28 259.78 463.54C259.2 463.78 258.74 464.08 258.4 464.44C258.06 464.78 257.89 465.15 257.89 465.55V466.27ZM273.25 477.13V483.52H257.65V486.43H274.06V488.2H255.58V481.78H271.18V478.9H255.43V477.13H273.25ZM291.705 478.78H308.175V488.05H291.705V478.78ZM294.795 466.96C295.835 466.96 296.745 467.09 297.525 467.35C298.305 467.59 298.955 467.92 299.475 468.34C300.015 468.76 300.415 469.24 300.675 469.78C300.935 470.3 301.065 470.83 301.065 471.37V472.33C301.065 472.87 300.935 473.41 300.675 473.95C300.415 474.47 300.015 474.94 299.475 475.36C298.955 475.78 298.305 476.12 297.525 476.38C296.745 476.62 295.835 476.74 294.795 476.74C293.755 476.74 292.845 476.62 292.065 476.38C291.285 476.12 290.625 475.78 290.085 475.36C289.565 474.94 289.175 474.47 288.915 473.95C288.655 473.41 288.525 472.87 288.525 472.33V471.37C288.525 470.83 288.655 470.3 288.915 469.78C289.175 469.24 289.565 468.76 290.085 468.34C290.625 467.92 291.285 467.59 292.065 467.35C292.845 467.09 293.755 466.96 294.795 466.96ZM293.745 486.16H306.135V480.67H293.745V486.16ZM294.795 474.97C295.515 474.97 296.135 474.89 296.655 474.73C297.195 474.57 297.635 474.36 297.975 474.1C298.335 473.82 298.605 473.52 298.785 473.2C298.965 472.88 299.055 472.55 299.055 472.21V471.49C299.055 471.17 298.965 470.85 298.785 470.53C298.605 470.19 298.335 469.89 297.975 469.63C297.635 469.35 297.195 469.13 296.655 468.97C296.135 468.81 295.515 468.73 294.795 468.73C294.075 468.73 293.445 468.81 292.905 468.97C292.385 469.13 291.945 469.34 291.585 469.6C291.245 469.86 290.985 470.16 290.805 470.5C290.625 470.82 290.535 471.15 290.535 471.49V472.21C290.535 472.55 290.625 472.88 290.805 473.2C290.985 473.52 291.245 473.82 291.585 474.1C291.945 474.36 292.385 474.57 292.905 474.73C293.445 474.89 294.075 474.97 294.795 474.97ZM308.175 468.04H312.375V469.9H308.175V477.16H306.075V460.66H308.175V468.04ZM295.845 463.75H302.715V465.58H286.935V463.75H293.745V460.27H295.845V463.75ZM319.699 481.3C320.919 479.8 321.879 478.56 322.579 477.58C323.279 476.58 323.809 475.69 324.169 474.91C324.529 474.13 324.759 473.38 324.859 472.66C324.959 471.92 325.009 471.07 325.009 470.11V465.28H321.889V463.39H327.049V471.01H330.709V461.23H332.749V486.73H330.709V472.87H326.899C326.799 473.57 326.639 474.24 326.419 474.88C326.219 475.52 325.899 476.2 325.459 476.92C325.039 477.64 324.489 478.45 323.809 479.35C323.129 480.25 322.279 481.32 321.259 482.56L319.699 481.3ZM337.849 488.08H335.779V460.66H337.849V488.08ZM313.399 478.96C314.659 477.58 315.639 476.43 316.339 475.51C317.039 474.57 317.559 473.72 317.899 472.96C318.259 472.2 318.479 471.46 318.559 470.74C318.639 470 318.679 469.15 318.679 468.19V465.28H314.659V463.39H320.719V468.28C320.719 469.06 320.699 469.76 320.659 470.38C320.619 470.98 320.529 471.56 320.389 472.12C320.249 472.68 320.049 473.23 319.789 473.77C319.529 474.31 319.179 474.9 318.739 475.54C318.319 476.16 317.789 476.85 317.149 477.61C316.529 478.37 315.779 479.25 314.899 480.25L313.399 478.96ZM349.524 463.36H361.494V465.22H356.664V469.3C356.664 470 356.684 470.6 356.724 471.1C356.784 471.6 356.874 472.06 356.994 472.48C357.134 472.9 357.324 473.31 357.564 473.71C357.804 474.09 358.114 474.52 358.494 475C358.994 475.62 359.594 476.32 360.294 477.1C360.994 477.86 361.764 478.66 362.604 479.5L361.224 480.85C360.884 480.53 360.534 480.18 360.174 479.8C359.834 479.4 359.484 479.01 359.124 478.63C358.784 478.25 358.454 477.88 358.134 477.52C357.834 477.16 357.554 476.84 357.294 476.56C356.854 476.06 356.484 475.6 356.184 475.18C355.904 474.74 355.734 474.44 355.674 474.28H355.644C355.604 474.44 355.454 474.72 355.194 475.12C354.954 475.52 354.604 475.99 354.144 476.53C353.584 477.17 352.954 477.88 352.254 478.66C351.554 479.42 350.724 480.27 349.764 481.21L348.354 479.8C348.794 479.38 349.234 478.95 349.674 478.51C350.114 478.07 350.524 477.64 350.904 477.22C351.304 476.8 351.664 476.41 351.984 476.05C352.324 475.67 352.604 475.33 352.824 475.03C353.184 474.57 353.474 474.14 353.694 473.74C353.934 473.34 354.114 472.92 354.234 472.48C354.354 472.04 354.434 471.57 354.474 471.07C354.534 470.55 354.564 469.96 354.564 469.3V465.22H349.524V463.36ZM364.884 469.93V461.23H366.984V486.73H364.884V471.85H360.024V469.93H364.884ZM372.324 488.08H370.224V460.66H372.324V488.08ZM388.619 477.94C389.739 477.94 390.809 478.05 391.829 478.27C392.869 478.47 393.779 478.78 394.559 479.2C395.339 479.62 395.959 480.14 396.419 480.76C396.899 481.36 397.139 482.05 397.139 482.83V483.91C397.139 484.69 396.899 485.38 396.419 485.98C395.959 486.6 395.339 487.12 394.559 487.54C393.779 487.96 392.869 488.27 391.829 488.47C390.809 488.69 389.739 488.8 388.619 488.8C387.499 488.8 386.419 488.69 385.379 488.47C384.359 488.27 383.459 487.96 382.679 487.54C381.899 487.12 381.269 486.6 380.789 485.98C380.329 485.38 380.099 484.69 380.099 483.91V482.83C380.099 482.03 380.329 481.33 380.789 480.73C381.269 480.11 381.899 479.6 382.679 479.2C383.459 478.78 384.359 478.47 385.379 478.27C386.419 478.05 387.499 477.94 388.619 477.94ZM388.619 487C389.419 487 390.209 486.92 390.989 486.76C391.769 486.62 392.459 486.41 393.059 486.13C393.679 485.87 394.169 485.54 394.529 485.14C394.909 484.74 395.099 484.29 395.099 483.79V482.95C395.099 482.45 394.909 482 394.529 481.6C394.169 481.2 393.679 480.87 393.059 480.61C392.459 480.33 391.769 480.12 390.989 479.98C390.209 479.82 389.419 479.74 388.619 479.74C387.799 479.74 386.999 479.82 386.219 479.98C385.459 480.12 384.769 480.33 384.149 480.61C383.549 480.87 383.059 481.2 382.679 481.6C382.319 482 382.139 482.45 382.139 482.95V483.79C382.139 484.29 382.319 484.74 382.679 485.14C383.059 485.54 383.549 485.87 384.149 486.13C384.769 486.41 385.459 486.62 386.219 486.76C386.999 486.92 387.799 487 388.619 487ZM386.039 473.53V467.74H388.199V473.53H401.219V475.33H376.019V473.53H386.039ZM397.379 461.86V464.65C397.379 465.19 397.359 465.76 397.319 466.36C397.279 466.96 397.219 467.57 397.139 468.19C397.079 468.79 396.999 469.38 396.899 469.96C396.819 470.54 396.729 471.07 396.629 471.55L394.529 471.31C394.769 470.21 394.949 469.09 395.069 467.95C395.209 466.79 395.279 465.7 395.279 464.68V463.72H379.349V461.86H397.379ZM411.423 481.78C410.383 481.78 409.463 481.62 408.663 481.3C407.863 480.96 407.183 480.53 406.623 480.01C406.083 479.47 405.663 478.86 405.363 478.18C405.083 477.5 404.943 476.81 404.943 476.11V474.49C404.943 473.79 405.083 473.1 405.363 472.42C405.663 471.74 406.083 471.13 406.623 470.59C407.183 470.05 407.863 469.62 408.663 469.3C409.463 468.96 410.383 468.79 411.423 468.79C412.463 468.79 413.383 468.96 414.183 469.3C414.983 469.62 415.653 470.05 416.193 470.59C416.753 471.13 417.173 471.74 417.453 472.42C417.753 473.1 417.903 473.79 417.903 474.49V476.11C417.903 476.81 417.753 477.5 417.453 478.18C417.173 478.86 416.753 479.47 416.193 480.01C415.653 480.53 414.983 480.96 414.183 481.3C413.383 481.62 412.463 481.78 411.423 481.78ZM411.423 470.68C410.743 470.68 410.123 470.78 409.563 470.98C409.023 471.18 408.553 471.46 408.153 471.82C407.773 472.18 407.473 472.61 407.253 473.11C407.053 473.59 406.953 474.11 406.953 474.67V475.93C406.953 476.49 407.053 477.02 407.253 477.52C407.473 478 407.773 478.42 408.153 478.78C408.553 479.14 409.023 479.42 409.563 479.62C410.123 479.82 410.743 479.92 411.423 479.92C412.103 479.92 412.713 479.82 413.253 479.62C413.813 479.42 414.283 479.14 414.663 478.78C415.063 478.42 415.363 478 415.563 477.52C415.783 477.02 415.893 476.49 415.893 475.93V474.67C415.893 474.11 415.783 473.59 415.563 473.11C415.363 472.61 415.063 472.18 414.663 471.82C414.283 471.46 413.813 471.18 413.253 470.98C412.713 470.78 412.103 470.68 411.423 470.68ZM424.683 471.88H429.243V473.77H424.683V488.08H422.553V460.66H424.683V471.88ZM410.373 464.98V460.81H412.503V464.98H419.343V466.84H403.443V464.98H410.373ZM453.368 488.11H451.298V476.59H444.668C444.228 478.11 443.468 479.28 442.388 480.1C441.328 480.9 439.988 481.3 438.368 481.3C436.248 481.3 434.588 480.61 433.388 479.23C432.208 477.83 431.618 475.87 431.618 473.35V470.53C431.618 468.03 432.208 466.09 433.388 464.71C434.588 463.31 436.248 462.61 438.368 462.61C439.968 462.61 441.298 463.02 442.358 463.84C443.438 464.64 444.208 465.79 444.668 467.29H451.298V460.66H453.368V488.11ZM443.048 470.92C443.048 469.78 442.938 468.81 442.718 468.01C442.498 467.21 442.178 466.56 441.758 466.06C441.358 465.54 440.868 465.17 440.288 464.95C439.708 464.71 439.068 464.59 438.368 464.59C437.668 464.59 437.028 464.71 436.448 464.95C435.868 465.17 435.368 465.54 434.948 466.06C434.548 466.56 434.238 467.21 434.018 468.01C433.798 468.81 433.688 469.78 433.688 470.92V472.99C433.688 474.13 433.798 475.11 434.018 475.93C434.238 476.73 434.548 477.39 434.948 477.91C435.368 478.41 435.868 478.78 436.448 479.02C437.028 479.24 437.668 479.35 438.368 479.35C439.068 479.35 439.708 479.24 440.288 479.02C440.868 478.78 441.358 478.41 441.758 477.91C442.178 477.39 442.498 476.73 442.718 475.93C442.938 475.11 443.048 474.13 443.048 472.99V470.92ZM445.118 473.35C445.118 473.57 445.108 473.79 445.088 474.01C445.088 474.23 445.078 474.45 445.058 474.67H451.298V469.21H445.058C445.078 469.43 445.088 469.66 445.088 469.9C445.108 470.12 445.118 470.34 445.118 470.56V473.35ZM68.4804 522.08H66.3804V506.42H60.2304V507.35C60.2304 509.87 59.6304 511.83 58.4304 513.23C57.2504 514.61 55.6004 515.3 53.4804 515.3C51.3604 515.3 49.7004 514.61 48.5004 513.23C47.3204 511.83 46.7304 509.87 46.7304 507.35V504.53C46.7304 502.03 47.3204 500.09 48.5004 498.71C49.7004 497.31 51.3604 496.61 53.4804 496.61C55.6004 496.61 57.2504 497.3 58.4304 498.68C59.6104 500.06 60.2104 502 60.2304 504.5H66.3804V494.66H68.4804V522.08ZM58.1604 504.92C58.1604 503.78 58.0504 502.81 57.8304 502.01C57.6104 501.21 57.2904 500.56 56.8704 500.06C56.4704 499.54 55.9804 499.17 55.4004 498.95C54.8204 498.71 54.1804 498.59 53.4804 498.59C52.7804 498.59 52.1404 498.71 51.5604 498.95C50.9804 499.17 50.4804 499.54 50.0604 500.06C49.6604 500.56 49.3504 501.21 49.1304 502.01C48.9104 502.81 48.8004 503.78 48.8004 504.92V506.99C48.8004 508.13 48.9104 509.11 49.1304 509.93C49.3504 510.73 49.6604 511.39 50.0604 511.91C50.4804 512.41 50.9804 512.78 51.5604 513.02C52.1404 513.24 52.7804 513.35 53.4804 513.35C54.1804 513.35 54.8204 513.24 55.4004 513.02C55.9804 512.78 56.4704 512.41 56.8704 511.91C57.2904 511.39 57.6104 510.73 57.8304 509.93C58.0504 509.11 58.1604 508.13 58.1604 506.99V504.92ZM82.4651 509.27C81.5251 509.27 80.6551 509.17 79.8551 508.97C79.0551 508.77 78.3651 508.5 77.7851 508.16C77.2051 507.8 76.7551 507.37 76.4351 506.87C76.1151 506.37 75.9551 505.82 75.9551 505.22V504.26C75.9551 503.64 76.1151 503.08 76.4351 502.58C76.7551 502.08 77.2051 501.66 77.7851 501.32C78.3651 500.96 79.0551 500.69 79.8551 500.51C80.6551 500.31 81.5251 500.21 82.4651 500.21C83.4051 500.21 84.2751 500.31 85.0751 500.51C85.8751 500.69 86.5651 500.96 87.1451 501.32C87.7251 501.68 88.1751 502.11 88.4951 502.61C88.8151 503.11 88.9751 503.66 88.9751 504.26V505.22C88.9751 505.82 88.8151 506.37 88.4951 506.87C88.1751 507.37 87.7251 507.8 87.1451 508.16C86.5651 508.5 85.8751 508.77 85.0751 508.97C84.2751 509.17 83.4051 509.27 82.4651 509.27ZM96.0251 522.08H93.8951V494.66H96.0251V522.08ZM92.0051 512.3C90.6851 512.44 89.3451 512.56 87.9851 512.66C86.6451 512.74 85.1151 512.81 83.3951 512.87V521.21H81.2351V512.93C80.1551 512.95 78.9851 512.97 77.7251 512.99C76.4851 512.99 75.1151 512.99 73.6151 512.99V511.13C75.7751 511.13 77.7451 511.12 79.5251 511.1C81.3251 511.06 82.9651 511.02 84.4451 510.98C85.9451 510.92 87.2951 510.85 88.4951 510.77C89.7151 510.69 90.8251 510.59 91.8251 510.47L92.0051 512.3ZM82.4651 502.01C81.7851 502.01 81.1651 502.08 80.6051 502.22C80.0651 502.34 79.5951 502.51 79.1951 502.73C78.7951 502.93 78.4851 503.18 78.2651 503.48C78.0451 503.78 77.9351 504.09 77.9351 504.41V505.07C77.9351 505.41 78.0451 505.73 78.2651 506.03C78.4851 506.31 78.7951 506.56 79.1951 506.78C79.5951 507 80.0651 507.18 80.6051 507.32C81.1651 507.44 81.7851 507.5 82.4651 507.5C83.1451 507.5 83.7551 507.44 84.2951 507.32C84.8551 507.18 85.3351 507 85.7351 506.78C86.1351 506.56 86.4451 506.31 86.6651 506.03C86.8851 505.73 86.9951 505.41 86.9951 505.07V504.41C86.9951 504.09 86.8851 503.78 86.6651 503.48C86.4451 503.18 86.1351 502.93 85.7351 502.73C85.3351 502.51 84.8551 502.34 84.2951 502.22C83.7551 502.08 83.1451 502.01 82.4651 502.01ZM83.5151 497H90.2351V498.86H74.4251V497H81.4151V494.24H83.5151V497ZM121.8 511.91V517.94H106.17V520.46H122.61V522.23H104.1V516.2H119.73V513.68H103.95V511.91H121.8ZM125.55 507.74V509.54H100.35V507.74H125.55ZM104.04 495.38H121.65V501.29H106.14V503.69H122.25V505.46H104.13V499.55H119.64V497.15H104.04V495.38ZM153.004 511.34C152.064 511.46 151.034 511.56 149.914 511.64C148.814 511.72 147.554 511.79 146.134 511.85C144.714 511.91 143.104 511.96 141.304 512C139.504 512.02 137.464 512.03 135.184 512.03V510.17C136.684 510.17 138.044 510.17 139.264 510.17C140.484 510.17 141.624 510.16 142.684 510.14V508.04C140.944 507.92 139.644 507.51 138.784 506.81C137.944 506.11 137.524 505.29 137.524 504.35V503.63C137.524 502.59 138.034 501.71 139.054 500.99C140.074 500.27 141.624 499.91 143.704 499.91C145.784 499.91 147.334 500.28 148.354 501.02C149.374 501.74 149.884 502.61 149.884 503.63V504.35C149.884 505.31 149.464 506.13 148.624 506.81C147.784 507.49 146.504 507.9 144.784 508.04V510.08C146.484 510.04 147.964 509.98 149.224 509.9C150.484 509.8 151.684 509.69 152.824 509.57L153.004 511.34ZM138.904 514.25H156.874V522.35H154.804V516.11H138.904V514.25ZM156.874 503.45H160.984V505.34H156.874V512.63H154.774V494.66H156.874V503.45ZM142.654 496.91V494.3H144.754V496.91H151.204V498.71H136.204V496.91H142.654ZM143.704 501.65C142.284 501.65 141.234 501.86 140.554 502.28C139.874 502.7 139.534 503.18 139.534 503.72V504.26C139.534 504.8 139.874 505.28 140.554 505.7C141.234 506.12 142.284 506.33 143.704 506.33C145.124 506.33 146.174 506.12 146.854 505.7C147.534 505.28 147.874 504.8 147.874 504.26V503.72C147.874 503.18 147.534 502.7 146.854 502.28C146.174 501.86 145.124 501.65 143.704 501.65ZM184.989 509.84V516.89H170.289V520.37H185.709V522.17H168.219V515.12H182.919V511.67H168.069V509.84H184.989ZM184.989 508.22H182.889V494.66H184.989V508.22ZM171.009 502.49C170.849 502.99 170.109 503.81 168.789 504.95C168.269 505.41 167.599 505.97 166.779 506.63C165.959 507.29 165.039 507.99 164.019 508.73L162.759 507.2C163.699 506.56 164.589 505.91 165.429 505.25C166.269 504.57 166.999 503.95 167.619 503.39C168.059 502.99 168.419 502.62 168.699 502.28C168.979 501.94 169.199 501.59 169.359 501.23C169.539 500.85 169.659 500.45 169.719 500.03C169.799 499.61 169.839 499.13 169.839 498.59V495.35H171.999V498.5C171.999 499.04 172.019 499.51 172.059 499.91C172.119 500.29 172.219 500.64 172.359 500.96C172.519 501.28 172.739 501.6 173.019 501.92C173.299 502.22 173.679 502.57 174.159 502.97C174.719 503.43 175.389 503.96 176.169 504.56C176.969 505.16 177.769 505.72 178.569 506.24L177.369 507.77C176.669 507.27 175.999 506.78 175.359 506.3C174.719 505.82 174.179 505.41 173.739 505.07C173.039 504.51 172.439 504.01 171.939 503.57C171.439 503.11 171.139 502.75 171.039 502.49H171.009ZM197.864 515.78C196.824 515.78 195.904 515.62 195.104 515.3C194.304 514.96 193.624 514.53 193.064 514.01C192.524 513.47 192.104 512.86 191.804 512.18C191.524 511.5 191.384 510.81 191.384 510.11V508.49C191.384 507.79 191.524 507.1 191.804 506.42C192.104 505.74 192.524 505.13 193.064 504.59C193.624 504.05 194.304 503.62 195.104 503.3C195.904 502.96 196.824 502.79 197.864 502.79C198.904 502.79 199.824 502.96 200.624 503.3C201.424 503.62 202.094 504.05 202.634 504.59C203.194 505.13 203.614 505.74 203.894 506.42C204.194 507.1 204.344 507.79 204.344 508.49V510.11C204.344 510.81 204.194 511.5 203.894 512.18C203.614 512.86 203.194 513.47 202.634 514.01C202.094 514.53 201.424 514.96 200.624 515.3C199.824 515.62 198.904 515.78 197.864 515.78ZM197.864 504.68C197.184 504.68 196.564 504.78 196.004 504.98C195.464 505.18 194.994 505.46 194.594 505.82C194.214 506.18 193.914 506.61 193.694 507.11C193.494 507.59 193.394 508.11 193.394 508.67V509.93C193.394 510.49 193.494 511.02 193.694 511.52C193.914 512 194.214 512.42 194.594 512.78C194.994 513.14 195.464 513.42 196.004 513.62C196.564 513.82 197.184 513.92 197.864 513.92C198.544 513.92 199.154 513.82 199.694 513.62C200.254 513.42 200.724 513.14 201.104 512.78C201.504 512.42 201.804 512 202.004 511.52C202.224 511.02 202.334 510.49 202.334 509.93V508.67C202.334 508.11 202.224 507.59 202.004 507.11C201.804 506.61 201.504 506.18 201.104 505.82C200.724 505.46 200.254 505.18 199.694 504.98C199.154 504.78 198.544 504.68 197.864 504.68ZM211.124 505.88H215.684V507.77H211.124V522.08H208.994V494.66H211.124V505.88ZM196.814 498.98V494.81H198.944V498.98H205.784V500.84H189.884V498.98H196.814ZM217.549 514.4C218.889 513.5 220.039 512.7 220.999 512C221.959 511.28 222.759 510.62 223.399 510.02C224.059 509.4 224.579 508.82 224.959 508.28C225.339 507.72 225.629 507.15 225.829 506.57C226.029 505.97 226.159 505.33 226.219 504.65C226.279 503.95 226.309 503.16 226.309 502.28V499.28H218.059V497.39H228.379V502.4C228.379 502.9 228.359 503.37 228.319 503.81C228.299 504.25 228.269 504.67 228.229 505.07H232.969V495.23H235.069V520.73H232.969V506.96H227.869C227.649 507.7 227.319 508.4 226.879 509.06C226.459 509.72 225.889 510.41 225.169 511.13C224.449 511.83 223.559 512.58 222.499 513.38C221.439 514.16 220.179 515.05 218.719 516.05L217.549 514.4ZM240.589 522.08H238.489V494.66H240.589V522.08ZM274.493 522.08H272.363V494.66H274.493V522.08ZM266.933 507.38C266.933 509.9 266.333 511.86 265.133 513.26C263.953 514.66 262.293 515.36 260.153 515.36C258.013 515.36 256.343 514.66 255.143 513.26C253.963 511.86 253.373 509.9 253.373 507.38V504.53C253.373 502.01 253.963 500.06 255.143 498.68C256.343 497.28 258.013 496.58 260.153 496.58C262.293 496.58 263.953 497.28 265.133 498.68C266.333 500.08 266.933 502.04 266.933 504.56V507.38ZM264.863 504.92C264.863 503.78 264.743 502.81 264.503 502.01C264.283 501.21 263.963 500.56 263.543 500.06C263.143 499.54 262.653 499.16 262.073 498.92C261.493 498.68 260.853 498.56 260.153 498.56C259.453 498.56 258.813 498.68 258.233 498.92C257.653 499.16 257.153 499.54 256.733 500.06C256.333 500.56 256.013 501.21 255.773 502.01C255.553 502.81 255.443 503.78 255.443 504.92V507.02C255.443 508.16 255.553 509.14 255.773 509.96C256.013 510.76 256.333 511.42 256.733 511.94C257.153 512.44 257.653 512.81 258.233 513.05C258.813 513.29 259.453 513.41 260.153 513.41C260.853 513.41 261.493 513.29 262.073 513.05C262.653 512.81 263.143 512.44 263.543 511.94C263.963 511.42 264.283 510.76 264.503 509.96C264.743 509.14 264.863 508.16 264.863 507.02V504.92ZM297.058 505.16H300.898V494.66H302.998V522.08H300.898V507.05H297.058V520.73H294.958V495.23H297.058V505.16ZM286.288 515.09C285.328 515.09 284.478 514.94 283.738 514.64C282.998 514.32 282.368 513.91 281.848 513.41C281.348 512.91 280.968 512.34 280.708 511.7C280.448 511.06 280.318 510.4 280.318 509.72V508.46C280.318 507.78 280.448 507.12 280.708 506.48C280.968 505.84 281.348 505.27 281.848 504.77C282.368 504.27 282.998 503.87 283.738 503.57C284.478 503.25 285.328 503.09 286.288 503.09C287.248 503.09 288.098 503.25 288.838 503.57C289.578 503.87 290.198 504.27 290.698 504.77C291.218 505.27 291.608 505.84 291.868 506.48C292.128 507.12 292.258 507.78 292.258 508.46V509.72C292.258 510.38 292.128 511.04 291.868 511.7C291.608 512.34 291.218 512.91 290.698 513.41C290.198 513.91 289.578 514.32 288.838 514.64C288.098 514.94 287.248 515.09 286.288 515.09ZM286.288 504.95C285.688 504.95 285.138 505.06 284.638 505.28C284.158 505.48 283.738 505.75 283.378 506.09C283.038 506.43 282.778 506.82 282.598 507.26C282.418 507.7 282.328 508.15 282.328 508.61V509.57C282.328 510.03 282.418 510.48 282.598 510.92C282.778 511.36 283.038 511.75 283.378 512.09C283.738 512.43 284.158 512.71 284.638 512.93C285.138 513.13 285.688 513.23 286.288 513.23C286.888 513.23 287.428 513.13 287.908 512.93C288.408 512.71 288.828 512.43 289.168 512.09C289.528 511.75 289.798 511.36 289.978 510.92C290.158 510.48 290.248 510.03 290.248 509.57V508.61C290.248 508.15 290.158 507.7 289.978 507.26C289.798 506.82 289.528 506.43 289.168 506.09C288.828 505.75 288.408 505.48 287.908 505.28C287.428 505.06 286.888 504.95 286.288 504.95ZM279.268 499.46H285.208V495.44H287.308V499.46H292.858V501.32H279.268V499.46ZM328.053 511.1V517.52H313.593V520.37H328.773V522.17H311.523V515.75H325.983V512.93H311.373V511.1H328.053ZM314.643 509.21C313.583 509.21 312.663 509.1 311.883 508.88C311.103 508.64 310.453 508.34 309.933 507.98C309.413 507.6 309.023 507.16 308.763 506.66C308.503 506.16 308.373 505.64 308.373 505.1V504.38C308.373 503.84 308.503 503.32 308.763 502.82C309.023 502.32 309.413 501.89 309.933 501.53C310.453 501.15 311.103 500.85 311.883 500.63C312.663 500.39 313.583 500.27 314.643 500.27C315.703 500.27 316.623 500.39 317.403 500.63C318.183 500.85 318.833 501.15 319.353 501.53C319.873 501.91 320.263 502.35 320.523 502.85C320.783 503.33 320.913 503.84 320.913 504.38V505.1C320.913 505.64 320.783 506.16 320.523 506.66C320.263 507.16 319.873 507.6 319.353 507.98C318.833 508.34 318.183 508.64 317.403 508.88C316.623 509.1 315.703 509.21 314.643 509.21ZM328.053 501.17H332.253V503.03H328.053V509.48H325.953V494.66H328.053V501.17ZM314.643 502.04C313.943 502.04 313.323 502.11 312.783 502.25C312.263 502.39 311.823 502.58 311.463 502.82C311.123 503.04 310.863 503.29 310.683 503.57C310.503 503.85 310.413 504.14 310.413 504.44V505.04C310.413 505.34 310.503 505.63 310.683 505.91C310.863 506.19 311.123 506.45 311.463 506.69C311.823 506.91 312.263 507.09 312.783 507.23C313.323 507.37 313.943 507.44 314.643 507.44C315.343 507.44 315.953 507.37 316.473 507.23C317.013 507.09 317.453 506.91 317.793 506.69C318.153 506.45 318.423 506.19 318.603 505.91C318.783 505.63 318.873 505.34 318.873 505.04V504.44C318.873 504.14 318.783 503.85 318.603 503.57C318.423 503.29 318.153 503.04 317.793 502.82C317.453 502.58 317.013 502.39 316.473 502.25C315.953 502.11 315.343 502.04 314.643 502.04ZM315.693 497.15H322.593V498.98H306.783V497.15H313.593V494.09H315.693V497.15ZM366.487 510.41V512.24H354.967V522.08H352.837V512.24H341.287V510.41H366.487ZM357.397 504.59C355.377 503.59 354.207 502.75 353.887 502.07H353.857C353.477 502.79 352.307 503.64 350.347 504.62C349.527 505.02 348.557 505.48 347.437 506C346.337 506.5 345.177 506.99 343.957 507.47L343.027 505.79C344.147 505.37 345.287 504.9 346.447 504.38C347.627 503.86 348.697 503.35 349.657 502.85C350.237 502.55 350.727 502.26 351.127 501.98C351.527 501.68 351.847 501.35 352.087 500.99C352.347 500.63 352.527 500.21 352.627 499.73C352.747 499.25 352.807 498.68 352.807 498.02V495.62H354.937V498.02C354.937 498.68 354.987 499.25 355.087 499.73C355.207 500.21 355.387 500.63 355.627 500.99C355.867 501.35 356.187 501.68 356.587 501.98C356.987 502.26 357.477 502.55 358.057 502.85C359.017 503.35 360.067 503.86 361.207 504.38C362.367 504.88 363.507 505.34 364.627 505.76L363.727 507.41C362.507 506.93 361.347 506.44 360.247 505.94C359.167 505.44 358.217 504.99 357.397 504.59ZM384.072 508.64C383.032 508.64 382.092 508.47 381.252 508.13C380.432 507.79 379.732 507.35 379.152 506.81C378.592 506.27 378.152 505.66 377.832 504.98C377.532 504.3 377.382 503.62 377.382 502.94V501.26C377.382 500.58 377.532 499.9 377.832 499.22C378.152 498.54 378.592 497.93 379.152 497.39C379.732 496.85 380.432 496.41 381.252 496.07C382.092 495.73 383.032 495.56 384.072 495.56C385.112 495.56 386.042 495.73 386.862 496.07C387.702 496.41 388.402 496.85 388.962 497.39C389.542 497.93 389.982 498.54 390.282 499.22C390.602 499.9 390.762 500.58 390.762 501.26V502.94C390.762 503.62 390.602 504.3 390.282 504.98C389.982 505.66 389.542 506.27 388.962 506.81C388.402 507.35 387.702 507.79 386.862 508.13C386.042 508.47 385.112 508.64 384.072 508.64ZM390.042 522.14C388.362 520.72 387.142 519.61 386.382 518.81C385.642 518.03 385.232 517.54 385.152 517.34C385.032 517.54 384.822 517.81 384.522 518.15C384.222 518.49 383.722 518.96 383.022 519.56C382.642 519.9 382.192 520.28 381.672 520.7C381.152 521.12 380.542 521.6 379.842 522.14L378.672 520.64C379.952 519.68 380.972 518.87 381.732 518.21C382.292 517.73 382.732 517.31 383.052 516.95C383.372 516.59 383.612 516.24 383.772 515.9C383.932 515.56 384.032 515.21 384.072 514.85C384.112 514.49 384.132 514.07 384.132 513.59V511.19H386.202V513.68C386.202 514.14 386.212 514.54 386.232 514.88C386.272 515.2 386.352 515.51 386.472 515.81C386.592 516.11 386.782 516.43 387.042 516.77C387.322 517.09 387.702 517.49 388.182 517.97C388.422 518.21 388.692 518.46 388.992 518.72C389.312 519 389.662 519.29 390.042 519.59C390.422 519.29 390.762 519 391.062 518.72C391.382 518.46 391.662 518.21 391.902 517.97C392.382 517.49 392.752 517.09 393.012 516.77C393.292 516.43 393.492 516.11 393.612 515.81C393.732 515.51 393.802 515.2 393.822 514.88C393.862 514.54 393.882 514.14 393.882 513.68V511.19H395.952V513.59C395.952 514.07 395.972 514.49 396.012 514.85C396.052 515.21 396.152 515.56 396.312 515.9C396.472 516.24 396.712 516.59 397.032 516.95C397.352 517.31 397.792 517.73 398.352 518.21C399.092 518.87 400.112 519.68 401.412 520.64L400.242 522.14C399.542 521.6 398.932 521.12 398.412 520.7C397.892 520.28 397.442 519.9 397.062 519.56C396.362 518.96 395.862 518.49 395.562 518.15C395.262 517.81 395.052 517.54 394.932 517.34C394.852 517.54 394.432 518.03 393.672 518.81C392.932 519.61 391.722 520.72 390.042 522.14ZM384.072 497.45C383.392 497.45 382.762 497.56 382.182 497.78C381.622 498 381.132 498.3 380.712 498.68C380.312 499.04 379.992 499.46 379.752 499.94C379.532 500.42 379.422 500.92 379.422 501.44V502.76C379.422 503.28 379.532 503.78 379.752 504.26C379.992 504.74 380.312 505.17 380.712 505.55C381.132 505.91 381.622 506.2 382.182 506.42C382.762 506.64 383.392 506.75 384.072 506.75C384.752 506.75 385.372 506.64 385.932 506.42C386.512 506.2 387.002 505.91 387.402 505.55C387.822 505.17 388.142 504.74 388.362 504.26C388.602 503.78 388.722 503.28 388.722 502.76V501.44C388.722 500.92 388.602 500.42 388.362 499.94C388.142 499.46 387.822 499.04 387.402 498.68C387.002 498.3 386.512 498 385.932 497.78C385.372 497.56 384.752 497.45 384.072 497.45ZM398.742 509.45H396.642V494.66H398.742V509.45ZM426.137 522.08H424.037V506.42H417.887V507.35C417.887 509.87 417.287 511.83 416.087 513.23C414.907 514.61 413.257 515.3 411.137 515.3C409.017 515.3 407.357 514.61 406.157 513.23C404.977 511.83 404.387 509.87 404.387 507.35V504.53C404.387 502.03 404.977 500.09 406.157 498.71C407.357 497.31 409.017 496.61 411.137 496.61C413.257 496.61 414.907 497.3 416.087 498.68C417.267 500.06 417.867 502 417.887 504.5H424.037V494.66H426.137V522.08ZM415.817 504.92C415.817 503.78 415.707 502.81 415.487 502.01C415.267 501.21 414.947 500.56 414.527 500.06C414.127 499.54 413.637 499.17 413.057 498.95C412.477 498.71 411.837 498.59 411.137 498.59C410.437 498.59 409.797 498.71 409.217 498.95C408.637 499.17 408.137 499.54 407.717 500.06C407.317 500.56 407.007 501.21 406.787 502.01C406.567 502.81 406.457 503.78 406.457 504.92V506.99C406.457 508.13 406.567 509.11 406.787 509.93C407.007 510.73 407.317 511.39 407.717 511.91C408.137 512.41 408.637 512.78 409.217 513.02C409.797 513.24 410.437 513.35 411.137 513.35C411.837 513.35 412.477 513.24 413.057 513.02C413.637 512.78 414.127 512.41 414.527 511.91C414.947 511.39 415.267 510.73 415.487 509.93C415.707 509.11 415.817 508.13 415.817 506.99V504.92ZM434.271 502.76C434.271 501.78 434.511 500.9 434.991 500.12C435.471 499.32 436.121 498.64 436.941 498.08C437.761 497.52 438.711 497.09 439.791 496.79C440.891 496.47 442.061 496.31 443.301 496.31C444.521 496.31 445.671 496.47 446.751 496.79C447.851 497.09 448.811 497.52 449.631 498.08C450.471 498.64 451.131 499.32 451.611 500.12C452.091 500.9 452.331 501.78 452.331 502.76V504.23C452.331 505.29 452.051 506.24 451.491 507.08C450.931 507.92 450.181 508.62 449.241 509.18V516.38H455.901V518.21H430.701V516.38H437.361V509.18C436.401 508.62 435.641 507.93 435.081 507.11C434.541 506.27 434.271 505.31 434.271 504.23V502.76ZM443.301 498.26C442.321 498.26 441.411 498.38 440.571 498.62C439.731 498.84 439.001 499.15 438.381 499.55C437.761 499.95 437.271 500.43 436.911 500.99C436.551 501.55 436.371 502.17 436.371 502.85V504.14C436.371 504.82 436.551 505.44 436.911 506C437.271 506.56 437.761 507.05 438.381 507.47C439.001 507.87 439.731 508.18 440.571 508.4C441.411 508.62 442.321 508.73 443.301 508.73C444.261 508.73 445.161 508.62 446.001 508.4C446.861 508.18 447.601 507.87 448.221 507.47C448.841 507.05 449.331 506.56 449.691 506C450.051 505.44 450.231 504.82 450.231 504.14V502.85C450.231 502.17 450.051 501.55 449.691 500.99C449.331 500.43 448.841 499.95 448.221 499.55C447.601 499.15 446.861 498.84 446.001 498.62C445.161 498.38 444.261 498.26 443.301 498.26ZM443.301 510.68C442.601 510.68 441.931 510.63 441.291 510.53C440.651 510.43 440.041 510.29 439.461 510.11V516.38H447.141V510.11C446.561 510.31 445.941 510.46 445.281 510.56C444.641 510.64 443.981 510.68 443.301 510.68ZM459.116 516.65H462.146V519.65H459.116V516.65Z" fill="black"/>
<path d="M203.261 392.2V376.87H197.921V377.56C197.921 378.88 197.741 380.04 197.381 381.04C197.041 382.04 196.561 382.87 195.941 383.53C195.341 384.19 194.611 384.69 193.751 385.03C192.911 385.37 191.981 385.54 190.961 385.54C189.941 385.54 189.001 385.37 188.141 385.03C187.301 384.69 186.571 384.19 185.951 383.53C185.351 382.87 184.871 382.04 184.511 381.04C184.171 380.04 184.001 378.88 184.001 377.56V374.44C184.001 373.12 184.171 371.96 184.511 370.96C184.871 369.96 185.351 369.13 185.951 368.47C186.571 367.79 187.301 367.28 188.141 366.94C189.001 366.6 189.941 366.43 190.961 366.43C191.961 366.43 192.881 366.6 193.721 366.94C194.561 367.26 195.291 367.75 195.911 368.41C196.531 369.07 197.011 369.89 197.351 370.87C197.711 371.85 197.901 372.98 197.921 374.26H203.261V364.54H206.231V392.2H203.261ZM190.961 382.87C191.501 382.87 192.021 382.77 192.521 382.57C193.021 382.37 193.451 382.05 193.811 381.61C194.191 381.15 194.491 380.56 194.711 379.84C194.951 379.1 195.071 378.2 195.071 377.14V374.86C195.071 373.8 194.951 372.91 194.711 372.19C194.491 371.45 194.191 370.86 193.811 370.42C193.451 369.96 193.021 369.63 192.521 369.43C192.021 369.23 191.501 369.13 190.961 369.13C190.421 369.13 189.901 369.23 189.401 369.43C188.901 369.63 188.461 369.96 188.081 370.42C187.721 370.86 187.421 371.45 187.181 372.19C186.961 372.91 186.851 373.8 186.851 374.86V377.14C186.851 378.2 186.961 379.1 187.181 379.84C187.421 380.56 187.721 381.15 188.081 381.61C188.461 382.05 188.901 382.37 189.401 382.57C189.901 382.77 190.421 382.87 190.961 382.87ZM219.915 379.57C218.975 379.57 218.095 379.48 217.275 379.3C216.475 379.1 215.775 378.82 215.175 378.46C214.575 378.1 214.105 377.67 213.765 377.17C213.425 376.65 213.255 376.07 213.255 375.43V374.41C213.255 373.77 213.425 373.2 213.765 372.7C214.105 372.18 214.575 371.74 215.175 371.38C215.775 371.02 216.475 370.75 217.275 370.57C218.095 370.37 218.975 370.27 219.915 370.27C220.855 370.27 221.725 370.37 222.525 370.57C223.345 370.77 224.055 371.05 224.655 371.41C225.255 371.77 225.725 372.21 226.065 372.73C226.405 373.23 226.575 373.79 226.575 374.41V375.43C226.575 376.07 226.405 376.65 226.065 377.17C225.725 377.67 225.255 378.1 224.655 378.46C224.055 378.82 223.345 379.1 222.525 379.3C221.725 379.48 220.855 379.57 219.915 379.57ZM230.715 392.2V364.54H233.655V392.2H230.715ZM218.325 391.36V383.2C217.225 383.24 216.065 383.26 214.845 383.26C213.645 383.26 212.365 383.26 211.005 383.26V380.68C212.985 380.68 214.795 380.67 216.435 380.65C218.095 380.63 219.645 380.6 221.085 380.56C222.525 380.5 223.885 380.43 225.165 380.35C226.465 380.27 227.735 380.17 228.975 380.05L229.215 382.54C227.955 382.68 226.685 382.8 225.405 382.9C224.145 382.98 222.795 383.05 221.355 383.11V391.36H218.325ZM227.685 366.82V369.34H211.785V366.82H218.445V364.15H221.385V366.82H227.685ZM219.915 372.67C218.775 372.67 217.855 372.86 217.155 373.24C216.475 373.62 216.135 374.1 216.135 374.68V375.16C216.135 375.74 216.475 376.22 217.155 376.6C217.855 376.98 218.775 377.17 219.915 377.17C221.055 377.17 221.965 376.98 222.645 376.6C223.345 376.22 223.695 375.74 223.695 375.16V374.68C223.695 374.1 223.345 373.62 222.645 373.24C221.965 372.86 221.055 372.67 219.915 372.67ZM253.49 381.34C252.37 381.34 251.4 381.2 250.58 380.92C249.78 380.64 249.12 380.28 248.6 379.84C248.08 379.4 247.69 378.9 247.43 378.34C247.17 377.78 247.04 377.21 247.04 376.63V375.67C247.04 375.09 247.17 374.52 247.43 373.96C247.69 373.4 248.08 372.9 248.6 372.46C249.12 372 249.78 371.64 250.58 371.38C251.4 371.1 252.37 370.96 253.49 370.96C254.59 370.96 255.55 371.1 256.37 371.38C257.19 371.66 257.86 372.02 258.38 372.46C258.9 372.9 259.29 373.41 259.55 373.99C259.81 374.55 259.94 375.11 259.94 375.67V376.63C259.94 377.21 259.81 377.78 259.55 378.34C259.29 378.9 258.9 379.4 258.38 379.84C257.86 380.28 257.19 380.64 256.37 380.92C255.55 381.2 254.59 381.34 253.49 381.34ZM249.56 383.23H267.05V392.47H264.08V385.78H249.56V383.23ZM270.98 374.38H267.05V381.79H264.11V364.54H267.05V371.8H270.98V374.38ZM261.41 369.94H245.54V367.45H252.02V364.18H254.96V367.45H261.41V369.94ZM253.49 378.97C254.09 378.97 254.62 378.9 255.08 378.76C255.54 378.6 255.92 378.41 256.22 378.19C256.52 377.95 256.74 377.68 256.88 377.38C257.04 377.08 257.12 376.78 257.12 376.48V375.82C257.12 375.52 257.04 375.22 256.88 374.92C256.74 374.62 256.52 374.36 256.22 374.14C255.92 373.9 255.54 373.71 255.08 373.57C254.64 373.41 254.11 373.33 253.49 373.33C252.87 373.33 252.33 373.41 251.87 373.57C251.43 373.71 251.06 373.9 250.76 374.14C250.46 374.36 250.23 374.62 250.07 374.92C249.93 375.22 249.86 375.52 249.86 375.82V376.48C249.86 376.78 249.93 377.08 250.07 377.38C250.23 377.68 250.46 377.95 250.76 378.19C251.06 378.41 251.44 378.6 251.9 378.76C252.36 378.9 252.89 378.97 253.49 378.97ZM294.265 381.46V392.2H276.145V381.46H279.085V384.28H291.325V381.46H294.265ZM294.865 375.73C293.805 375.33 292.755 374.91 291.715 374.47C290.695 374.03 289.805 373.63 289.045 373.27C287.725 372.63 286.785 372.12 286.225 371.74C285.665 371.34 285.335 371 285.235 370.72H285.205C285.105 371.02 284.775 371.36 284.215 371.74C283.655 372.12 282.715 372.63 281.395 373.27C280.635 373.63 279.745 374.03 278.725 374.47C277.705 374.91 276.655 375.33 275.575 375.73L274.435 373.3C275.855 372.78 277.115 372.29 278.215 371.83C279.315 371.35 280.225 370.91 280.945 370.51C281.485 370.23 281.925 369.96 282.265 369.7C282.625 369.44 282.915 369.17 283.135 368.89C283.355 368.59 283.505 368.26 283.585 367.9C283.685 367.54 283.735 367.1 283.735 366.58V364.84H286.675V366.58C286.675 367.1 286.715 367.54 286.795 367.9C286.895 368.26 287.045 368.59 287.245 368.89C287.465 369.19 287.755 369.47 288.115 369.73C288.475 369.97 288.925 370.23 289.465 370.51C290.225 370.89 291.155 371.33 292.255 371.83C293.375 372.31 294.625 372.8 296.005 373.3L294.865 375.73ZM297.895 377.17V379.69H272.515V377.17H297.895ZM291.325 389.68V386.71H279.085V389.68H291.325Z" fill="black"/>
<path d="M148.786 0C133.986 0 122 12 122 26.7857V273.214C122 288 134 300 148.786 300H330.929C345.714 300 357.714 288 357.714 273.214V160.714C357.714 146.506 352.07 132.88 342.024 122.834C331.977 112.787 318.351 107.143 304.143 107.143H277.357C270.253 107.143 263.44 104.321 258.417 99.2975C253.393 94.2742 250.571 87.4612 250.571 80.3571V53.5714C250.571 39.3634 244.927 25.7373 234.881 15.6907C224.834 5.64412 211.208 0 197 0H148.786Z" fill="#A2E1DB"/>
<path d="M253.728 4.51465C265.536 18.1284 272.025 35.551 272 53.5718V80.3575C272 83.3146 274.4 85.7146 277.357 85.7146H304.143C322.164 85.6896 339.586 92.1787 353.2 103.986C346.912 80.0832 334.389 58.2788 316.913 40.8019C299.436 23.325 277.631 10.8026 253.728 4.51465Z" fill="#A2E1DB"/>
<line x1="160.998" y1="163" x2="317.002" y2="163" stroke="white" stroke-width="7"/>
<path d="M173.171 136.808H176.867V139.376H173.171V136.808ZM173.171 143.672H176.867V146.264H173.171V143.672ZM180.395 131.912H183.443V154.136H180.395V131.912ZM175.955 132.248H178.931V153.128H175.955V132.248ZM169.331 133.472C172.283 133.472 174.179 136.52 174.179 141.536C174.179 146.576 172.283 149.624 169.331 149.624C166.403 149.624 164.531 146.576 164.531 141.536C164.531 136.52 166.403 133.472 169.331 133.472ZM169.331 136.472C168.107 136.472 167.387 138.152 167.387 141.536C167.387 144.944 168.107 146.6 169.331 146.6C170.579 146.6 171.299 144.944 171.299 141.536C171.299 138.152 170.579 136.472 169.331 136.472ZM191.841 133.616H194.433V136.856C194.433 142.568 192.465 147.728 188.049 149.768L186.153 147.128C190.017 145.448 191.841 141.176 191.841 136.856V133.616ZM192.465 133.616H195.057V136.856C195.057 140.96 196.809 145.04 200.601 146.672L198.729 149.24C194.433 147.272 192.465 142.328 192.465 136.856V133.616ZM201.657 131.888H204.873V154.184H201.657V131.888ZM222.049 134.545V152H217.839V138.483H217.737L213.833 140.869V137.222L218.137 134.545H222.049Z" fill="white"/>
<line x1="160.998" y1="215" x2="317.002" y2="215" stroke="white" stroke-width="7"/>
<path d="M171.983 188.808H175.679V191.376H171.983V188.808ZM171.983 195.672H175.679V198.264H171.983V195.672ZM179.207 183.912H182.255V206.136H179.207V183.912ZM174.767 184.248H177.743V205.128H174.767V184.248ZM168.143 185.472C171.095 185.472 172.991 188.52 172.991 193.536C172.991 198.576 171.095 201.624 168.143 201.624C165.215 201.624 163.343 198.576 163.343 193.536C163.343 188.52 165.215 185.472 168.143 185.472ZM168.143 188.472C166.919 188.472 166.199 190.152 166.199 193.536C166.199 196.944 166.919 198.6 168.143 198.6C169.391 198.6 170.111 196.944 170.111 193.536C170.111 190.152 169.391 188.472 168.143 188.472ZM190.654 185.616H193.246V188.856C193.246 194.568 191.278 199.728 186.862 201.768L184.966 199.128C188.83 197.448 190.654 193.176 190.654 188.856V185.616ZM191.278 185.616H193.87V188.856C193.87 192.96 195.622 197.04 199.414 198.672L197.542 201.24C193.246 199.272 191.278 194.328 191.278 188.856V185.616ZM200.47 183.888H203.686V206.184H200.47V183.888ZM212.791 204V200.966L219.157 195.392C219.635 194.96 220.041 194.565 220.376 194.207C220.711 193.844 220.967 193.48 221.143 193.116C221.319 192.747 221.407 192.347 221.407 191.915C221.407 191.432 221.302 191.02 221.092 190.679C220.882 190.332 220.592 190.065 220.223 189.878C219.853 189.69 219.43 189.597 218.953 189.597C218.47 189.597 218.047 189.696 217.683 189.895C217.319 190.088 217.035 190.369 216.831 190.739C216.632 191.108 216.532 191.557 216.532 192.085H212.535C212.535 190.898 212.802 189.872 213.336 189.009C213.87 188.145 214.62 187.48 215.586 187.014C216.558 186.543 217.686 186.307 218.97 186.307C220.294 186.307 221.444 186.528 222.422 186.972C223.399 187.415 224.154 188.034 224.689 188.83C225.228 189.619 225.498 190.537 225.498 191.582C225.498 192.247 225.365 192.906 225.098 193.56C224.831 194.213 224.35 194.935 223.657 195.724C222.97 196.514 221.993 197.46 220.725 198.562L218.637 200.489V200.599H225.711V204H212.791Z" fill="white"/>
<line x1="160.998" y1="265" x2="317.002" y2="265" stroke="white" stroke-width="7"/>
<path d="M171.132 238.808H174.828V241.376H171.132V238.808ZM171.132 245.672H174.828V248.264H171.132V245.672ZM178.356 233.912H181.404V256.136H178.356V233.912ZM173.916 234.248H176.892V255.128H173.916V234.248ZM167.292 235.472C170.244 235.472 172.14 238.52 172.14 243.536C172.14 248.576 170.244 251.624 167.292 251.624C164.364 251.624 162.492 248.576 162.492 243.536C162.492 238.52 164.364 235.472 167.292 235.472ZM167.292 238.472C166.068 238.472 165.348 240.152 165.348 243.536C165.348 246.944 166.068 248.6 167.292 248.6C168.54 248.6 169.26 246.944 169.26 243.536C169.26 240.152 168.54 238.472 167.292 238.472ZM189.802 235.616H192.394V238.856C192.394 244.568 190.426 249.728 186.01 251.768L184.114 249.128C187.978 247.448 189.802 243.176 189.802 238.856V235.616ZM190.426 235.616H193.018V238.856C193.018 242.96 194.77 247.04 198.562 248.672L196.69 251.24C192.394 249.272 190.426 244.328 190.426 238.856V235.616ZM199.618 233.888H202.834V256.184H199.618V233.888ZM218.578 254.239C217.249 254.239 216.07 254.011 215.042 253.557C214.019 253.097 213.212 252.463 212.621 251.656C212.03 250.849 211.729 249.92 211.718 248.869H215.962C215.979 249.25 216.101 249.588 216.328 249.884C216.556 250.173 216.865 250.401 217.257 250.565C217.65 250.73 218.096 250.812 218.596 250.812C219.096 250.812 219.536 250.724 219.917 250.548C220.303 250.366 220.604 250.119 220.82 249.807C221.036 249.489 221.141 249.125 221.135 248.716C221.141 248.307 221.025 247.943 220.786 247.625C220.547 247.307 220.209 247.06 219.772 246.884C219.34 246.707 218.828 246.619 218.238 246.619H216.542V243.619H218.238C218.755 243.619 219.209 243.534 219.601 243.364C219.999 243.193 220.309 242.955 220.53 242.648C220.752 242.335 220.86 241.977 220.854 241.574C220.86 241.182 220.766 240.838 220.573 240.543C220.385 240.241 220.121 240.009 219.78 239.844C219.445 239.679 219.056 239.597 218.613 239.597C218.147 239.597 217.723 239.679 217.343 239.844C216.968 240.009 216.669 240.241 216.448 240.543C216.226 240.844 216.11 241.193 216.098 241.591H212.067C212.078 240.551 212.368 239.636 212.936 238.847C213.505 238.051 214.277 237.429 215.255 236.98C216.238 236.531 217.357 236.307 218.613 236.307C219.863 236.307 220.962 236.526 221.911 236.963C222.86 237.401 223.598 237.997 224.127 238.753C224.655 239.503 224.919 240.352 224.919 241.301C224.925 242.284 224.604 243.094 223.956 243.73C223.314 244.366 222.488 244.759 221.476 244.906V245.043C222.828 245.202 223.848 245.639 224.536 246.355C225.229 247.071 225.573 247.966 225.567 249.04C225.567 250.051 225.269 250.949 224.672 251.733C224.081 252.511 223.257 253.125 222.201 253.574C221.15 254.017 219.942 254.239 218.578 254.239Z" fill="white"/>
</svg>
