<svg width="483" height="547" viewBox="0 0 483 547" fill="none" xmlns="http://www.w3.org/2000/svg">
<path d="M199.791 392.98C198.471 392.98 197.271 392.85 196.191 392.59C195.131 392.35 194.221 392 193.461 391.54C192.721 391.1 192.151 390.57 191.751 389.95C191.351 389.35 191.151 388.7 191.151 388V386.98C191.151 386.26 191.351 385.6 191.751 385C192.151 384.38 192.721 383.85 193.461 383.41C194.221 382.97 195.131 382.63 196.191 382.39C197.271 382.13 198.471 382 199.791 382C201.111 382 202.301 382.13 203.361 382.39C204.421 382.63 205.321 382.98 206.061 383.44C206.821 383.88 207.401 384.4 207.801 385C208.221 385.6 208.431 386.26 208.431 386.98V388C208.431 388.7 208.231 389.35 207.831 389.95C207.431 390.55 206.851 391.07 206.091 391.51C205.351 391.97 204.441 392.33 203.361 392.59C202.301 392.85 201.111 392.98 199.791 392.98ZM199.761 371.5C199.681 371.66 199.511 371.85 199.251 372.07C198.991 372.27 198.681 372.48 198.321 372.7C197.961 372.9 197.591 373.1 197.211 373.3C196.831 373.5 196.481 373.67 196.161 373.81C195.141 374.25 194.151 374.66 193.191 375.04C192.251 375.4 191.301 375.75 190.341 376.09L189.231 373.69C190.431 373.29 191.481 372.92 192.381 372.58C193.281 372.22 194.141 371.86 194.961 371.5C195.961 371.06 196.761 370.56 197.361 370C197.981 369.44 198.291 368.84 198.291 368.2V368.02H190.401V365.56H209.181V368.02H201.261V368.2C201.261 368.84 201.561 369.43 202.161 369.97C202.761 370.49 203.571 370.99 204.591 371.47C205.391 371.85 206.251 372.22 207.171 372.58C208.091 372.92 209.141 373.29 210.321 373.69L209.241 376.09C208.241 375.73 207.271 375.37 206.331 375.01C205.391 374.63 204.441 374.23 203.481 373.81C203.161 373.67 202.801 373.5 202.401 373.3C202.001 373.1 201.621 372.9 201.261 372.7C200.901 372.48 200.581 372.27 200.301 372.07C200.041 371.85 199.871 371.66 199.791 371.5H199.761ZM212.481 377.86V380.38H187.101V377.86H198.291V374.68H201.291V377.86H212.481ZM199.791 384.43C198.951 384.43 198.181 384.51 197.481 384.67C196.781 384.81 196.181 385.01 195.681 385.27C195.181 385.51 194.791 385.8 194.511 386.14C194.231 386.46 194.091 386.8 194.091 387.16V387.82C194.091 388.18 194.231 388.52 194.511 388.84C194.791 389.18 195.181 389.47 195.681 389.71C196.181 389.97 196.781 390.17 197.481 390.31C198.181 390.47 198.951 390.55 199.791 390.55C200.631 390.55 201.401 390.47 202.101 390.31C202.801 390.17 203.401 389.97 203.901 389.71C204.401 389.47 204.791 389.18 205.071 388.84C205.351 388.52 205.491 388.18 205.491 387.82V387.16C205.491 386.8 205.351 386.46 205.071 386.14C204.791 385.8 204.401 385.51 203.901 385.27C203.401 385.01 202.801 384.81 202.101 384.67C201.401 384.51 200.631 384.43 199.791 384.43ZM236.245 381.55V392.2H219.385V381.55H222.325V384.37H233.305V381.55H236.245ZM222.685 380.38C221.485 380.38 220.465 380.24 219.625 379.96C218.805 379.68 218.145 379.33 217.645 378.91C217.145 378.49 216.785 378.02 216.565 377.5C216.345 376.98 216.235 376.48 216.235 376V375.22C216.235 374.74 216.345 374.24 216.565 373.72C216.785 373.2 217.145 372.73 217.645 372.31C218.145 371.87 218.805 371.52 219.625 371.26C220.465 370.98 221.485 370.84 222.685 370.84C223.885 370.84 224.895 370.98 225.715 371.26C226.555 371.54 227.225 371.89 227.725 372.31C228.225 372.73 228.585 373.2 228.805 373.72C229.025 374.24 229.135 374.74 229.135 375.22V376C229.135 376.48 229.025 376.98 228.805 377.5C228.585 378.02 228.225 378.49 227.725 378.91C227.225 379.33 226.555 379.68 225.715 379.96C224.895 380.24 223.885 380.38 222.685 380.38ZM240.175 373.69H236.245V380.2H233.305V364.54H236.245V371.11H240.175V373.69ZM230.605 369.91H214.735V367.42H221.215V364.18H224.155V367.42H230.605V369.91ZM233.305 389.68V386.86H222.325V389.68H233.305ZM222.685 378.01C223.385 378.01 223.965 377.94 224.425 377.8C224.885 377.64 225.255 377.45 225.535 377.23C225.815 377.01 226.015 376.78 226.135 376.54C226.255 376.28 226.315 376.04 226.315 375.82V375.4C226.315 375.2 226.255 374.97 226.135 374.71C226.035 374.45 225.845 374.21 225.565 373.99C225.285 373.77 224.905 373.59 224.425 373.45C223.965 373.29 223.385 373.21 222.685 373.21C221.985 373.21 221.395 373.29 220.915 373.45C220.455 373.59 220.085 373.77 219.805 373.99C219.525 374.21 219.325 374.45 219.205 374.71C219.105 374.97 219.055 375.2 219.055 375.4V375.82C219.055 376.04 219.115 376.28 219.235 376.54C219.355 376.78 219.555 377.01 219.835 377.23C220.115 377.45 220.485 377.64 220.945 377.8C221.405 377.94 221.985 378.01 222.685 378.01ZM270.93 376.27H252.84V365.29H255.78V368.53H267.99V365.26H270.93V376.27ZM260.76 386.38V381.25H249.21V378.73H274.59V381.25H263.76V386.38H260.76ZM255.84 389.32H271.47V391.9H252.87V384.04H255.84V389.32ZM255.78 373.78H267.99V370.93H255.78V373.78ZM284.975 374.05C284.895 374.31 284.655 374.67 284.255 375.13C283.855 375.59 283.425 376.03 282.965 376.45C282.345 377.03 281.625 377.67 280.805 378.37C279.985 379.05 279.175 379.71 278.375 380.35L276.605 378.25C277.565 377.51 278.475 376.77 279.335 376.03C280.215 375.29 280.915 374.66 281.435 374.14C281.815 373.76 282.125 373.4 282.365 373.06C282.625 372.7 282.825 372.34 282.965 371.98C283.125 371.6 283.235 371.2 283.295 370.78C283.355 370.36 283.385 369.89 283.385 369.37V365.68H286.385V369.25C286.385 369.71 286.395 370.13 286.415 370.51C286.455 370.87 286.525 371.21 286.625 371.53C286.725 371.85 286.875 372.17 287.075 372.49C287.295 372.79 287.585 373.1 287.945 373.42C288.645 374.06 289.405 374.72 290.225 375.4C291.065 376.06 291.935 376.71 292.835 377.35L291.095 379.42C290.315 378.84 289.565 378.26 288.845 377.68C288.145 377.1 287.435 376.51 286.715 375.91C286.255 375.53 285.875 375.18 285.575 374.86C285.295 374.54 285.105 374.27 285.005 374.05H284.975ZM281.285 382.09H299.495V392.47H296.525V384.64H281.285V382.09ZM296.555 380.65V372.94H291.005V370.39H296.555V364.54H299.495V380.65H296.555Z" fill="black"/>
<path d="M90.0019 475.84V482.89H75.3019V486.37H90.7219V488.17H73.2319V481.12H87.9319V477.67H73.0819V475.84H90.0019ZM90.0019 474.22H87.9019V460.66H90.0019V474.22ZM76.0219 468.49C75.8619 468.99 75.1219 469.81 73.8019 470.95C73.2819 471.41 72.6119 471.97 71.7919 472.63C70.9719 473.29 70.0519 473.99 69.0319 474.73L67.7719 473.2C68.7119 472.56 69.6019 471.91 70.4419 471.25C71.2819 470.57 72.0119 469.95 72.6319 469.39C73.0719 468.99 73.4319 468.62 73.7119 468.28C73.9919 467.94 74.2119 467.59 74.3719 467.23C74.5519 466.85 74.6719 466.45 74.7319 466.03C74.8119 465.61 74.8519 465.13 74.8519 464.59V461.35H77.0119V464.5C77.0119 465.04 77.0319 465.51 77.0719 465.91C77.1319 466.29 77.2319 466.64 77.3719 466.96C77.5319 467.28 77.7519 467.6 78.0319 467.92C78.3119 468.22 78.6919 468.57 79.1719 468.97C79.7319 469.43 80.4019 469.96 81.1819 470.56C81.9819 471.16 82.7819 471.72 83.5819 472.24L82.3819 473.77C81.6819 473.27 81.0119 472.78 80.3719 472.3C79.7319 471.82 79.1919 471.41 78.7519 471.07C78.0519 470.51 77.4519 470.01 76.9519 469.57C76.4519 469.11 76.1519 468.75 76.0519 468.49H76.0219ZM117.397 488.08H115.267V460.66H117.397V488.08ZM100.057 474.88C100.537 474.34 100.917 473.85 101.197 473.41C101.477 472.97 101.697 472.54 101.857 472.12C102.017 471.68 102.117 471.23 102.157 470.77C102.217 470.31 102.247 469.78 102.247 469.18V462.64H104.437V469.03C104.437 469.61 104.457 470.12 104.497 470.56C104.537 470.98 104.617 471.39 104.737 471.79C104.857 472.17 105.037 472.55 105.277 472.93C105.517 473.31 105.837 473.73 106.237 474.19C106.837 474.89 107.567 475.68 108.427 476.56C109.307 477.44 110.317 478.39 111.457 479.41L110.077 480.85C109.117 479.95 108.227 479.1 107.407 478.3C106.607 477.48 105.907 476.75 105.307 476.11C104.847 475.63 104.427 475.17 104.047 474.73C103.687 474.29 103.467 473.97 103.387 473.77H103.357C103.337 473.87 103.257 474.03 103.117 474.25C102.977 474.45 102.797 474.68 102.577 474.94C102.377 475.2 102.157 475.48 101.917 475.78C101.677 476.06 101.447 476.32 101.227 476.56C100.967 476.84 100.647 477.17 100.267 477.55C99.9066 477.93 99.5166 478.33 99.0966 478.75C98.6766 479.17 98.2366 479.6 97.7766 480.04C97.3166 480.48 96.8666 480.89 96.4266 481.27L95.0166 479.8C96.0166 478.92 96.9266 478.08 97.7466 477.28C98.5866 476.48 99.3566 475.68 100.057 474.88ZM122.831 475.75C124.431 475.05 125.791 474.43 126.911 473.89C128.051 473.33 129.001 472.82 129.761 472.36C130.541 471.88 131.151 471.43 131.591 471.01C132.051 470.57 132.391 470.12 132.611 469.66C132.851 469.2 133.001 468.71 133.061 468.19C133.141 467.67 133.181 467.08 133.181 466.42V464.32H123.761V462.46H135.251V466.54C135.251 467.36 135.201 468.1 135.101 468.76C135.001 469.4 134.811 470 134.531 470.56C134.251 471.12 133.841 471.66 133.301 472.18C132.781 472.7 132.091 473.23 131.231 473.77C130.391 474.31 129.351 474.88 128.111 475.48C126.871 476.08 125.401 476.75 123.701 477.49L122.831 475.75ZM143.561 468.67H147.761V470.53H143.561V480.28H141.461V460.66H143.561V468.67ZM129.281 485.89H144.401V487.75H127.151V478.81H129.281V485.89ZM168.586 463.06V464.95H160.306V470.68H166.966V472.54H160.306V478.96H162.466C163.106 478.96 163.726 478.96 164.326 478.96C164.946 478.94 165.566 478.91 166.186 478.87C166.826 478.83 167.476 478.78 168.136 478.72C168.816 478.66 169.536 478.57 170.296 478.45L170.536 480.31C168.976 480.55 167.496 480.7 166.096 480.76C164.716 480.82 163.366 480.85 162.046 480.85H158.176V463.06H168.586ZM172.966 470.56V461.23H175.066V486.73H172.966V472.48H168.766V470.56H172.966ZM180.406 488.08H178.306V460.66H180.406V488.08ZM196.761 470.56C196.641 470.86 196.291 471.27 195.711 471.79C195.151 472.29 194.331 472.9 193.251 473.62C192.351 474.22 191.321 474.87 190.161 475.57C189.021 476.25 187.911 476.88 186.831 477.46L185.691 475.78C187.011 475.1 188.221 474.44 189.321 473.8C190.421 473.14 191.321 472.57 192.021 472.09C192.761 471.59 193.371 471.14 193.851 470.74C194.331 470.34 194.701 469.92 194.961 469.48C195.241 469.02 195.431 468.52 195.531 467.98C195.631 467.42 195.681 466.73 195.681 465.91V462.61H197.871V465.91C197.871 466.73 197.921 467.42 198.021 467.98C198.121 468.52 198.301 469.02 198.561 469.48C198.841 469.92 199.211 470.34 199.671 470.74C200.151 471.14 200.761 471.59 201.501 472.09C202.201 472.57 203.091 473.13 204.171 473.77C205.271 474.41 206.471 475.07 207.771 475.75L206.661 477.4C205.581 476.82 204.471 476.19 203.331 475.51C202.211 474.83 201.201 474.19 200.301 473.59C199.221 472.87 198.401 472.26 197.841 471.76C197.281 471.26 196.931 470.86 196.791 470.56H196.761ZM209.391 482.38V484.21H184.191V482.38H209.391ZM233.335 477.13H215.185V462.91H233.095V464.71H217.255V469.12H232.945V470.92H217.255V475.33H233.335V477.13ZM236.695 482.38V484.21H211.495V482.38H236.695ZM257.94 463.27V465.19H249.72V478.69H251.37C252.19 478.69 252.96 478.68 253.68 478.66C254.4 478.64 255.1 478.61 255.78 478.57C256.46 478.53 257.13 478.47 257.79 478.39C258.45 478.31 259.12 478.21 259.8 478.09L260.04 479.98C258.6 480.22 257.2 480.39 255.84 480.49C254.5 480.57 253.07 480.61 251.55 480.61H247.59V463.27H257.94ZM262.26 470.5V461.23H264.36V486.73H262.26V472.42H256.32V470.5H262.26ZM269.76 488.08H267.66V460.66H269.76V488.08ZM296.225 488.08H294.095V460.66H296.225V488.08ZM288.665 473.38C288.665 475.9 288.065 477.86 286.865 479.26C285.685 480.66 284.025 481.36 281.885 481.36C279.745 481.36 278.075 480.66 276.875 479.26C275.695 477.86 275.105 475.9 275.105 473.38V470.53C275.105 468.01 275.695 466.06 276.875 464.68C278.075 463.28 279.745 462.58 281.885 462.58C284.025 462.58 285.685 463.28 286.865 464.68C288.065 466.08 288.665 468.04 288.665 470.56V473.38ZM286.595 470.92C286.595 469.78 286.475 468.81 286.235 468.01C286.015 467.21 285.695 466.56 285.275 466.06C284.875 465.54 284.385 465.16 283.805 464.92C283.225 464.68 282.585 464.56 281.885 464.56C281.185 464.56 280.545 464.68 279.965 464.92C279.385 465.16 278.885 465.54 278.465 466.06C278.065 466.56 277.745 467.21 277.505 468.01C277.285 468.81 277.175 469.78 277.175 470.92V473.02C277.175 474.16 277.285 475.14 277.505 475.96C277.745 476.76 278.065 477.42 278.465 477.94C278.885 478.44 279.385 478.81 279.965 479.05C280.545 479.29 281.185 479.41 281.885 479.41C282.585 479.41 283.225 479.29 283.805 479.05C284.385 478.81 284.875 478.44 285.275 477.94C285.695 477.42 286.015 476.76 286.235 475.96C286.475 475.14 286.595 474.16 286.595 473.02V470.92ZM315.399 462.88V464.77H305.019V470.83H314.349V472.72H305.019V479.14H308.859C310.259 479.14 311.719 479.1 313.239 479.02C314.759 478.92 316.329 478.75 317.949 478.51L318.189 480.4C316.569 480.66 314.919 480.84 313.239 480.94C311.559 481.02 309.919 481.06 308.319 481.06H302.889V462.88H315.399ZM321.669 470.74V460.66H323.769V488.08H321.669V472.66H316.119V470.74H321.669ZM349.664 477.91V483.94H334.034V486.46H350.474V488.23H331.964V482.2H347.594V479.68H331.814V477.91H349.664ZM353.414 473.74V475.54H328.214V473.74H353.414ZM331.904 461.38H349.514V467.29H334.004V469.69H350.114V471.46H331.994V465.55H347.504V463.15H331.904V461.38ZM374.539 475.27V472.48H366.799V461.68H384.349V463.45H368.809V466.21H384.199V467.95H368.809V470.71H384.499V472.48H376.639V475.27H388.219V477.07H363.019V475.27H374.539ZM375.619 478.87C376.739 478.87 377.809 478.96 378.829 479.14C379.869 479.32 380.779 479.6 381.559 479.98C382.339 480.36 382.959 480.83 383.419 481.39C383.899 481.95 384.139 482.62 384.139 483.4V484.3C384.139 485.08 383.899 485.75 383.419 486.31C382.959 486.87 382.339 487.34 381.559 487.72C380.779 488.1 379.869 488.38 378.829 488.56C377.809 488.74 376.739 488.83 375.619 488.83C374.499 488.83 373.419 488.74 372.379 488.56C371.359 488.38 370.459 488.1 369.679 487.72C368.899 487.34 368.269 486.87 367.789 486.31C367.329 485.75 367.099 485.08 367.099 484.3V483.4C367.099 482.62 367.329 481.95 367.789 481.39C368.269 480.81 368.899 480.34 369.679 479.98C370.459 479.6 371.359 479.32 372.379 479.14C373.419 478.96 374.499 478.87 375.619 478.87ZM375.619 487.03C376.419 487.03 377.209 486.97 377.989 486.85C378.769 486.73 379.459 486.55 380.059 486.31C380.679 486.09 381.169 485.8 381.529 485.44C381.909 485.08 382.099 484.66 382.099 484.18V483.52C382.099 483.04 381.909 482.63 381.529 482.29C381.169 481.93 380.679 481.63 380.059 481.39C379.459 481.15 378.769 480.97 377.989 480.85C377.209 480.73 376.419 480.67 375.619 480.67C374.799 480.67 373.999 480.73 373.219 480.85C372.459 480.97 371.769 481.15 371.149 481.39C370.549 481.63 370.059 481.93 369.679 482.29C369.319 482.63 369.139 483.04 369.139 483.52V484.18C369.139 484.66 369.319 485.08 369.679 485.44C370.059 485.8 370.549 486.09 371.149 486.31C371.769 486.55 372.459 486.73 373.219 486.85C373.999 486.97 374.799 487.03 375.619 487.03ZM408.203 471.16H412.043V460.66H414.143V488.08H412.043V473.05H408.203V486.73H406.103V461.23H408.203V471.16ZM397.433 481.09C396.473 481.09 395.623 480.94 394.883 480.64C394.143 480.32 393.513 479.91 392.993 479.41C392.493 478.91 392.113 478.34 391.853 477.7C391.593 477.06 391.463 476.4 391.463 475.72V474.46C391.463 473.78 391.593 473.12 391.853 472.48C392.113 471.84 392.493 471.27 392.993 470.77C393.513 470.27 394.143 469.87 394.883 469.57C395.623 469.25 396.473 469.09 397.433 469.09C398.393 469.09 399.243 469.25 399.983 469.57C400.723 469.87 401.343 470.27 401.843 470.77C402.363 471.27 402.753 471.84 403.013 472.48C403.273 473.12 403.403 473.78 403.403 474.46V475.72C403.403 476.38 403.273 477.04 403.013 477.7C402.753 478.34 402.363 478.91 401.843 479.41C401.343 479.91 400.723 480.32 399.983 480.64C399.243 480.94 398.393 481.09 397.433 481.09ZM397.433 470.95C396.833 470.95 396.283 471.06 395.783 471.28C395.303 471.48 394.883 471.75 394.523 472.09C394.183 472.43 393.923 472.82 393.743 473.26C393.563 473.7 393.473 474.15 393.473 474.61V475.57C393.473 476.03 393.563 476.48 393.743 476.92C393.923 477.36 394.183 477.75 394.523 478.09C394.883 478.43 395.303 478.71 395.783 478.93C396.283 479.13 396.833 479.23 397.433 479.23C398.033 479.23 398.573 479.13 399.053 478.93C399.553 478.71 399.973 478.43 400.313 478.09C400.673 477.75 400.943 477.36 401.123 476.92C401.303 476.48 401.393 476.03 401.393 475.57V474.61C401.393 474.15 401.303 473.7 401.123 473.26C400.943 472.82 400.673 472.43 400.313 472.09C399.973 471.75 399.553 471.48 399.053 471.28C398.573 471.06 398.033 470.95 397.433 470.95ZM390.413 465.46H396.353V461.44H398.453V465.46H404.003V467.32H390.413V465.46ZM50.8304 507.17C50.8304 507.79 50.6804 508.39 50.3804 508.97C50.1004 509.55 49.6904 510.07 49.1504 510.53C48.6104 510.97 47.9504 511.33 47.1704 511.61C46.4104 511.87 45.5404 512 44.5604 512C43.5804 512 42.7004 511.87 41.9204 511.61C41.1604 511.33 40.5104 510.97 39.9704 510.53C39.4304 510.07 39.0104 509.55 38.7104 508.97C38.4304 508.39 38.2904 507.79 38.2904 507.17V506.03C38.2904 505.41 38.4304 504.81 38.7104 504.23C39.0104 503.65 39.4304 503.14 39.9704 502.7C40.5104 502.24 41.1604 501.88 41.9204 501.62C42.7004 501.34 43.5804 501.2 44.5604 501.2C45.5404 501.2 46.4104 501.34 47.1704 501.62C47.9504 501.88 48.6104 502.24 49.1504 502.7C49.6904 503.14 50.1004 503.65 50.3804 504.23C50.6804 504.81 50.8304 505.41 50.8304 506.03V507.17ZM57.1904 501.89V494.66H59.2604V514.61H57.1904V509.6H52.5404V507.77H57.1904V503.72H52.5404V501.89H57.1904ZM44.5604 510.2C45.2204 510.2 45.8104 510.11 46.3304 509.93C46.8704 509.73 47.3204 509.48 47.6804 509.18C48.0604 508.88 48.3404 508.55 48.5204 508.19C48.7204 507.81 48.8204 507.44 48.8204 507.08V506.12C48.8204 505.76 48.7204 505.4 48.5204 505.04C48.3404 504.66 48.0604 504.32 47.6804 504.02C47.3204 503.72 46.8704 503.48 46.3304 503.3C45.8104 503.1 45.2204 503 44.5604 503C43.9004 503 43.3004 503.1 42.7604 503.3C42.2404 503.48 41.7904 503.72 41.4104 504.02C41.0504 504.32 40.7704 504.66 40.5704 505.04C40.3904 505.4 40.3004 505.76 40.3004 506.12V507.08C40.3004 507.44 40.3904 507.81 40.5704 508.19C40.7704 508.55 41.0504 508.88 41.4104 509.18C41.7904 509.48 42.2404 509.73 42.7604 509.93C43.3004 510.11 43.9004 510.2 44.5604 510.2ZM44.5904 519.89H59.9504V521.75H42.4604V514.16H44.5904V519.89ZM45.5804 497.9H52.6304V499.73H36.7304V497.9H43.4804V494.36H45.5804V497.9ZM81.3751 504.83H85.3051V494.66H87.4051V522.08H85.3051V506.72H81.3751V520.73H79.2751V495.23H81.3751V504.83ZM64.6051 497.36H76.5751V499.22H71.7451V503.3C71.7451 504 71.7651 504.6 71.8051 505.1C71.8651 505.6 71.9551 506.06 72.0751 506.48C72.2151 506.9 72.4051 507.31 72.6451 507.71C72.8851 508.09 73.1951 508.52 73.5751 509C74.0751 509.62 74.6751 510.32 75.3751 511.1C76.0751 511.86 76.8451 512.66 77.6851 513.5L76.3051 514.85C75.9651 514.53 75.6151 514.18 75.2551 513.8C74.9151 513.4 74.5651 513.01 74.2051 512.63C73.8651 512.25 73.5351 511.88 73.2151 511.52C72.9151 511.16 72.6351 510.84 72.3751 510.56C71.9351 510.06 71.5651 509.6 71.2651 509.18C70.9851 508.74 70.8151 508.44 70.7551 508.28H70.7251C70.6851 508.44 70.5351 508.72 70.2751 509.12C70.0351 509.52 69.6851 509.99 69.2251 510.53C68.6651 511.17 68.0351 511.88 67.3351 512.66C66.6351 513.42 65.8051 514.27 64.8451 515.21L63.4351 513.8C63.8751 513.38 64.3151 512.95 64.7551 512.51C65.1951 512.07 65.6051 511.64 65.9851 511.22C66.3851 510.8 66.7451 510.41 67.0651 510.05C67.4051 509.67 67.6851 509.33 67.9051 509.03C68.2651 508.57 68.5551 508.14 68.7751 507.74C69.0151 507.34 69.1951 506.92 69.3151 506.48C69.4351 506.04 69.5151 505.57 69.5551 505.07C69.6151 504.55 69.6451 503.96 69.6451 503.3V499.22H64.6051V497.36ZM119.84 504.89H124.43V506.78H119.84V522.08H117.71V494.66H119.84V504.89ZM103.4 508.82C103.88 508.28 104.26 507.79 104.54 507.35C104.82 506.91 105.04 506.48 105.2 506.06C105.36 505.62 105.46 505.17 105.5 504.71C105.56 504.25 105.59 503.72 105.59 503.12V496.67H107.78V502.97C107.78 503.55 107.8 504.06 107.84 504.5C107.88 504.92 107.96 505.33 108.08 505.73C108.2 506.11 108.38 506.49 108.62 506.87C108.86 507.25 109.18 507.67 109.58 508.13C110.18 508.83 110.91 509.62 111.77 510.5C112.65 511.38 113.66 512.33 114.8 513.35L113.42 514.79C112.46 513.89 111.57 513.04 110.75 512.24C109.95 511.42 109.25 510.69 108.65 510.05C108.19 509.57 107.77 509.11 107.39 508.67C107.03 508.23 106.81 507.91 106.73 507.71H106.7C106.68 507.81 106.6 507.97 106.46 508.19C106.32 508.39 106.14 508.62 105.92 508.88C105.72 509.14 105.5 509.42 105.26 509.72C105.02 510 104.79 510.26 104.57 510.5C104.31 510.78 103.99 511.11 103.61 511.49C103.25 511.87 102.86 512.27 102.44 512.69C102.02 513.11 101.58 513.54 101.12 513.98C100.66 514.42 100.21 514.83 99.7698 515.21L98.3598 513.74C99.3598 512.86 100.27 512.02 101.09 511.22C101.93 510.42 102.7 509.62 103.4 508.82ZM132.804 508.7V504.59C131.904 504.19 131.194 503.69 130.674 503.09C130.154 502.47 129.894 501.74 129.894 500.9V499.88C129.894 499.1 130.124 498.42 130.584 497.84C131.064 497.24 131.694 496.74 132.474 496.34C133.274 495.94 134.194 495.64 135.234 495.44C136.274 495.24 137.364 495.14 138.504 495.14C139.644 495.14 140.734 495.24 141.774 495.44C142.814 495.64 143.724 495.94 144.504 496.34C145.304 496.74 145.934 497.24 146.394 497.84C146.874 498.42 147.114 499.1 147.114 499.88V500.9C147.114 501.74 146.854 502.47 146.334 503.09C145.814 503.69 145.114 504.19 144.234 504.59V508.7H151.104V510.5H125.904V508.7H132.804ZM138.504 522.8C137.264 522.8 136.114 522.68 135.054 522.44C134.014 522.22 133.114 521.9 132.354 521.48C131.594 521.06 130.994 520.55 130.554 519.95C130.114 519.37 129.894 518.73 129.894 518.03V517.01C129.894 516.31 130.114 515.67 130.554 515.09C130.994 514.49 131.594 513.98 132.354 513.56C133.114 513.14 134.014 512.82 135.054 512.6C136.114 512.36 137.264 512.24 138.504 512.24C139.724 512.24 140.864 512.36 141.924 512.6C142.984 512.82 143.894 513.14 144.654 513.56C145.414 513.98 146.014 514.49 146.454 515.09C146.894 515.67 147.114 516.31 147.114 517.01V518.03C147.114 518.73 146.894 519.37 146.454 519.95C146.014 520.55 145.414 521.06 144.654 521.48C143.894 521.9 142.984 522.22 141.924 522.44C140.864 522.68 139.724 522.8 138.504 522.8ZM138.504 514.04C137.644 514.04 136.814 514.12 136.014 514.28C135.234 514.42 134.534 514.63 133.914 514.91C133.314 515.19 132.834 515.53 132.474 515.93C132.114 516.31 131.934 516.73 131.934 517.19V517.85C131.934 518.31 132.114 518.73 132.474 519.11C132.834 519.51 133.314 519.85 133.914 520.13C134.534 520.41 135.234 520.62 136.014 520.76C136.814 520.92 137.644 521 138.504 521C139.364 521 140.184 520.92 140.964 520.76C141.764 520.62 142.464 520.41 143.064 520.13C143.684 519.85 144.174 519.51 144.534 519.11C144.894 518.73 145.074 518.31 145.074 517.85V517.19C145.074 516.73 144.894 516.31 144.534 515.93C144.174 515.53 143.684 515.19 143.064 514.91C142.464 514.63 141.764 514.42 140.964 514.28C140.184 514.12 139.364 514.04 138.504 514.04ZM138.504 496.94C137.684 496.94 136.874 497.01 136.074 497.15C135.294 497.29 134.594 497.5 133.974 497.78C133.354 498.04 132.854 498.36 132.474 498.74C132.114 499.12 131.934 499.55 131.934 500.03V500.75C131.934 501.23 132.114 501.66 132.474 502.04C132.854 502.42 133.354 502.75 133.974 503.03C134.594 503.29 135.294 503.49 136.074 503.63C136.874 503.77 137.684 503.84 138.504 503.84C139.324 503.84 140.124 503.77 140.904 503.63C141.704 503.49 142.404 503.29 143.004 503.03C143.624 502.75 144.124 502.42 144.504 502.04C144.884 501.66 145.074 501.23 145.074 500.75V500.03C145.074 499.55 144.884 499.12 144.504 498.74C144.124 498.36 143.624 498.04 143.004 497.78C142.404 497.5 141.704 497.29 140.904 497.15C140.124 497.01 139.324 496.94 138.504 496.94ZM138.504 505.64C137.184 505.64 135.974 505.52 134.874 505.28V508.7H142.164V505.28C141.024 505.52 139.804 505.64 138.504 505.64ZM168.659 499.07H162.449V503.36C162.449 503.94 162.469 504.44 162.509 504.86C162.549 505.28 162.629 505.68 162.749 506.06C162.869 506.44 163.039 506.82 163.259 507.2C163.499 507.56 163.819 507.97 164.219 508.43C164.799 509.11 165.519 509.88 166.379 510.74C167.259 511.6 168.259 512.53 169.379 513.53L167.999 514.94C166.959 513.98 166.059 513.12 165.299 512.36C164.559 511.6 163.889 510.9 163.289 510.26C162.849 509.8 162.449 509.36 162.089 508.94C161.729 508.52 161.509 508.21 161.429 508.01H161.399C161.359 508.15 161.259 508.33 161.099 508.55C160.959 508.77 160.779 509.01 160.559 509.27C160.359 509.53 160.139 509.8 159.899 510.08C159.659 510.34 159.429 510.59 159.209 510.83C159.009 511.05 158.739 511.34 158.399 511.7C158.059 512.04 157.679 512.42 157.259 512.84C156.859 513.24 156.419 513.67 155.939 514.13C155.479 514.57 155.029 514.98 154.589 515.36L153.179 513.95C154.139 513.11 155.029 512.28 155.849 511.46C156.689 510.64 157.459 509.84 158.159 509.06C158.639 508.52 159.019 508.04 159.299 507.62C159.579 507.18 159.789 506.75 159.929 506.33C160.089 505.91 160.189 505.48 160.229 505.04C160.289 504.6 160.319 504.09 160.319 503.51V499.07H154.019V497.21H168.659V499.07ZM174.479 505.13H179.039V507.02H174.479V522.08H172.349V494.66H174.479V505.13ZM203.614 522.08H201.484V494.66H203.614V522.08ZM199.564 515.36C198.324 515.48 197.094 515.59 195.874 515.69C194.674 515.77 193.364 515.84 191.944 515.9C190.544 515.96 188.974 516 187.234 516.02C185.514 516.04 183.504 516.05 181.204 516.05V514.19C183.384 514.19 185.334 514.18 187.054 514.16C188.794 514.14 190.384 514.11 191.824 514.07C193.264 514.01 194.594 513.94 195.814 513.86C197.034 513.76 198.224 513.65 199.384 513.53L199.564 515.36ZM189.784 509.51C188.804 509.51 187.884 509.36 187.024 509.06C186.164 508.76 185.404 508.35 184.744 507.83C184.104 507.31 183.594 506.7 183.214 506C182.834 505.3 182.644 504.54 182.644 503.72V502.28C182.644 501.46 182.834 500.7 183.214 500C183.594 499.3 184.104 498.69 184.744 498.17C185.404 497.65 186.164 497.24 187.024 496.94C187.884 496.64 188.804 496.49 189.784 496.49C190.764 496.49 191.684 496.64 192.544 496.94C193.404 497.24 194.154 497.65 194.794 498.17C195.454 498.69 195.974 499.31 196.354 500.03C196.734 500.73 196.924 501.48 196.924 502.28V503.72C196.924 504.54 196.734 505.3 196.354 506C195.974 506.7 195.454 507.31 194.794 507.83C194.154 508.35 193.404 508.76 192.544 509.06C191.684 509.36 190.764 509.51 189.784 509.51ZM189.784 498.35C189.124 498.35 188.484 498.46 187.864 498.68C187.264 498.88 186.724 499.17 186.244 499.55C185.764 499.91 185.384 500.34 185.104 500.84C184.824 501.32 184.684 501.84 184.684 502.4V503.6C184.684 504.16 184.824 504.69 185.104 505.19C185.384 505.67 185.764 506.1 186.244 506.48C186.724 506.84 187.264 507.13 187.864 507.35C188.484 507.55 189.124 507.65 189.784 507.65C190.444 507.65 191.074 507.55 191.674 507.35C192.294 507.13 192.844 506.84 193.324 506.48C193.804 506.1 194.184 505.67 194.464 505.19C194.744 504.69 194.884 504.16 194.884 503.6V502.4C194.884 501.84 194.744 501.32 194.464 500.84C194.184 500.34 193.804 499.91 193.324 499.55C192.844 499.17 192.294 498.88 191.674 498.68C191.074 498.46 190.444 498.35 189.784 498.35ZM236.739 495.86V505.52H219.099V495.86H236.739ZM221.169 503.69H234.669V497.66H221.169V503.69ZM240.519 508.64V510.44H229.269V516.23H227.169V510.44H215.319V508.64H240.519ZM221.169 519.89H237.369V521.75H219.039V513.59H221.169V519.89ZM260.503 505.16H264.343V494.66H266.443V522.08H264.343V507.05H260.503V520.73H258.403V495.23H260.503V505.16ZM249.733 515.09C248.773 515.09 247.923 514.94 247.183 514.64C246.443 514.32 245.813 513.91 245.293 513.41C244.793 512.91 244.413 512.34 244.153 511.7C243.893 511.06 243.763 510.4 243.763 509.72V508.46C243.763 507.78 243.893 507.12 244.153 506.48C244.413 505.84 244.793 505.27 245.293 504.77C245.813 504.27 246.443 503.87 247.183 503.57C247.923 503.25 248.773 503.09 249.733 503.09C250.693 503.09 251.543 503.25 252.283 503.57C253.023 503.87 253.643 504.27 254.143 504.77C254.663 505.27 255.053 505.84 255.313 506.48C255.573 507.12 255.703 507.78 255.703 508.46V509.72C255.703 510.38 255.573 511.04 255.313 511.7C255.053 512.34 254.663 512.91 254.143 513.41C253.643 513.91 253.023 514.32 252.283 514.64C251.543 514.94 250.693 515.09 249.733 515.09ZM249.733 504.95C249.133 504.95 248.583 505.06 248.083 505.28C247.603 505.48 247.183 505.75 246.823 506.09C246.483 506.43 246.223 506.82 246.043 507.26C245.863 507.7 245.773 508.15 245.773 508.61V509.57C245.773 510.03 245.863 510.48 246.043 510.92C246.223 511.36 246.483 511.75 246.823 512.09C247.183 512.43 247.603 512.71 248.083 512.93C248.583 513.13 249.133 513.23 249.733 513.23C250.333 513.23 250.873 513.13 251.353 512.93C251.853 512.71 252.273 512.43 252.613 512.09C252.973 511.75 253.243 511.36 253.423 510.92C253.603 510.48 253.693 510.03 253.693 509.57V508.61C253.693 508.15 253.603 507.7 253.423 507.26C253.243 506.82 252.973 506.43 252.613 506.09C252.273 505.75 251.853 505.48 251.353 505.28C250.873 505.06 250.333 504.95 249.733 504.95ZM242.713 499.46H248.653V495.44H250.753V499.46H256.303V501.32H242.713V499.46ZM273.768 508.07C275.048 508.07 276.258 508.07 277.398 508.07C278.538 508.05 279.618 508.03 280.638 508.01C281.658 507.97 282.638 507.92 283.578 507.86C284.518 507.78 285.448 507.69 286.368 507.59L286.578 509.42C285.658 509.52 284.718 509.61 283.758 509.69C282.798 509.75 281.738 509.8 280.578 509.84C279.438 509.88 278.148 509.91 276.708 509.93C275.268 509.93 273.598 509.93 271.698 509.93V502.04H280.788V497.84H271.698V495.98H282.858V503.84H273.768V508.07ZM290.688 498.5V494.66H292.758V511.4H290.688V505.16H284.958V503.33H290.688V500.33H284.958V498.5H290.688ZM275.118 513.02H292.758V522.32H290.688V514.88H275.118V513.02ZM322.433 506.93V508.73H297.233V506.93H322.433ZM318.413 500.36C318.413 501.06 318.193 501.69 317.753 502.25C317.313 502.81 316.703 503.29 315.923 503.69C315.163 504.07 314.253 504.37 313.193 504.59C312.153 504.79 311.033 504.89 309.833 504.89C308.633 504.89 307.503 504.79 306.443 504.59C305.403 504.37 304.493 504.07 303.713 503.69C302.953 503.29 302.353 502.81 301.913 502.25C301.473 501.69 301.253 501.06 301.253 500.36V499.46C301.253 498.74 301.473 498.1 301.913 497.54C302.353 496.98 302.953 496.51 303.713 496.13C304.493 495.73 305.403 495.43 306.443 495.23C307.503 495.03 308.633 494.93 309.833 494.93C311.033 494.93 312.153 495.04 313.193 495.26C314.253 495.46 315.163 495.76 315.923 496.16C316.703 496.54 317.313 497.01 317.753 497.57C318.193 498.13 318.413 498.76 318.413 499.46V500.36ZM303.323 500.27C303.323 500.67 303.493 501.05 303.833 501.41C304.173 501.75 304.633 502.05 305.213 502.31C305.813 502.57 306.503 502.77 307.283 502.91C308.083 503.05 308.933 503.12 309.833 503.12C310.733 503.12 311.573 503.05 312.353 502.91C313.153 502.77 313.843 502.57 314.423 502.31C315.023 502.05 315.493 501.75 315.833 501.41C316.173 501.05 316.343 500.67 316.343 500.27V499.55C316.343 499.15 316.173 498.78 315.833 498.44C315.493 498.08 315.023 497.78 314.423 497.54C313.843 497.28 313.153 497.08 312.353 496.94C311.573 496.78 310.733 496.7 309.833 496.7C308.933 496.7 308.083 496.78 307.283 496.94C306.503 497.08 305.813 497.28 305.213 497.54C304.633 497.78 304.173 498.08 303.833 498.44C303.493 498.78 303.323 499.15 303.323 499.55V500.27ZM318.683 511.13V517.52H303.083V520.43H319.493V522.2H301.013V515.78H316.613V512.9H300.863V511.13H318.683ZM353.487 505.88H335.787V495.44H337.857V498.86H351.417V495.44H353.487V505.88ZM357.237 509.06V510.86H345.987V516.38H343.887V510.86H332.037V509.06H357.237ZM337.887 519.89H354.087V521.75H335.757V513.95H337.887V519.89ZM337.857 504.05H351.417V500.63H337.857V504.05ZM367.712 503.66C367.672 503.92 367.432 504.28 366.992 504.74C366.572 505.18 366.032 505.72 365.372 506.36C364.852 506.86 364.182 507.46 363.362 508.16C362.562 508.84 361.742 509.51 360.902 510.17L359.582 508.64C360.402 508.04 361.242 507.38 362.102 506.66C362.982 505.92 363.762 505.21 364.442 504.53C364.922 504.05 365.292 503.63 365.552 503.27C365.832 502.91 366.042 502.56 366.182 502.22C366.342 501.86 366.442 501.48 366.482 501.08C366.522 500.66 366.542 500.17 366.542 499.61V495.8H368.702V499.55C368.702 500.11 368.722 500.59 368.762 500.99C368.802 501.37 368.892 501.73 369.032 502.07C369.192 502.41 369.412 502.76 369.692 503.12C369.992 503.46 370.392 503.85 370.892 504.29C371.632 504.93 372.382 505.56 373.142 506.18C373.902 506.78 374.612 507.32 375.272 507.8L374.012 509.27C373.212 508.67 372.482 508.11 371.822 507.59C371.182 507.05 370.602 506.56 370.082 506.12C368.662 504.92 367.882 504.1 367.742 503.66H367.712ZM364.382 512.18H382.022V522.29H379.922V514.04H364.382V512.18ZM379.922 500.75V494.66H382.022V510.56H379.922V502.61H373.742V500.75H379.922ZM404.527 505.16H408.367V494.66H410.467V522.08H408.367V507.05H404.527V520.73H402.427V495.23H404.527V505.16ZM393.757 515.09C392.797 515.09 391.947 514.94 391.207 514.64C390.467 514.32 389.837 513.91 389.317 513.41C388.817 512.91 388.437 512.34 388.177 511.7C387.917 511.06 387.787 510.4 387.787 509.72V508.46C387.787 507.78 387.917 507.12 388.177 506.48C388.437 505.84 388.817 505.27 389.317 504.77C389.837 504.27 390.467 503.87 391.207 503.57C391.947 503.25 392.797 503.09 393.757 503.09C394.717 503.09 395.567 503.25 396.307 503.57C397.047 503.87 397.667 504.27 398.167 504.77C398.687 505.27 399.077 505.84 399.337 506.48C399.597 507.12 399.727 507.78 399.727 508.46V509.72C399.727 510.38 399.597 511.04 399.337 511.7C399.077 512.34 398.687 512.91 398.167 513.41C397.667 513.91 397.047 514.32 396.307 514.64C395.567 514.94 394.717 515.09 393.757 515.09ZM393.757 504.95C393.157 504.95 392.607 505.06 392.107 505.28C391.627 505.48 391.207 505.75 390.847 506.09C390.507 506.43 390.247 506.82 390.067 507.26C389.887 507.7 389.797 508.15 389.797 508.61V509.57C389.797 510.03 389.887 510.48 390.067 510.92C390.247 511.36 390.507 511.75 390.847 512.09C391.207 512.43 391.627 512.71 392.107 512.93C392.607 513.13 393.157 513.23 393.757 513.23C394.357 513.23 394.897 513.13 395.377 512.93C395.877 512.71 396.297 512.43 396.637 512.09C396.997 511.75 397.267 511.36 397.447 510.92C397.627 510.48 397.717 510.03 397.717 509.57V508.61C397.717 508.15 397.627 507.7 397.447 507.26C397.267 506.82 396.997 506.43 396.637 506.09C396.297 505.75 395.877 505.48 395.377 505.28C394.897 505.06 394.357 504.95 393.757 504.95ZM386.737 499.46H392.677V495.44H394.777V499.46H400.327V501.32H386.737V499.46ZM417.521 502.76C417.521 501.78 417.761 500.9 418.241 500.12C418.721 499.32 419.371 498.64 420.191 498.08C421.011 497.52 421.961 497.09 423.041 496.79C424.141 496.47 425.311 496.31 426.551 496.31C427.771 496.31 428.921 496.47 430.001 496.79C431.101 497.09 432.061 497.52 432.881 498.08C433.721 498.64 434.381 499.32 434.861 500.12C435.341 500.9 435.581 501.78 435.581 502.76V504.23C435.581 505.29 435.301 506.24 434.741 507.08C434.181 507.92 433.431 508.62 432.491 509.18V516.38H439.151V518.21H413.951V516.38H420.611V509.18C419.651 508.62 418.891 507.93 418.331 507.11C417.791 506.27 417.521 505.31 417.521 504.23V502.76ZM426.551 498.26C425.571 498.26 424.661 498.38 423.821 498.62C422.981 498.84 422.251 499.15 421.631 499.55C421.011 499.95 420.521 500.43 420.161 500.99C419.801 501.55 419.621 502.17 419.621 502.85V504.14C419.621 504.82 419.801 505.44 420.161 506C420.521 506.56 421.011 507.05 421.631 507.47C422.251 507.87 422.981 508.18 423.821 508.4C424.661 508.62 425.571 508.73 426.551 508.73C427.511 508.73 428.411 508.62 429.251 508.4C430.111 508.18 430.851 507.87 431.471 507.47C432.091 507.05 432.581 506.56 432.941 506C433.301 505.44 433.481 504.82 433.481 504.14V502.85C433.481 502.17 433.301 501.55 432.941 500.99C432.581 500.43 432.091 499.95 431.471 499.55C430.851 499.15 430.111 498.84 429.251 498.62C428.411 498.38 427.511 498.26 426.551 498.26ZM426.551 510.68C425.851 510.68 425.181 510.63 424.541 510.53C423.901 510.43 423.291 510.29 422.711 510.11V516.38H430.391V510.11C429.811 510.31 429.191 510.46 428.531 510.56C427.891 510.64 427.231 510.68 426.551 510.68ZM442.366 516.65H445.396V519.65H442.366V516.65Z" fill="black"/>
<rect x="95" y="3" width="15" height="300" fill="url(#paint0_linear_291_74)"/>
<rect x="395" y="288" width="15" height="300" transform="rotate(90 395 288)" fill="url(#paint1_linear_291_74)"/>
<path d="M135 158C135 152.477 139.477 148 145 148C150.523 148 155 152.477 155 158V288H135V158Z" fill="#55CBCD"/>
<path d="M175 118C175 112.477 179.477 108 185 108C190.523 108 195 112.477 195 118V288H175V118Z" fill="#55CBCD"/>
<path d="M215 138C215 132.477 219.477 128 225 128C230.523 128 235 132.477 235 138V288H215V138Z" fill="#55CBCD"/>
<path d="M255 98C255 92.4772 259.477 88 265 88C270.523 88 275 92.4772 275 98V288H255V98Z" fill="#55CBCD"/>
<path d="M295 78C295 72.4772 299.477 68 305 68C310.523 68 315 72.4772 315 78V288H295V78Z" fill="#55CBCD"/>
<path d="M305.22 0C295.71 0 288 7.70959 288 17.2197C288.007 20.1395 288.756 23.0099 289.454 24.2851L305.22 60L320.287 25.5605H320.279C321.694 23.0083 322.438 20.1382 322.439 17.2197C322.439 7.70959 314.73 0 305.22 0ZM305.22 8.60975C306.35 8.60975 307.47 8.83245 308.515 9.26515C309.559 9.69785 310.508 10.3321 311.308 11.1316C312.107 11.9311 312.742 12.8802 313.174 13.9249C313.607 14.9695 313.83 16.0891 313.829 17.2197C313.829 19.5032 312.922 21.6931 311.308 23.3078C309.693 24.9224 307.503 25.8295 305.22 25.8295C302.936 25.8295 300.746 24.9224 299.132 23.3078C297.517 21.6931 296.61 19.5032 296.61 17.2197C296.61 14.9363 297.517 12.7464 299.132 11.1317C300.746 9.51709 302.936 8.61 305.22 8.61V8.60975Z" fill="#55CBCD"/>
<defs>
<linearGradient id="paint0_linear_291_74" x1="102.5" y1="3" x2="102.5" y2="303" gradientUnits="userSpaceOnUse">
<stop stop-color="white"/>
<stop offset="1" stop-color="#A2E1DB" stop-opacity="0.6"/>
</linearGradient>
<linearGradient id="paint1_linear_291_74" x1="402.5" y1="288" x2="402.5" y2="588" gradientUnits="userSpaceOnUse">
<stop stop-color="white"/>
<stop offset="1" stop-color="#A2E1DB" stop-opacity="0.6"/>
</linearGradient>
</defs>
</svg>
