<svg width="50" height="50" viewBox="0 0 50 50" fill="none" xmlns="http://www.w3.org/2000/svg">
<path d="M8.33325 37.5001C8.33325 35.2899 9.21123 33.1703 10.774 31.6075C12.3368 30.0447 14.4564 29.1667 16.6666 29.1667H33.3333C35.5434 29.1667 37.663 30.0447 39.2258 31.6075C40.7886 33.1703 41.6666 35.2899 41.6666 37.5001C41.6666 38.6051 41.2276 39.665 40.4462 40.4464C39.6648 41.2278 38.605 41.6667 37.4999 41.6667H12.4999C11.3948 41.6667 10.335 41.2278 9.55364 40.4464C8.77224 39.665 8.33325 38.6051 8.33325 37.5001Z" stroke="black" stroke-width="3" stroke-linejoin="round"/>
<path d="M25 20.8334C28.4518 20.8334 31.25 18.0352 31.25 14.5834C31.25 11.1316 28.4518 8.33337 25 8.33337C21.5482 8.33337 18.75 11.1316 18.75 14.5834C18.75 18.0352 21.5482 20.8334 25 20.8334Z" stroke="black" stroke-width="3"/>
</svg>
