<svg width="500" height="500" viewBox="0 0 500 500" fill="none" xmlns="http://www.w3.org/2000/svg">
<path d="M79.7365 259C79.1365 255.7 79.5865 249.55 81.0865 240.55C82.5865 231.55 84.3865 221.95 86.4865 211.75C88.5865 201.25 90.6865 191.35 92.7865 182.05C95.1865 172.45 97.1365 165.55 98.6365 161.35C92.9365 164.65 85.4365 167.65 76.1365 170.35C66.8365 173.05 58.7365 174.4 51.8365 174.4C45.8365 174.4 40.4365 171.55 35.6365 165.85C31.1365 160.15 28.4365 153.85 27.5365 146.95C26.3365 138.25 26.4865 128.8 27.9865 118.6C29.7865 108.1 32.3365 98.05 35.6365 88.45C33.8365 89.05 32.0365 89.5 30.2365 89.8C28.4365 90.1 26.7865 90.55 25.2865 91.15C23.4865 91.75 21.3865 91.45 18.9865 90.25C16.8865 89.05 14.9365 87.55 13.1365 85.75C11.3365 83.95 9.83652 81.85 8.63652 79.45C7.43652 77.05 6.98652 74.65 7.28652 72.25C7.28652 70.45 7.73652 68.65 8.63652 66.85C9.23652 65.35 10.1365 63.85 11.3365 62.35C12.8365 60.85 14.9365 59.8 17.6365 59.2C19.7365 58.6 24.3865 57.7 31.5865 56.5C38.7865 55 46.8865 53.8 55.8865 52.9C65.1865 51.7 74.6365 50.8 84.2365 50.2C93.8365 49.6 102.087 49.75 108.987 50.65C112.887 51.25 116.037 52.9 118.437 55.6C121.137 58.3 122.487 61.45 122.487 65.05C122.487 66.55 121.737 68.05 120.237 69.55C118.737 71.05 116.937 72.1 114.837 72.7C107.637 74.2 99.6865 75.7 90.9865 77.2C82.5865 78.7 74.0365 80.35 65.3365 82.15C62.9365 93.25 61.2865 103.75 60.3865 113.65C59.4865 123.55 59.0365 133.3 59.0365 142.9C62.6365 142 66.8365 140.95 71.6365 139.75C76.4365 138.25 81.2365 136.75 86.0365 135.25C91.1365 133.75 95.7865 132.1 99.9865 130.3C104.487 128.5 108.387 126.7 111.687 124.9C115.287 122.8 119.037 121.6 122.937 121.3C127.137 121 130.737 121.6 133.737 123.1C136.737 124.6 138.387 127.75 138.687 132.55C139.287 137.35 138.687 141.25 136.887 144.25C134.187 149.35 131.187 156.7 127.887 166.3C124.887 175.6 121.887 185.95 118.887 197.35C115.887 208.45 113.187 219.7 110.787 231.1C108.387 242.5 106.587 252.4 105.387 260.8C116.487 257.5 127.287 254.35 137.787 251.35C148.287 248.35 156.537 245.95 162.537 244.15C164.637 243.55 167.037 243.1 169.737 242.8C172.737 242.5 175.587 242.65 178.287 243.25C181.287 243.55 183.837 244.45 185.937 245.95C188.037 247.45 189.237 249.7 189.537 252.7C190.137 258.7 186.987 263.2 180.087 266.2C174.087 268.9 165.837 272.05 155.337 275.65C145.137 279.25 134.337 282.7 122.937 286C111.537 289.3 100.587 292.3 90.0865 295C79.5865 297.4 71.3365 298.9 65.3365 299.5C60.2365 300.1 54.9865 300.1 49.5865 299.5C44.4865 298.9 41.1865 296.5 39.6865 292.3C38.4865 289 39.2365 285.55 41.9365 281.95C44.9365 278.35 49.2865 275.8 54.9865 274.3C58.2865 273.4 62.3365 272.35 67.1365 271.15C71.9365 269.95 77.1865 268.6 82.8865 267.1C81.3865 265 80.3365 262.3 79.7365 259ZM163.437 419.65C162.837 421.75 160.887 424.45 157.587 427.75C154.287 431.35 150.087 432.7 144.987 431.8C142.287 431.2 139.737 429.4 137.337 426.4C135.237 423.7 134.637 420.1 135.537 415.6C136.437 411.1 137.187 405.7 137.787 399.4C138.687 393.1 139.437 386.5 140.037 379.6C140.637 372.7 141.237 366.1 141.837 359.8C142.437 353.5 142.737 348.1 142.737 343.6C135.537 345.4 127.737 347.95 119.337 351.25C110.937 354.25 103.287 357.1 96.3865 359.8C92.4865 361.3 88.5865 361.6 84.6865 360.7C81.0865 359.5 78.5365 356.95 77.0365 353.05C76.1365 349.75 76.5865 346.6 78.3865 343.6C80.1865 340.3 82.2865 337.9 84.6865 336.4C87.3865 334.6 91.2865 332.5 96.3865 330.1C101.487 327.7 106.887 325.45 112.587 323.35C118.287 320.95 123.837 319 129.237 317.5C134.637 315.7 139.137 314.65 142.737 314.35C152.937 313.75 160.287 315.85 164.787 320.65C169.587 325.45 171.837 332.2 171.537 340.9C171.537 345.4 171.237 351.4 170.637 358.9C170.037 366.1 169.437 373.6 168.837 381.4C168.237 388.9 167.337 396.1 166.137 403C165.237 409.9 164.337 415.45 163.437 419.65ZM461.249 304.9C461.549 308.5 460.649 311.8 458.549 314.8C456.749 317.5 453.749 318.85 449.549 318.85C444.449 318.85 440.699 316 438.299 310.3C436.199 304.3 434.699 297.7 433.799 290.5C433.199 286 432.749 280.15 432.449 272.95C432.449 265.75 432.599 258.25 432.899 250.45C433.199 242.65 433.649 235.3 434.249 228.4C434.849 221.5 435.449 215.95 436.049 211.75C427.349 214.75 419.399 217.9 412.199 221.2C404.999 224.2 397.799 227.35 390.599 230.65C387.899 232.15 384.599 232.6 380.699 232C380.999 240.7 381.449 249.1 382.049 257.2C382.649 265 383.549 271.9 384.749 277.9C385.349 283 384.599 287.05 382.499 290.05C380.699 293.05 377.849 294.85 373.949 295.45C369.749 296.05 366.449 293.95 364.049 289.15C361.649 284.35 359.849 279.4 358.649 274.3C357.449 268.6 356.249 260.8 355.049 250.9C354.149 241 353.399 230.65 352.799 219.85C352.499 209.05 352.499 198.7 352.799 188.8C353.099 178.6 353.699 170.5 354.599 164.5C355.799 158.8 357.299 154.45 359.099 151.45C360.899 148.15 363.749 146.2 367.649 145.6C372.749 144.7 376.799 146.05 379.799 149.65C383.099 152.95 384.449 157.6 383.849 163.6C382.649 169 381.749 175.45 381.149 182.95C380.849 190.45 380.549 198.4 380.249 206.8C385.349 203.8 390.749 200.95 396.449 198.25C402.449 195.25 408.149 192.55 413.549 190.15C418.949 187.75 423.899 185.65 428.399 183.85C432.899 182.05 436.499 180.7 439.199 179.8C439.799 174.4 440.549 169.15 441.449 164.05C442.349 158.65 443.699 153.85 445.499 149.65C447.299 146.05 449.399 143.2 451.799 141.1C454.199 139 456.749 138.25 459.449 138.85C462.449 139.45 464.699 141.1 466.199 143.8C467.999 146.2 469.199 149.05 469.799 152.35C470.399 155.65 470.549 159.1 470.249 162.7C470.249 166 470.099 169 469.799 171.7C468.899 182.2 467.849 192.55 466.649 202.75C465.749 212.65 464.849 223 463.949 233.8C463.049 244.3 462.299 255.4 461.699 267.1C461.399 278.8 461.249 291.4 461.249 304.9ZM271.799 164.5C276.599 164.2 281.099 164.5 285.299 165.4C289.799 166.3 293.399 168.1 296.099 170.8C299.099 173.2 301.049 176.5 301.949 180.7C302.849 184.9 302.249 190 300.149 196C297.449 202.3 294.599 209.35 291.599 217.15C288.599 224.95 285.749 233.05 283.049 241.45C280.649 249.55 278.549 257.65 276.749 265.75C275.249 273.85 274.499 281.35 274.499 288.25C283.499 283.75 289.499 279.25 292.499 274.75C295.499 269.95 296.399 266.2 295.199 263.5C292.799 258.4 290.849 253.9 289.349 250C288.149 246.1 288.749 242.8 291.149 240.1C294.449 236.5 298.049 235.75 301.949 237.85C306.149 239.65 308.999 241.9 310.499 244.6C315.299 252.1 317.849 259.3 318.149 266.2C318.749 272.8 317.849 278.95 315.449 284.65C313.049 290.35 309.599 295.6 305.099 300.4C300.599 304.9 295.949 308.65 291.149 311.65C286.949 314.35 282.449 316.45 277.649 317.95C272.849 319.15 268.499 319.75 264.599 319.75C260.099 319.75 256.049 318.1 252.449 314.8C248.849 311.2 246.599 305.5 245.699 297.7C244.799 289 244.949 280.15 246.149 271.15C247.649 261.85 249.749 252.7 252.449 243.7C255.149 234.7 258.299 225.85 261.899 217.15C265.499 208.45 269.099 200.2 272.699 192.4C263.399 193.9 255.749 195.7 249.749 197.8C243.749 199.9 236.549 202.6 228.149 205.9C224.549 207.4 220.199 207.7 215.099 206.8C210.299 205.9 206.849 203.8 204.749 200.5C203.249 198.1 202.499 196 202.499 194.2C202.499 192.4 203.549 190.3 205.649 187.9C206.549 187 209.399 185.35 214.199 182.95C218.999 180.55 224.699 178.15 231.299 175.75C238.199 173.05 245.249 170.65 252.449 168.55C259.649 166.45 266.099 165.1 271.799 164.5ZM277.199 143.35C273.899 145.75 270.749 146.05 267.749 144.25C264.749 142.45 262.049 140.35 259.649 137.95C254.849 132.85 248.549 127 240.749 120.4C233.249 113.5 225.749 107.2 218.249 101.5C216.149 100 214.949 97.45 214.649 93.85C214.649 89.95 215.849 86.8 218.249 84.4C219.449 82.9 221.549 81.7 224.549 80.8C227.549 79.6 230.999 80.2 234.899 82.6C237.599 84.4 241.049 87.1 245.249 90.7C249.449 94 253.649 97.9 257.849 102.4C262.349 106.6 266.399 111.1 269.999 115.9C273.899 120.7 276.899 125.35 278.999 129.85C280.499 132.25 281.099 134.8 280.799 137.5C280.799 139.9 279.599 141.85 277.199 143.35Z" fill="url(#paint0_linear_247_78)"/>
<defs>
<linearGradient id="paint0_linear_247_78" x1="250" y1="0" x2="250" y2="500" gradientUnits="userSpaceOnUse">
<stop offset="0.2" stop-color="#55CBCD"/>
<stop offset="1" stop-color="#6B6B6B"/>
</linearGradient>
</defs>
</svg>
