<svg width="200" height="200" viewBox="0 0 200 200" fill="none" xmlns="http://www.w3.org/2000/svg">
<path d="M43.2455 103C43.0455 101.9 43.1955 99.85 43.6955 96.85C44.1955 93.85 44.7955 90.65 45.4955 87.25C46.1955 83.75 46.8955 80.45 47.5955 77.35C48.3955 74.15 49.0455 71.85 49.5455 70.45C47.6455 71.55 45.1455 72.55 42.0455 73.45C38.9455 74.35 36.2455 74.8 33.9455 74.8C31.9455 74.8 30.1455 73.85 28.5455 71.95C27.0455 70.05 26.1455 67.95 25.8455 65.65C25.4455 62.75 25.4955 59.6 25.9955 56.2C26.5955 52.7 27.4455 49.35 28.5455 46.15C27.9455 46.35 27.3455 46.5 26.7455 46.6C26.1455 46.7 25.5955 46.85 25.0955 47.05C24.4955 47.25 23.7955 47.15 22.9955 46.75C22.2955 46.35 21.6455 45.85 21.0455 45.25C20.4455 44.65 19.9455 43.95 19.5455 43.15C19.1455 42.35 18.9955 41.55 19.0955 40.75C19.0955 40.15 19.2455 39.55 19.5455 38.95C19.7455 38.45 20.0455 37.95 20.4455 37.45C20.9455 36.95 21.6455 36.6 22.5455 36.4C23.2455 36.2 24.7955 35.9 27.1955 35.5C29.5955 35 32.2955 34.6 35.2955 34.3C38.3955 33.9 41.5455 33.6 44.7455 33.4C47.9455 33.2 50.6955 33.25 52.9955 33.55C54.2955 33.75 55.3455 34.3 56.1455 35.2C57.0455 36.1 57.4955 37.15 57.4955 38.35C57.4955 38.85 57.2455 39.35 56.7455 39.85C56.2455 40.35 55.6455 40.7 54.9455 40.9C52.5455 41.4 49.8955 41.9 46.9955 42.4C44.1955 42.9 41.3455 43.45 38.4455 44.05C37.6455 47.75 37.0955 51.25 36.7955 54.55C36.4955 57.85 36.3455 61.1 36.3455 64.3C37.5455 64 38.9455 63.65 40.5455 63.25C42.1455 62.75 43.7455 62.25 45.3455 61.75C47.0455 61.25 48.5955 60.7 49.9955 60.1C51.4955 59.5 52.7955 58.9 53.8955 58.3C55.0955 57.6 56.3455 57.2 57.6455 57.1C59.0455 57 60.2455 57.2 61.2455 57.7C62.2455 58.2 62.7955 59.25 62.8955 60.85C63.0955 62.45 62.8955 63.75 62.2955 64.75C61.3955 66.45 60.3955 68.9 59.2955 72.1C58.2955 75.2 57.2955 78.65 56.2955 82.45C55.2955 86.15 54.3955 89.9 53.5955 93.7C52.7955 97.5 52.1955 100.8 51.7955 103.6C55.4955 102.5 59.0955 101.45 62.5955 100.45C66.0955 99.45 68.8455 98.65 70.8455 98.05C71.5455 97.85 72.3455 97.7 73.2455 97.6C74.2455 97.5 75.1955 97.55 76.0955 97.75C77.0955 97.85 77.9455 98.15 78.6455 98.65C79.3455 99.15 79.7455 99.9 79.8455 100.9C80.0455 102.9 78.9955 104.4 76.6955 105.4C74.6955 106.3 71.9455 107.35 68.4455 108.55C65.0455 109.75 61.4455 110.9 57.6455 112C53.8455 113.1 50.1955 114.1 46.6955 115C43.1955 115.8 40.4455 116.3 38.4455 116.5C36.7455 116.7 34.9955 116.7 33.1955 116.5C31.4955 116.3 30.3955 115.5 29.8955 114.1C29.4955 113 29.7455 111.85 30.6455 110.65C31.6455 109.45 33.0955 108.6 34.9955 108.1C36.0955 107.8 37.4455 107.45 39.0455 107.05C40.6455 106.65 42.3955 106.2 44.2955 105.7C43.7955 105 43.4455 104.1 43.2455 103ZM71.1455 156.55C70.9455 157.25 70.2955 158.15 69.1955 159.25C68.0955 160.45 66.6955 160.9 64.9955 160.6C64.0955 160.4 63.2455 159.8 62.4455 158.8C61.7455 157.9 61.5455 156.7 61.8455 155.2C62.1455 153.7 62.3955 151.9 62.5955 149.8C62.8955 147.7 63.1455 145.5 63.3455 143.2C63.5455 140.9 63.7455 138.7 63.9455 136.6C64.1455 134.5 64.2455 132.7 64.2455 131.2C61.8455 131.8 59.2455 132.65 56.4455 133.75C53.6455 134.75 51.0955 135.7 48.7955 136.6C47.4955 137.1 46.1955 137.2 44.8955 136.9C43.6955 136.5 42.8455 135.65 42.3455 134.35C42.0455 133.25 42.1955 132.2 42.7955 131.2C43.3955 130.1 44.0955 129.3 44.8955 128.8C45.7955 128.2 47.0955 127.5 48.7955 126.7C50.4955 125.9 52.2955 125.15 54.1955 124.45C56.0955 123.65 57.9455 123 59.7455 122.5C61.5455 121.9 63.0455 121.55 64.2455 121.45C67.6455 121.25 70.0955 121.95 71.5955 123.55C73.1955 125.15 73.9455 127.4 73.8455 130.3C73.8455 131.8 73.7455 133.8 73.5455 136.3C73.3455 138.7 73.1455 141.2 72.9455 143.8C72.7455 146.3 72.4455 148.7 72.0455 151C71.7455 153.3 71.4455 155.15 71.1455 156.55ZM170.416 118.3C170.516 119.5 170.216 120.6 169.516 121.6C168.916 122.5 167.916 122.95 166.516 122.95C164.816 122.95 163.566 122 162.766 120.1C162.066 118.1 161.566 115.9 161.266 113.5C161.066 112 160.916 110.05 160.816 107.65C160.816 105.25 160.866 102.75 160.966 100.15C161.066 97.55 161.216 95.1 161.416 92.8C161.616 90.5 161.816 88.65 162.016 87.25C159.116 88.25 156.466 89.3 154.066 90.4C151.666 91.4 149.266 92.45 146.866 93.55C145.966 94.05 144.866 94.2 143.566 94C143.666 96.9 143.816 99.7 144.016 102.4C144.216 105 144.516 107.3 144.916 109.3C145.116 111 144.866 112.35 144.166 113.35C143.566 114.35 142.616 114.95 141.316 115.15C139.916 115.35 138.816 114.65 138.016 113.05C137.216 111.45 136.616 109.8 136.216 108.1C135.816 106.2 135.416 103.6 135.016 100.3C134.716 97 134.466 93.55 134.266 89.95C134.166 86.35 134.166 82.9 134.266 79.6C134.366 76.2 134.566 73.5 134.866 71.5C135.266 69.6 135.766 68.15 136.366 67.15C136.966 66.05 137.916 65.4 139.216 65.2C140.916 64.9 142.266 65.35 143.266 66.55C144.366 67.65 144.816 69.2 144.616 71.2C144.216 73 143.916 75.15 143.716 77.65C143.616 80.15 143.516 82.8 143.416 85.6C145.116 84.6 146.916 83.65 148.816 82.75C150.816 81.75 152.716 80.85 154.516 80.05C156.316 79.25 157.966 78.55 159.466 77.95C160.966 77.35 162.166 76.9 163.066 76.6C163.266 74.8 163.516 73.05 163.816 71.35C164.116 69.55 164.566 67.95 165.166 66.55C165.766 65.35 166.466 64.4 167.266 63.7C168.066 63 168.916 62.75 169.816 62.95C170.816 63.15 171.566 63.7 172.066 64.6C172.666 65.4 173.066 66.35 173.266 67.45C173.466 68.55 173.516 69.7 173.416 70.9C173.416 72 173.366 73 173.266 73.9C172.966 77.4 172.616 80.85 172.216 84.25C171.916 87.55 171.616 91 171.316 94.6C171.016 98.1 170.766 101.8 170.566 105.7C170.466 109.6 170.416 113.8 170.416 118.3ZM107.266 71.5C108.866 71.4 110.366 71.5 111.766 71.8C113.266 72.1 114.466 72.7 115.366 73.6C116.366 74.4 117.016 75.5 117.316 76.9C117.616 78.3 117.416 80 116.716 82C115.816 84.1 114.866 86.45 113.866 89.05C112.866 91.65 111.916 94.35 111.016 97.15C110.216 99.85 109.516 102.55 108.916 105.25C108.416 107.95 108.166 110.45 108.166 112.75C111.166 111.25 113.166 109.75 114.166 108.25C115.166 106.65 115.466 105.4 115.066 104.5C114.266 102.8 113.616 101.3 113.116 100C112.716 98.7 112.916 97.6 113.716 96.7C114.816 95.5 116.016 95.25 117.316 95.95C118.716 96.55 119.666 97.3 120.166 98.2C121.766 100.7 122.616 103.1 122.716 105.4C122.916 107.6 122.616 109.65 121.816 111.55C121.016 113.45 119.866 115.2 118.366 116.8C116.866 118.3 115.316 119.55 113.716 120.55C112.316 121.45 110.816 122.15 109.216 122.65C107.616 123.05 106.166 123.25 104.866 123.25C103.366 123.25 102.016 122.7 100.816 121.6C99.6162 120.4 98.8662 118.5 98.5662 115.9C98.2662 113 98.3162 110.05 98.7162 107.05C99.2162 103.95 99.9162 100.9 100.816 97.9C101.716 94.9 102.766 91.95 103.966 89.05C105.166 86.15 106.366 83.4 107.566 80.8C104.466 81.3 101.916 81.9 99.9162 82.6C97.9162 83.3 95.5162 84.2 92.7162 85.3C91.5162 85.8 90.0662 85.9 88.3662 85.6C86.7662 85.3 85.6162 84.6 84.9162 83.5C84.4162 82.7 84.1662 82 84.1662 81.4C84.1662 80.8 84.5162 80.1 85.2162 79.3C85.5162 79 86.4662 78.45 88.0662 77.65C89.6662 76.85 91.5662 76.05 93.7662 75.25C96.0662 74.35 98.4162 73.55 100.816 72.85C103.216 72.15 105.366 71.7 107.266 71.5ZM109.066 64.45C107.966 65.25 106.916 65.35 105.916 64.75C104.916 64.15 104.016 63.45 103.216 62.65C101.616 60.95 99.5162 59 96.9162 56.8C94.4162 54.5 91.9162 52.4 89.4162 50.5C88.7162 50 88.3162 49.15 88.2162 47.95C88.2162 46.65 88.6162 45.6 89.4162 44.8C89.8162 44.3 90.5162 43.9 91.5162 43.6C92.5162 43.2 93.6662 43.4 94.9662 44.2C95.8662 44.8 97.0162 45.7 98.4162 46.9C99.8162 48 101.216 49.3 102.616 50.8C104.116 52.2 105.466 53.7 106.666 55.3C107.966 56.9 108.966 58.45 109.666 59.95C110.166 60.75 110.366 61.6 110.266 62.5C110.266 63.3 109.866 63.95 109.066 64.45Z" fill="url(#paint0_linear_245_77)"/>
<defs>
<linearGradient id="paint0_linear_245_77" x1="100" y1="0" x2="100" y2="200" gradientUnits="userSpaceOnUse">
<stop offset="0.2" stop-color="#55CBCD"/>
<stop offset="1" stop-color="#6B6B6B"/>
</linearGradient>
</defs>
</svg>
